M48
; DRILL file {KiCad 8.0.1} date 2024-04-02T21:45:01-0600
; FORMAT={-:-/ absolute / inch / decimal}
; #@! TF.CreationDate,2024-04-02T21:45:01-06:00
; #@! TF.GenerationSoftware,Kicad,Pcbnew,8.0.1
; #@! TF.FileFunction,Plated,1,2,PTH
FMAT,2
INCH
; #@! TA.AperFunction,Plated,PTH,ComponentDrill
T1C0.0150
; #@! TA.AperFunction,Plated,PTH,ViaDrill
T2C0.0157
; #@! TA.AperFunction,Plated,PTH,ComponentDrill
T3C0.0299
; #@! TA.AperFunction,Plated,PTH,ComponentDrill
T4C0.0315
; #@! TA.AperFunction,Plated,PTH,ComponentDrill
T5C0.0354
; #@! TA.AperFunction,Plated,PTH,ComponentDrill
T6C0.0394
; #@! TA.AperFunction,Plated,PTH,ComponentDrill
T7C0.0400
; #@! TA.AperFunction,Plated,PTH,ComponentDrill
T8C0.0433
; #@! TA.AperFunction,Plated,PTH,ComponentDrill
T9C0.0550
; #@! TA.AperFunction,Plated,PTH,ComponentDrill
T10C0.0630
; #@! TA.AperFunction,Plated,PTH,ComponentDrill
T11C0.1500
; #@! TA.AperFunction,Plated,PTH,ComponentDrill
T12C0.1870
%
G90
G05
T1
X2.1372Y-5.5983
X2.2862Y-3.5678
X2.61Y-5.46
X2.79Y-3.71
X3.1865Y-4.9953
X3.5135Y-4.1897
X3.6049Y-1.1129
X3.6649Y-2.4429
X3.9516Y-4.9491
X4.0349Y-1.4729
X4.0449Y-0.9529
X4.1149Y-2.3129
X4.1149Y-2.8029
X4.3549Y-1.4729
X4.3649Y-0.9529
X4.38Y-4.22
X4.4349Y-2.3129
X4.4349Y-2.8029
X4.8348Y-4.885
X5.1494Y-4.18
X5.6459Y-4.9163
X5.965Y-4.1903
X6.2449Y-2.5679
X6.3058Y-2.3379
X6.5349Y-2.5272
X6.5949Y-1.7772
X6.5949Y-2.1372
X6.8849Y-3.0072
X6.9167Y-4.15
X6.9167Y-4.28
X6.9167Y-4.41
X6.9167Y-4.54
X6.9189Y-4.6687
X6.9189Y-4.7987
X6.9189Y-4.9287
X6.9189Y-5.0587
X6.9756Y-2.5379
X7.2849Y-1.6585
X8.6921Y-3.9472
X8.6921Y-4.1979
X8.6921Y-4.2766
X8.8221Y-3.8685
X8.8221Y-3.9472
X8.8221Y-4.1972
X8.8221Y-4.276
X8.9521Y-3.9472
X8.9521Y-4.1972
X8.9521Y-4.276
X9.0821Y-3.9472
X9.0821Y-4.1972
X9.0821Y-4.276
X9.2369Y-3.6396
X9.4021Y-3.7579
X9.6118Y-2.9279
X9.6118Y-3.0079
X9.6118Y-3.0879
X9.6118Y-3.1679
X9.6118Y-3.2479
X9.6118Y-3.3279
X10.1322Y-3.1729
X10.1322Y-3.5048
X10.1322Y-3.7744
X10.2622Y-3.1729
X10.2622Y-3.5035
X10.2622Y-3.6941
X10.3922Y-3.1729
X10.3922Y-3.5035
X10.3922Y-3.6941
X10.4521Y-3.9785
X10.5222Y-3.1729
X10.5222Y-3.5041
X10.5222Y-3.6941
X10.5821Y-3.9691
X10.5821Y-4.0479
T2
X3.0149Y-1.6829
X3.33Y-4.29
X3.36Y-4.34
X3.41Y-4.39
X4.7849Y-1.9029
X9.2579Y-4.5437
X9.2821Y-4.1479
X9.3421Y-4.0579
X9.3421Y-4.0579
X9.4821Y-3.9879
X9.5521Y-4.2779
X9.6221Y-4.1279
X9.6421Y-3.6979
X9.6421Y-3.8979
X9.6621Y-4.1579
X9.6795Y-3.9103
X9.7121Y-4.1879
X9.7142Y-3.929
X9.7821Y-4.2979
X9.9521Y-3.7079
X9.9621Y-3.8579
X9.9721Y-4.1179
X10.0021Y-3.8279
X10.051Y-3.8179
X10.2321Y-4.4679
X10.2632Y-4.7079
X10.2932Y-4.6468
X10.3621Y-4.1079
X10.5221Y-4.1179
X10.65Y-2.98
T3
X8.9481Y-5.5082
X8.9981Y-5.4082
X9.0481Y-5.5082
X9.0981Y-5.4082
X9.5281Y-5.5082
X9.5781Y-5.4082
X9.6281Y-5.5082
X9.6781Y-5.4082
X10.9221Y-5.1427
X10.9221Y-5.2427
X11.0221Y-5.1927
X11.0221Y-5.2927
T4
X8.0121Y-2.2286
X8.1121Y-2.2286
X8.2121Y-2.2286
X8.3121Y-2.2286
X8.4121Y-2.2286
X8.5121Y-2.2286
X8.6121Y-2.2286
X8.7121Y-2.2286
X8.8121Y-2.2286
X9.0715Y-2.2304
X9.1715Y-2.2304
X9.2715Y-2.2304
X9.3715Y-2.2304
X9.4715Y-2.2304
X9.5715Y-2.2304
X9.6715Y-2.2304
X9.7715Y-2.2304
X9.8715Y-2.2304
X9.9418Y-2.7379
X9.9418Y-2.8379
X9.9418Y-2.9379
X9.9418Y-3.0379
X9.9418Y-3.1379
X9.9418Y-3.2379
X9.9418Y-3.3379
X9.9418Y-3.4379
X9.9418Y-3.5379
X10.1365Y-2.2261
X10.2365Y-2.2261
X10.3365Y-2.2261
X10.4365Y-2.2261
X10.5365Y-2.2261
X10.6365Y-2.2261
X10.7365Y-2.2261
X10.8365Y-2.2261
X10.9365Y-2.2261
T5
X0.9405Y-4.44
X0.9405Y-4.54
X0.9405Y-4.64
X0.9405Y-4.74
X0.9426Y-1.6729
X0.9426Y-1.7729
X0.9426Y-1.8729
X0.9426Y-1.9729
X1.0405Y-4.49
X1.0405Y-4.59
X1.0405Y-4.69
X1.0405Y-4.79
X1.0426Y-1.7229
X1.0426Y-1.8229
X1.0426Y-1.9229
X1.0426Y-2.0229
X5.0121Y-1.7179
X5.0121Y-1.8179
X5.0121Y-1.9179
X5.0121Y-2.0179
X5.1121Y-1.7679
X5.1121Y-1.8679
X5.1121Y-1.9679
X5.1121Y-2.0679
X7.0395Y-4.415
X7.0395Y-4.515
X7.0395Y-4.615
X7.0395Y-4.715
X7.1395Y-4.465
X7.1395Y-4.565
X7.1395Y-4.665
X7.1395Y-4.765
X7.295Y-2.0029
X7.295Y-2.1029
X7.295Y-2.2029
X7.295Y-2.3029
X7.395Y-2.0529
X7.395Y-2.1529
X7.395Y-2.2529
X7.395Y-2.3529
X8.1881Y-1.5885
X8.2381Y-1.4885
X8.2881Y-1.5885
X8.3381Y-1.4885
X8.3421Y-3.8987
X8.3421Y-3.9987
X8.3421Y-4.0987
X8.3421Y-4.1987
X8.3881Y-1.5885
X8.4381Y-1.4885
X8.4421Y-3.9487
X8.4421Y-4.0487
X8.4421Y-4.1487
X8.4421Y-4.2487
X8.4881Y-1.5885
X8.5381Y-1.4885
X9.2475Y-1.5903
X9.2975Y-1.4903
X9.3475Y-1.5903
X9.3975Y-1.4903
X9.4475Y-1.5903
X9.4975Y-1.4903
X9.5475Y-1.5903
X9.5975Y-1.4903
X10.3126Y-1.586
X10.3626Y-1.486
X10.4126Y-1.586
X10.4626Y-1.486
X10.5126Y-1.586
X10.5626Y-1.486
X10.6126Y-1.586
X10.6626Y-1.486
X10.8021Y-4.1979
X10.8021Y-4.2979
X10.8021Y-4.3979
X10.8021Y-4.4979
X10.8022Y-3.1729
X10.8022Y-3.2729
X10.8022Y-3.3729
X10.8022Y-3.4729
X10.9021Y-4.2479
X10.9021Y-4.3479
X10.9021Y-4.4479
X10.9021Y-4.5479
X10.9022Y-3.2229
X10.9022Y-3.3229
X10.9022Y-3.4229
X10.9022Y-3.5229
T6
X0.7649Y-2.7529
X0.7649Y-2.8529
X0.7649Y-2.9529
X0.8149Y-0.7729
X0.8149Y-0.8729
X0.8149Y-0.9729
X1.2041Y-5.4244
X1.2066Y-5.2327
X1.2941Y-2.0526
X1.2941Y-2.1526
X1.2941Y-2.2526
X1.2949Y-1.1229
X1.2949Y-1.2229
X1.2949Y-1.3229
X1.2949Y-2.4129
X1.2949Y-2.5129
X1.2949Y-2.6129
X1.2958Y-1.4898
X1.2958Y-1.5898
X1.2958Y-1.6898
X1.3041Y-5.4244
X1.3066Y-5.2327
X1.4062Y-3.9278
X1.4075Y-3.7769
X1.4536Y-0.7776
X1.4536Y-0.8776
X1.4536Y-0.9776
X1.4549Y-2.7529
X1.4549Y-2.8529
X1.4549Y-2.9529
X1.5062Y-3.9278
X1.5075Y-3.7769
X1.7009Y-4.0713
X1.7009Y-4.1713
X1.9449Y-1.1129
X1.9449Y-1.2129
X1.9449Y-1.3129
X1.9449Y-1.4805
X1.9449Y-1.5805
X1.9449Y-1.6805
X1.9849Y-2.0529
X1.9849Y-2.1529
X1.9849Y-2.2529
X1.9849Y-2.4129
X1.9849Y-2.5129
X1.9849Y-2.6129
X2.1023Y-0.7726
X2.1023Y-0.8726
X2.1023Y-0.9726
X2.1441Y-2.7526
X2.1441Y-2.8526
X2.1441Y-2.9526
X2.5932Y-1.1129
X2.5932Y-1.2129
X2.5932Y-1.3129
X2.5949Y-1.4802
X2.5949Y-1.5802
X2.5949Y-1.6802
X2.6749Y-2.0529
X2.6749Y-2.1529
X2.6749Y-2.2529
X2.6749Y-2.4229
X2.6749Y-2.5229
X2.6749Y-2.6229
X2.7541Y-0.7726
X2.7541Y-0.8726
X2.7541Y-0.9726
X2.8341Y-2.7526
X2.8341Y-2.8526
X2.8341Y-2.9526
X2.93Y-5.23
X2.93Y-5.44
X3.03Y-5.23
X3.03Y-5.44
X3.12Y-3.96
X3.12Y-4.06
X3.12Y-4.16
X3.13Y-5.23
X3.13Y-5.44
X3.2332Y-1.1156
X3.2332Y-1.2156
X3.2332Y-1.3156
X3.2349Y-1.4829
X3.2349Y-1.5829
X3.2349Y-1.6829
X3.2809Y-3.7103
X3.2809Y-3.8103
X3.2809Y-3.9103
X3.3491Y-5.2697
X3.3491Y-5.3697
X3.3491Y-5.4697
X3.3549Y-2.0529
X3.3549Y-2.1529
X3.3549Y-2.2529
X3.3549Y-2.4229
X3.3549Y-2.5229
X3.3549Y-2.6229
X3.4897Y-3.7009
X3.4897Y-3.9209
X3.5897Y-3.7009
X3.5897Y-3.9209
X3.6083Y-5.0394
X3.6083Y-5.1394
X3.6083Y-5.2394
X3.6897Y-3.7009
X3.6897Y-3.9209
X3.8003Y-5.4691
X3.8006Y-5.2583
X3.9003Y-5.4691
X3.9006Y-5.2583
X3.98Y-3.95
X3.98Y-4.05
X3.98Y-4.15
X4.0003Y-5.4691
X4.0006Y-5.2583
X4.1391Y-3.6997
X4.1391Y-3.7997
X4.1391Y-3.8997
X4.2094Y-5.2388
X4.2094Y-5.3388
X4.2094Y-5.4388
X4.3397Y-3.9209
X4.35Y-3.71
X4.3694Y-4.9788
X4.3694Y-5.0788
X4.3694Y-5.1788
X4.4397Y-3.9209
X4.45Y-3.71
X4.5397Y-3.9209
X4.55Y-3.71
X4.62Y-5.4
X4.63Y-5.19
X4.72Y-5.4
X4.73Y-5.19
X4.7449Y-2.0516
X4.7449Y-2.1516
X4.7909Y-3.9603
X4.7909Y-4.0603
X4.7909Y-4.1603
X4.8067Y-1.1137
X4.8079Y-1.3229
X4.82Y-5.4
X4.83Y-5.19
X4.9037Y-2.4629
X4.9037Y-2.6737
X4.9067Y-1.1137
X4.9079Y-1.3229
X4.95Y-3.7
X4.95Y-3.8
X4.95Y-3.9
X5.0037Y-2.4629
X5.0037Y-2.6737
X5.05Y-5.2
X5.05Y-5.3
X5.05Y-5.4
X5.1597Y-3.8909
X5.1697Y-3.7109
X5.22Y-4.95
X5.22Y-5.05
X5.22Y-5.15
X5.2597Y-3.8909
X5.2697Y-3.7109
X5.3597Y-3.8909
X5.3697Y-3.7109
X5.4212Y-5.2006
X5.4212Y-5.4006
X5.5212Y-5.2006
X5.5212Y-5.4006
X5.5809Y-3.9503
X5.5809Y-4.0503
X5.5809Y-4.1503
X5.6212Y-5.2006
X5.6212Y-5.4006
X5.77Y-3.66
X5.77Y-3.76
X5.77Y-3.86
X5.8109Y-5.2503
X5.8109Y-5.3503
X5.8109Y-5.4503
X6.0Y-3.86
X6.0003Y-3.6491
X6.0249Y-2.0279
X6.0249Y-2.1279
X6.0249Y-2.2279
X6.0249Y-2.3279
X6.03Y-5.02
X6.03Y-5.12
X6.03Y-5.22
X6.0337Y-1.4087
X6.0337Y-1.8287
X6.0349Y-1.6179
X6.1Y-3.86
X6.1003Y-3.6491
X6.1337Y-1.4087
X6.1337Y-1.8287
X6.1349Y-1.6179
X6.2Y-3.86
X6.2003Y-3.6491
X8.3809Y-5.8587
X8.4809Y-5.8587
X8.8521Y-2.7579
X8.9521Y-2.7579
X8.9829Y-4.7187
X9.0229Y-4.9989
X9.0229Y-5.0989
X9.0521Y-2.7579
X9.0829Y-4.7187
X9.1521Y-2.7579
X9.1829Y-4.7187
X9.2521Y-2.7579
X9.3629Y-4.7187
X9.4629Y-4.7187
X9.5629Y-4.7187
X9.5729Y-4.9989
X9.5729Y-5.0989
X9.6309Y-2.7387
X9.7309Y-2.7387
X10.3221Y-4.9679
X10.3221Y-5.0679
X10.3221Y-5.1679
X10.5421Y-4.9579
X10.5421Y-5.0579
X10.5421Y-5.1579
T7
X8.5811Y-3.0479
X8.5811Y-3.1459
X8.5811Y-3.2479
X8.7121Y-3.0479
X8.7121Y-3.1459
X8.7121Y-3.2479
T8
X6.8221Y-2.4679
X6.8221Y-2.5679
X6.8221Y-2.6679
X6.8249Y-1.5079
X6.8249Y-1.6079
X6.8249Y-1.7079
X6.8249Y-1.9879
X6.8249Y-2.0879
X6.8249Y-2.1879
X7.1021Y-2.1779
X7.1021Y-2.2779
X7.1021Y-2.3779
X7.1021Y-2.7379
X7.1021Y-2.8379
X7.1021Y-2.9379
X7.1049Y-1.7179
X7.1049Y-1.8179
X7.1049Y-1.9179
T9
X0.9549Y-2.8529
X0.9999Y-1.2129
X1.0649Y-2.5229
X1.1099Y-0.8829
X1.6349Y-2.8529
X1.6444Y-1.2079
X1.7449Y-2.5229
X1.7544Y-0.8779
X2.2882Y-1.1979
X2.3249Y-2.8529
X2.3982Y-0.8679
X2.4349Y-2.5229
X2.9382Y-1.2006
X3.0149Y-2.8529
X3.03Y-5.67
X3.0482Y-0.8706
X3.1249Y-2.5229
X3.25Y-3.33
X3.36Y-5.78
X3.58Y-3.44
X3.8906Y-5.6683
X4.14Y-3.33
X4.2206Y-5.7783
X4.47Y-3.44
X4.705Y-5.665
X4.935Y-3.335
X5.035Y-5.775
X5.265Y-3.445
X5.51Y-5.67
X5.77Y-3.35
X5.84Y-5.78
X6.1Y-3.46
T10
X0.8105Y-4.304
X0.8105Y-4.926
X0.8127Y-1.5369
X0.8127Y-2.1589
X5.242Y-1.5819
X5.242Y-2.2039
X7.2695Y-4.279
X7.2695Y-4.901
X7.5249Y-1.8669
X7.5249Y-2.4889
X8.0521Y-1.3586
X8.2122Y-3.7627
X8.2122Y-4.3847
X8.6742Y-1.3586
X9.1115Y-1.3604
X9.7336Y-1.3604
X10.1765Y-1.3561
X10.7986Y-1.3561
X11.032Y-4.0619
X11.032Y-4.6839
X11.0321Y-3.0369
X11.0321Y-3.6589
T11
X0.41Y-3.3
X0.41Y-5.8
X0.4149Y-0.8029
X0.4149Y-2.9329
X5.6449Y-0.8029
X5.6449Y-2.9329
X7.68Y-3.3
X7.68Y-5.8
X7.6877Y-1.3779
X7.6877Y-2.9279
X8.0421Y-2.5979
X8.0421Y-5.7979
X11.2421Y-2.5979
X11.2421Y-5.7979
T12
X1.1093Y-5.7422
X1.29Y-3.41
X1.3848Y-5.7422
X1.5655Y-3.41
X4.7424Y-0.8129
X4.8194Y-2.9229
X5.0179Y-0.8129
X5.0949Y-2.9229
X6.0994Y-2.8879
X6.3749Y-2.8879
M30
