%TF.GenerationSoftware,KiCad,Pcbnew,8.0.1*%
%TF.CreationDate,2024-04-02T21:45:16-06:00*%
%TF.ProjectId,ATV_Project_Slave Barg,4154565f-5072-46f6-9a65-63745f536c61,rev?*%
%TF.SameCoordinates,Original*%
%TF.FileFunction,Copper,L1,Top*%
%TF.FilePolarity,Positive*%
%FSLAX46Y46*%
G04 Gerber Fmt 4.6, Leading zero omitted, Abs format (unit mm)*
G04 Created by KiCad (PCBNEW 8.0.1) date 2024-04-02 21:45:16*
%MOMM*%
%LPD*%
G01*
G04 APERTURE LIST*
G04 Aperture macros list*
%AMRoundRect*
0 Rectangle with rounded corners*
0 $1 Rounding radius*
0 $2 $3 $4 $5 $6 $7 $8 $9 X,Y pos of 4 corners*
0 Add a 4 corners polygon primitive as box body*
4,1,4,$2,$3,$4,$5,$6,$7,$8,$9,$2,$3,0*
0 Add four circle primitives for the rounded corners*
1,1,$1+$1,$2,$3*
1,1,$1+$1,$4,$5*
1,1,$1+$1,$6,$7*
1,1,$1+$1,$8,$9*
0 Add four rect primitives between the rounded corners*
20,1,$1+$1,$2,$3,$4,$5,0*
20,1,$1+$1,$4,$5,$6,$7,0*
20,1,$1+$1,$6,$7,$8,$9,0*
20,1,$1+$1,$8,$9,$2,$3,0*%
G04 Aperture macros list end*
%TA.AperFunction,ComponentPad*%
%ADD10RoundRect,0.248000X-0.552000X0.552000X-0.552000X-0.552000X0.552000X-0.552000X0.552000X0.552000X0*%
%TD*%
%TA.AperFunction,ComponentPad*%
%ADD11C,1.600000*%
%TD*%
%TA.AperFunction,ComponentPad*%
%ADD12C,2.200000*%
%TD*%
%TA.AperFunction,ComponentPad*%
%ADD13RoundRect,0.248000X0.552000X-0.552000X0.552000X0.552000X-0.552000X0.552000X-0.552000X-0.552000X0*%
%TD*%
%TA.AperFunction,ComponentPad*%
%ADD14RoundRect,0.248000X0.552000X0.552000X-0.552000X0.552000X-0.552000X-0.552000X0.552000X-0.552000X0*%
%TD*%
%TA.AperFunction,SMDPad,CuDef*%
%ADD15RoundRect,0.250000X0.450000X-0.325000X0.450000X0.325000X-0.450000X0.325000X-0.450000X-0.325000X0*%
%TD*%
%TA.AperFunction,ComponentPad*%
%ADD16R,1.600000X1.600000*%
%TD*%
%TA.AperFunction,ComponentPad*%
%ADD17O,1.600000X1.600000*%
%TD*%
%TA.AperFunction,ComponentPad*%
%ADD18R,1.700000X1.700000*%
%TD*%
%TA.AperFunction,ComponentPad*%
%ADD19O,1.700000X1.700000*%
%TD*%
%TA.AperFunction,ComponentPad*%
%ADD20R,7.112000X7.112000*%
%TD*%
%TA.AperFunction,ComponentPad*%
%ADD21RoundRect,0.250000X0.350000X0.450000X-0.350000X0.450000X-0.350000X-0.450000X0.350000X-0.450000X0*%
%TD*%
%TA.AperFunction,SMDPad,CuDef*%
%ADD22RoundRect,0.250000X0.350000X0.450000X-0.350000X0.450000X-0.350000X-0.450000X0.350000X-0.450000X0*%
%TD*%
%TA.AperFunction,ComponentPad*%
%ADD23RoundRect,0.250000X-0.450000X0.350000X-0.450000X-0.350000X0.450000X-0.350000X0.450000X0.350000X0*%
%TD*%
%TA.AperFunction,SMDPad,CuDef*%
%ADD24RoundRect,0.250000X-0.450000X0.350000X-0.450000X-0.350000X0.450000X-0.350000X0.450000X0.350000X0*%
%TD*%
%TA.AperFunction,ComponentPad*%
%ADD25RoundRect,0.250000X0.450000X-0.350000X0.450000X0.350000X-0.450000X0.350000X-0.450000X-0.350000X0*%
%TD*%
%TA.AperFunction,SMDPad,CuDef*%
%ADD26RoundRect,0.250000X0.450000X-0.350000X0.450000X0.350000X-0.450000X0.350000X-0.450000X-0.350000X0*%
%TD*%
%TA.AperFunction,ComponentPad*%
%ADD27O,2.000000X1.905000*%
%TD*%
%TA.AperFunction,ComponentPad*%
%ADD28R,2.000000X1.905000*%
%TD*%
%TA.AperFunction,ComponentPad*%
%ADD29R,6.350000X7.620000*%
%TD*%
%TA.AperFunction,ComponentPad*%
%ADD30RoundRect,0.952500X-0.952500X-1.587500X0.952500X-1.587500X0.952500X1.587500X-0.952500X1.587500X0*%
%TD*%
%TA.AperFunction,SMDPad,CuDef*%
%ADD31RoundRect,0.952500X-0.952500X-1.587500X0.952500X-1.587500X0.952500X1.587500X-0.952500X1.587500X0*%
%TD*%
%TA.AperFunction,ComponentPad*%
%ADD32RoundRect,0.250000X-0.337500X-0.475000X0.337500X-0.475000X0.337500X0.475000X-0.337500X0.475000X0*%
%TD*%
%TA.AperFunction,SMDPad,CuDef*%
%ADD33RoundRect,0.250000X-0.337500X-0.475000X0.337500X-0.475000X0.337500X0.475000X-0.337500X0.475000X0*%
%TD*%
%TA.AperFunction,ComponentPad*%
%ADD34RoundRect,1.270000X-1.270000X-3.175000X1.270000X-3.175000X1.270000X3.175000X-1.270000X3.175000X0*%
%TD*%
%TA.AperFunction,ComponentPad*%
%ADD35C,2.286000*%
%TD*%
%TA.AperFunction,SMDPad,CuDef*%
%ADD36RoundRect,0.250000X0.337500X0.475000X-0.337500X0.475000X-0.337500X-0.475000X0.337500X-0.475000X0*%
%TD*%
%TA.AperFunction,ComponentPad*%
%ADD37RoundRect,0.250000X0.325000X0.450000X-0.325000X0.450000X-0.325000X-0.450000X0.325000X-0.450000X0*%
%TD*%
%TA.AperFunction,SMDPad,CuDef*%
%ADD38RoundRect,0.250000X0.325000X0.450000X-0.325000X0.450000X-0.325000X-0.450000X0.325000X-0.450000X0*%
%TD*%
%TA.AperFunction,ComponentPad*%
%ADD39RoundRect,0.250000X-0.475000X0.337500X-0.475000X-0.337500X0.475000X-0.337500X0.475000X0.337500X0*%
%TD*%
%TA.AperFunction,SMDPad,CuDef*%
%ADD40RoundRect,0.250000X-0.475000X0.337500X-0.475000X-0.337500X0.475000X-0.337500X0.475000X0.337500X0*%
%TD*%
%TA.AperFunction,SMDPad,CuDef*%
%ADD41RoundRect,0.250000X-0.350000X-0.450000X0.350000X-0.450000X0.350000X0.450000X-0.350000X0.450000X0*%
%TD*%
%TA.AperFunction,ComponentPad*%
%ADD42RoundRect,0.250000X-0.350000X-0.450000X0.350000X-0.450000X0.350000X0.450000X-0.350000X0.450000X0*%
%TD*%
%TA.AperFunction,ComponentPad*%
%ADD43RoundRect,1.270000X1.270000X3.175000X-1.270000X3.175000X-1.270000X-3.175000X1.270000X-3.175000X0*%
%TD*%
%TA.AperFunction,SMDPad,CuDef*%
%ADD44RoundRect,1.270000X1.270000X3.175000X-1.270000X3.175000X-1.270000X-3.175000X1.270000X-3.175000X0*%
%TD*%
%TA.AperFunction,ComponentPad*%
%ADD45RoundRect,0.952500X1.587500X-0.952500X1.587500X0.952500X-1.587500X0.952500X-1.587500X-0.952500X0*%
%TD*%
%TA.AperFunction,SMDPad,CuDef*%
%ADD46RoundRect,0.952500X1.587500X-0.952500X1.587500X0.952500X-1.587500X0.952500X-1.587500X-0.952500X0*%
%TD*%
%TA.AperFunction,SMDPad,CuDef*%
%ADD47R,1.500000X0.380000*%
%TD*%
%TA.AperFunction,SMDPad,CuDef*%
%ADD48RoundRect,0.250000X0.475000X-0.337500X0.475000X0.337500X-0.475000X0.337500X-0.475000X-0.337500X0*%
%TD*%
%TA.AperFunction,ComponentPad*%
%ADD49C,1.905000*%
%TD*%
%TA.AperFunction,ComponentPad*%
%ADD50R,1.520000X1.520000*%
%TD*%
%TA.AperFunction,ComponentPad*%
%ADD51C,1.520000*%
%TD*%
%TA.AperFunction,ComponentPad*%
%ADD52RoundRect,0.250000X0.450000X-0.325000X0.450000X0.325000X-0.450000X0.325000X-0.450000X-0.325000X0*%
%TD*%
%TA.AperFunction,SMDPad,CuDef*%
%ADD53R,1.500000X0.600000*%
%TD*%
%TA.AperFunction,ComponentPad*%
%ADD54RoundRect,0.952500X-1.587500X0.952500X-1.587500X-0.952500X1.587500X-0.952500X1.587500X0.952500X0*%
%TD*%
%TA.AperFunction,SMDPad,CuDef*%
%ADD55RoundRect,0.952500X-1.587500X0.952500X-1.587500X-0.952500X1.587500X-0.952500X1.587500X0.952500X0*%
%TD*%
%TA.AperFunction,ViaPad*%
%ADD56C,0.800000*%
%TD*%
%TA.AperFunction,Conductor*%
%ADD57C,0.381000*%
%TD*%
%TA.AperFunction,Conductor*%
%ADD58C,0.762000*%
%TD*%
%TA.AperFunction,Conductor*%
%ADD59C,0.250000*%
%TD*%
G04 APERTURE END LIST*
D10*
%TO.P,J2,1*%
%TO.N,Net-(U1-RA0)*%
X214430000Y-107916600D03*
D11*
%TO.P,J2,2*%
%TO.N,Net-(U1-RA1)*%
X211890000Y-106646600D03*
%TO.P,J2,3*%
%TO.N,Net-(U1-RA2)*%
X214430000Y-105376600D03*
%TO.P,J2,4*%
%TO.N,Net-(U1-RA3)*%
X211890000Y-104106600D03*
%TO.P,J2,5*%
%TO.N,Net-(U1-RA4)*%
X214430000Y-102836600D03*
%TO.P,J2,6*%
%TO.N,Net-(U1-RA5)*%
X211890000Y-101566600D03*
%TO.P,J2,7*%
%TO.N,Net-(U1-RA6)*%
X214430000Y-100296600D03*
%TO.P,J2,8*%
%TO.N,Net-(U1-RA7)*%
X211890000Y-99026600D03*
D12*
%TO.P,J2,SH*%
%TO.N,GND*%
X208590000Y-95571600D03*
X208590000Y-111371600D03*
%TD*%
D13*
%TO.P,J46,1*%
%TO.N,unconnected-(J46-Pad1)*%
X185292500Y-50873000D03*
D11*
%TO.P,J46,2*%
%TO.N,unconnected-(J46-Pad2)*%
X187832500Y-52143000D03*
%TO.P,J46,3*%
%TO.N,Net-(Q6-G)*%
X185292500Y-53413000D03*
%TO.P,J46,4*%
%TO.N,Net-(Q5-G)*%
X187832500Y-54683000D03*
%TO.P,J46,5*%
%TO.N,Net-(Q4-G)*%
X185292500Y-55953000D03*
%TO.P,J46,6*%
%TO.N,Net-(Q3-G)*%
X187832500Y-57223000D03*
%TO.P,J46,7*%
%TO.N,Net-(Q2-G)*%
X185292500Y-58493000D03*
%TO.P,J46,8*%
%TO.N,Net-(Q1-G)*%
X187832500Y-59763000D03*
D12*
%TO.P,J46,SH*%
%TO.N,GND*%
X191132500Y-63218000D03*
X191132500Y-47418000D03*
%TD*%
D14*
%TO.P,J25,1*%
%TO.N,Net-(D15-A)*%
X261938977Y-40284740D03*
D11*
%TO.P,J25,2*%
%TO.N,Net-(D16-A)*%
X263208977Y-37744740D03*
%TO.P,J25,3*%
%TO.N,Net-(D17-A)*%
X264478977Y-40284740D03*
%TO.P,J25,4*%
%TO.N,Net-(D18-A)*%
X265748977Y-37744740D03*
%TO.P,J25,5*%
%TO.N,Net-(D19-A)*%
X267018977Y-40284740D03*
%TO.P,J25,6*%
%TO.N,Net-(D20-A)*%
X268288977Y-37744740D03*
%TO.P,J25,7*%
%TO.N,Net-(D21-A)*%
X269558977Y-40284740D03*
%TO.P,J25,8*%
%TO.N,Net-(D22-A)*%
X270828977Y-37744740D03*
D12*
%TO.P,J25,SH*%
%TO.N,GND*%
X274283977Y-34444740D03*
X258483977Y-34444740D03*
%TD*%
D14*
%TO.P,J25,1*%
%TO.N,Net-(D15-A)*%
X234887688Y-40394705D03*
D11*
%TO.P,J25,2*%
%TO.N,Net-(D16-A)*%
X236157688Y-37854705D03*
%TO.P,J25,3*%
%TO.N,Net-(D17-A)*%
X237427688Y-40394705D03*
%TO.P,J25,4*%
%TO.N,Net-(D18-A)*%
X238697688Y-37854705D03*
%TO.P,J25,5*%
%TO.N,Net-(D19-A)*%
X239967688Y-40394705D03*
%TO.P,J25,6*%
%TO.N,Net-(D20-A)*%
X241237688Y-37854705D03*
%TO.P,J25,7*%
%TO.N,Net-(D21-A)*%
X242507688Y-40394705D03*
%TO.P,J25,8*%
%TO.N,Net-(D22-A)*%
X243777688Y-37854705D03*
D12*
%TO.P,J25,SH*%
%TO.N,GND*%
X247232688Y-34554705D03*
X231432688Y-34554705D03*
%TD*%
D13*
%TO.P,J6,1*%
%TO.N,Net-(U1-RC0)*%
X274374000Y-106626000D03*
D11*
%TO.P,J6,2*%
%TO.N,Net-(U1-RC1)*%
X276914000Y-107896000D03*
%TO.P,J6,3*%
%TO.N,Net-(U1-RC2)*%
X274374000Y-109166000D03*
%TO.P,J6,4*%
%TO.N,RC3B*%
X276914000Y-110436000D03*
%TO.P,J6,5*%
%TO.N,RC4B*%
X274374000Y-111706000D03*
%TO.P,J6,6*%
%TO.N,Net-(U1-RC5)*%
X276914000Y-112976000D03*
%TO.P,J6,7*%
%TO.N,RC6B*%
X274374000Y-114246000D03*
%TO.P,J6,8*%
%TO.N,RC7B*%
X276914000Y-115516000D03*
D12*
%TO.P,J6,SH*%
%TO.N,GND*%
X280214000Y-118971000D03*
X280214000Y-103171000D03*
%TD*%
%TO.P,J18,SH*%
%TO.N,GND*%
X133148000Y-40179000D03*
X133148000Y-55979000D03*
D11*
%TO.P,J18,8*%
%TO.N,Net-(JP8-B)*%
X129848000Y-52524000D03*
%TO.P,J18,7*%
%TO.N,Net-(JP9-B)*%
X127308000Y-51254000D03*
%TO.P,J18,6*%
%TO.N,Net-(JP10-B)*%
X129848000Y-49984000D03*
%TO.P,J18,5*%
%TO.N,Net-(JP11-B)*%
X127308000Y-48714000D03*
%TO.P,J18,4*%
%TO.N,Net-(JP12-B)*%
X129848000Y-47444000D03*
%TO.P,J18,3*%
%TO.N,Net-(JP13-B)*%
X127308000Y-46174000D03*
%TO.P,J18,2*%
%TO.N,Net-(JP14-B)*%
X129848000Y-44904000D03*
D13*
%TO.P,J18,1*%
%TO.N,Net-(JP15-B)*%
X127308000Y-43634000D03*
%TD*%
D12*
%TO.P,J35,SH*%
%TO.N,GND*%
X20587500Y-125121000D03*
X20587500Y-109321000D03*
D11*
%TO.P,J35,8*%
%TO.N,Net-(JP33-B)*%
X23887500Y-112776000D03*
%TO.P,J35,7*%
%TO.N,Net-(JP34-B)*%
X26427500Y-114046000D03*
%TO.P,J35,6*%
%TO.N,Net-(JP35-B)*%
X23887500Y-115316000D03*
%TO.P,J35,5*%
%TO.N,Net-(JP36-B)*%
X26427500Y-116586000D03*
%TO.P,J35,4*%
%TO.N,Net-(JP37-B)*%
X23887500Y-117856000D03*
%TO.P,J35,3*%
%TO.N,Net-(JP38-B)*%
X26427500Y-119126000D03*
%TO.P,J35,2*%
%TO.N,Net-(JP39-B)*%
X23887500Y-120396000D03*
D10*
%TO.P,J35,1*%
%TO.N,Net-(JP40-B)*%
X26427500Y-121666000D03*
%TD*%
D14*
%TO.P,J25,1*%
%TO.N,Net-(D15-A)*%
X207979000Y-40348000D03*
D11*
%TO.P,J25,2*%
%TO.N,Net-(D16-A)*%
X209249000Y-37808000D03*
%TO.P,J25,3*%
%TO.N,Net-(D17-A)*%
X210519000Y-40348000D03*
%TO.P,J25,4*%
%TO.N,Net-(D18-A)*%
X211789000Y-37808000D03*
%TO.P,J25,5*%
%TO.N,Net-(D19-A)*%
X213059000Y-40348000D03*
%TO.P,J25,6*%
%TO.N,Net-(D20-A)*%
X214329000Y-37808000D03*
%TO.P,J25,7*%
%TO.N,Net-(D21-A)*%
X215599000Y-40348000D03*
%TO.P,J25,8*%
%TO.N,Net-(D22-A)*%
X216869000Y-37808000D03*
D12*
%TO.P,J25,SH*%
%TO.N,GND*%
X220324000Y-34508000D03*
X204524000Y-34508000D03*
%TD*%
%TO.P,J26,SH*%
%TO.N,GND*%
X184644500Y-108686000D03*
X184644500Y-124486000D03*
D11*
%TO.P,J26,8*%
%TO.N,Net-(J26-Pad8)*%
X181344500Y-121031000D03*
%TO.P,J26,7*%
%TO.N,Net-(J26-Pad7)*%
X178804500Y-119761000D03*
%TO.P,J26,6*%
%TO.N,Net-(J26-Pad6)*%
X181344500Y-118491000D03*
%TO.P,J26,5*%
%TO.N,Net-(J26-Pad5)*%
X178804500Y-117221000D03*
%TO.P,J26,4*%
%TO.N,Net-(J26-Pad4)*%
X181344500Y-115951000D03*
%TO.P,J26,3*%
%TO.N,Net-(J26-Pad3)*%
X178804500Y-114681000D03*
%TO.P,J26,2*%
%TO.N,Net-(J26-Pad2)*%
X181344500Y-113411000D03*
D13*
%TO.P,J26,1*%
%TO.N,Net-(J26-Pad1)*%
X178804500Y-112141000D03*
%TD*%
%TO.P,J5,1*%
%TO.N,RB0*%
X274375000Y-80591000D03*
D11*
%TO.P,J5,2*%
%TO.N,RB1*%
X276915000Y-81861000D03*
%TO.P,J5,3*%
%TO.N,RB2*%
X274375000Y-83131000D03*
%TO.P,J5,4*%
%TO.N,RB3*%
X276915000Y-84401000D03*
%TO.P,J5,5*%
%TO.N,RB4*%
X274375000Y-85671000D03*
%TO.P,J5,6*%
%TO.N,RB5*%
X276915000Y-86941000D03*
%TO.P,J5,7*%
%TO.N,RB6*%
X274375000Y-88211000D03*
%TO.P,J5,8*%
%TO.N,RB7*%
X276915000Y-89481000D03*
D12*
%TO.P,J5,SH*%
%TO.N,GND*%
X280215000Y-92936000D03*
X280215000Y-77136000D03*
%TD*%
%TO.P,J9,SH*%
%TO.N,GND*%
X20641500Y-54836000D03*
X20641500Y-39036000D03*
D11*
%TO.P,J9,8*%
%TO.N,Net-(JP8-C)*%
X23941500Y-42491000D03*
%TO.P,J9,7*%
%TO.N,Net-(JP9-C)*%
X26481500Y-43761000D03*
%TO.P,J9,6*%
%TO.N,Net-(JP10-C)*%
X23941500Y-45031000D03*
%TO.P,J9,5*%
%TO.N,Net-(JP11-C)*%
X26481500Y-46301000D03*
%TO.P,J9,4*%
%TO.N,Net-(JP12-C)*%
X23941500Y-47571000D03*
%TO.P,J9,3*%
%TO.N,Net-(JP13-C)*%
X26481500Y-48841000D03*
%TO.P,J9,2*%
%TO.N,Net-(JP14-C)*%
X23941500Y-50111000D03*
D10*
%TO.P,J9,1*%
%TO.N,Net-(JP15-C)*%
X26481500Y-51381000D03*
%TD*%
D15*
%TO.P,D19,1,K*%
%TO.N,Net-(D19-K)*%
X267373977Y-50700740D03*
%TO.P,D19,2,A*%
%TO.N,Net-(D19-A)*%
X267373977Y-48650740D03*
%TD*%
%TO.P,D16,1,K*%
%TO.N,Net-(D16-K)*%
X260515977Y-50691740D03*
%TO.P,D16,2,A*%
%TO.N,Net-(D16-A)*%
X260515977Y-48641740D03*
%TD*%
%TO.P,D15,1,K*%
%TO.N,Net-(D15-K)*%
X258229977Y-50700740D03*
%TO.P,D15,2,A*%
%TO.N,Net-(D15-A)*%
X258229977Y-48650740D03*
%TD*%
D16*
%TO.P,RN2,1,common*%
%TO.N,GND*%
X277787977Y-56542740D03*
D17*
%TO.P,RN2,2,R1*%
%TO.N,Net-(D22-K)*%
X275247977Y-56542740D03*
%TO.P,RN2,3,R2*%
%TO.N,Net-(D21-K)*%
X272707977Y-56542740D03*
%TO.P,RN2,4,R3*%
%TO.N,Net-(D20-K)*%
X270167977Y-56542740D03*
%TO.P,RN2,5,R4*%
%TO.N,Net-(D19-K)*%
X267627977Y-56542740D03*
%TO.P,RN2,6,R5*%
%TO.N,Net-(D18-K)*%
X265087977Y-56542740D03*
%TO.P,RN2,7,R6*%
%TO.N,Net-(D17-K)*%
X262547977Y-56542740D03*
%TO.P,RN2,8,R7*%
%TO.N,Net-(D16-K)*%
X260007977Y-56542740D03*
%TO.P,RN2,9,R8*%
%TO.N,Net-(D15-K)*%
X257467977Y-56542740D03*
%TD*%
D15*
%TO.P,D18,1,K*%
%TO.N,Net-(D18-K)*%
X265087977Y-50691740D03*
%TO.P,D18,2,A*%
%TO.N,Net-(D18-A)*%
X265087977Y-48641740D03*
%TD*%
%TO.P,D17,1,K*%
%TO.N,Net-(D17-K)*%
X262801977Y-50700740D03*
%TO.P,D17,2,A*%
%TO.N,Net-(D17-A)*%
X262801977Y-48650740D03*
%TD*%
%TO.P,D22,1,K*%
%TO.N,Net-(D22-K)*%
X274231977Y-50700740D03*
%TO.P,D22,2,A*%
%TO.N,Net-(D22-A)*%
X274231977Y-48650740D03*
%TD*%
%TO.P,D21,1,K*%
%TO.N,Net-(D21-K)*%
X271945977Y-50700740D03*
%TO.P,D21,2,A*%
%TO.N,Net-(D21-A)*%
X271945977Y-48650740D03*
%TD*%
%TO.P,D20,1,K*%
%TO.N,Net-(D20-K)*%
X269659977Y-50700740D03*
%TO.P,D20,2,A*%
%TO.N,Net-(D20-A)*%
X269659977Y-48650740D03*
%TD*%
%TO.P,D19,1,K*%
%TO.N,Net-(D19-K)*%
X240322688Y-50810705D03*
%TO.P,D19,2,A*%
%TO.N,Net-(D19-A)*%
X240322688Y-48760705D03*
%TD*%
%TO.P,D16,1,K*%
%TO.N,Net-(D16-K)*%
X233464688Y-50801705D03*
%TO.P,D16,2,A*%
%TO.N,Net-(D16-A)*%
X233464688Y-48751705D03*
%TD*%
%TO.P,D15,1,K*%
%TO.N,Net-(D15-K)*%
X231178688Y-50810705D03*
%TO.P,D15,2,A*%
%TO.N,Net-(D15-A)*%
X231178688Y-48760705D03*
%TD*%
D16*
%TO.P,RN2,1,common*%
%TO.N,GND*%
X250736688Y-56652705D03*
D17*
%TO.P,RN2,2,R1*%
%TO.N,Net-(D22-K)*%
X248196688Y-56652705D03*
%TO.P,RN2,3,R2*%
%TO.N,Net-(D21-K)*%
X245656688Y-56652705D03*
%TO.P,RN2,4,R3*%
%TO.N,Net-(D20-K)*%
X243116688Y-56652705D03*
%TO.P,RN2,5,R4*%
%TO.N,Net-(D19-K)*%
X240576688Y-56652705D03*
%TO.P,RN2,6,R5*%
%TO.N,Net-(D18-K)*%
X238036688Y-56652705D03*
%TO.P,RN2,7,R6*%
%TO.N,Net-(D17-K)*%
X235496688Y-56652705D03*
%TO.P,RN2,8,R7*%
%TO.N,Net-(D16-K)*%
X232956688Y-56652705D03*
%TO.P,RN2,9,R8*%
%TO.N,Net-(D15-K)*%
X230416688Y-56652705D03*
%TD*%
D15*
%TO.P,D18,1,K*%
%TO.N,Net-(D18-K)*%
X238036688Y-50801705D03*
%TO.P,D18,2,A*%
%TO.N,Net-(D18-A)*%
X238036688Y-48751705D03*
%TD*%
%TO.P,D17,1,K*%
%TO.N,Net-(D17-K)*%
X235750688Y-50810705D03*
%TO.P,D17,2,A*%
%TO.N,Net-(D17-A)*%
X235750688Y-48760705D03*
%TD*%
%TO.P,D22,1,K*%
%TO.N,Net-(D22-K)*%
X247180688Y-50810705D03*
%TO.P,D22,2,A*%
%TO.N,Net-(D22-A)*%
X247180688Y-48760705D03*
%TD*%
%TO.P,D21,1,K*%
%TO.N,Net-(D21-K)*%
X244894688Y-50810705D03*
%TO.P,D21,2,A*%
%TO.N,Net-(D21-A)*%
X244894688Y-48760705D03*
%TD*%
%TO.P,D20,1,K*%
%TO.N,Net-(D20-K)*%
X242608688Y-50810705D03*
%TO.P,D20,2,A*%
%TO.N,Net-(D20-A)*%
X242608688Y-48760705D03*
%TD*%
D18*
%TO.P,JP35,1,A*%
%TO.N,Net-(JP35-A)*%
X110984000Y-131542000D03*
D19*
%TO.P,JP35,2,C*%
%TO.N,Net-(JP35-C)*%
X110984000Y-129002000D03*
%TO.P,JP35,3,B*%
%TO.N,Net-(JP35-B)*%
X110984000Y-126462000D03*
%TD*%
D20*
%TO.P,,1*%
%TO.N,GND*%
X10414000Y-147320000D03*
%TD*%
%TO.P,,1*%
%TO.N,GND*%
X10414000Y-83820000D03*
%TD*%
%TO.P,,1*%
%TO.N,GND*%
X195072000Y-147320000D03*
%TD*%
%TO.P,,1*%
%TO.N,GND*%
X195072000Y-83820000D03*
%TD*%
D21*
%TO.P,R76,2*%
%TO.N,GND*%
X177179000Y-64462000D03*
D22*
%TO.P,R76,1*%
%TO.N,Net-(Q3-G)*%
X179179000Y-64462000D03*
%TD*%
D23*
%TO.P,R75,2*%
%TO.N,GND*%
X167511000Y-45142000D03*
D24*
%TO.P,R75,1*%
%TO.N,Net-(Q6-G)*%
X167511000Y-43142000D03*
%TD*%
D25*
%TO.P,R74,2*%
%TO.N,GND*%
X185037000Y-42126000D03*
D26*
%TO.P,R74,1*%
%TO.N,Net-(Q5-G)*%
X185037000Y-44126000D03*
%TD*%
D23*
%TO.P,R73,2*%
%TO.N,GND*%
X167511000Y-54286000D03*
D24*
%TO.P,R73,1*%
%TO.N,Net-(Q4-G)*%
X167511000Y-52286000D03*
%TD*%
D23*
%TO.P,R72,2*%
%TO.N,GND*%
X165987000Y-64192000D03*
D24*
%TO.P,R72,1*%
%TO.N,Net-(Q2-G)*%
X165987000Y-62192000D03*
%TD*%
D23*
%TO.P,R71,2*%
%TO.N,GND*%
X174877000Y-76384000D03*
D24*
%TO.P,R71,1*%
%TO.N,Net-(Q1-G)*%
X174877000Y-74384000D03*
%TD*%
D27*
%TO.P,Q6,3,S*%
%TO.N,GND*%
X173353000Y-38300000D03*
%TO.P,Q6,2,D*%
%TO.N,Net-(J45-Pin_2)*%
X173353000Y-40840000D03*
D28*
%TO.P,Q6,1,G*%
%TO.N,Net-(Q6-G)*%
X173353000Y-43380000D03*
%TD*%
D27*
%TO.P,Q5,3,S*%
%TO.N,GND*%
X180465000Y-43634000D03*
%TO.P,Q5,2,D*%
%TO.N,Net-(J44-Pin_2)*%
X180465000Y-46174000D03*
D28*
%TO.P,Q5,1,G*%
%TO.N,Net-(Q5-G)*%
X180465000Y-48714000D03*
%TD*%
D27*
%TO.P,Q4,3,S*%
%TO.N,GND*%
X173353000Y-50492000D03*
%TO.P,Q4,2,D*%
%TO.N,Net-(J42-Pin_2)*%
X173353000Y-53032000D03*
D28*
%TO.P,Q4,1,G*%
%TO.N,Net-(Q4-G)*%
X173353000Y-55572000D03*
%TD*%
D27*
%TO.P,Q3,3,S*%
%TO.N,GND*%
X180394000Y-55318000D03*
%TO.P,Q3,2,D*%
%TO.N,Net-(J43-Pin_4)*%
X180394000Y-57858000D03*
D28*
%TO.P,Q3,1,G*%
%TO.N,Net-(Q3-G)*%
X180394000Y-60398000D03*
%TD*%
D27*
%TO.P,Q2,3,S*%
%TO.N,GND*%
X173282000Y-62684000D03*
%TO.P,Q2,2,D*%
%TO.N,Net-(J43-Pin_3)*%
X173282000Y-65224000D03*
D28*
%TO.P,Q2,1,G*%
%TO.N,Net-(Q2-G)*%
X173282000Y-67764000D03*
%TD*%
D27*
%TO.P,Q1,3,S*%
%TO.N,GND*%
X180394000Y-69542000D03*
%TO.P,Q1,2,D*%
%TO.N,Net-(J43-Pin_2)*%
X180394000Y-72082000D03*
D28*
%TO.P,Q1,1,G*%
%TO.N,Net-(Q1-G)*%
X180394000Y-74622000D03*
%TD*%
D29*
%TO.P,J47,2*%
%TO.N,GND*%
X161923000Y-73352000D03*
%TO.P,J47,1*%
%TO.N,+12V*%
X154925300Y-73352000D03*
%TD*%
D19*
%TO.P,J45,2,Pin_2*%
%TO.N,Net-(J45-Pin_2)*%
X155827000Y-41094000D03*
D18*
%TO.P,J45,1,Pin_1*%
%TO.N,+12V*%
X153287000Y-41094000D03*
%TD*%
D19*
%TO.P,J44,2,Pin_2*%
%TO.N,Net-(J44-Pin_2)*%
X155795000Y-35782000D03*
D18*
%TO.P,J44,1,Pin_1*%
%TO.N,+12V*%
X153255000Y-35782000D03*
%TD*%
D19*
%TO.P,J43,4,Pin_4*%
%TO.N,Net-(J43-Pin_4)*%
X153033000Y-51508000D03*
%TO.P,J43,3,Pin_3*%
%TO.N,Net-(J43-Pin_3)*%
X153033000Y-54048000D03*
%TO.P,J43,2,Pin_2*%
%TO.N,Net-(J43-Pin_2)*%
X153033000Y-56588000D03*
D18*
%TO.P,J43,1,Pin_1*%
%TO.N,+12V*%
X153033000Y-59128000D03*
%TD*%
D19*
%TO.P,J42,2,Pin_2*%
%TO.N,Net-(J42-Pin_2)*%
X155795000Y-46450000D03*
D18*
%TO.P,J42,1,Pin_1*%
%TO.N,+12V*%
X153255000Y-46450000D03*
%TD*%
D30*
%TO.P,C19,2*%
%TO.N,GND*%
X158621000Y-65224000D03*
D31*
%TO.P,C19,1*%
%TO.N,+12V*%
X153541000Y-65224000D03*
%TD*%
D32*
%TO.P,C18,2*%
%TO.N,GND*%
X160166500Y-59382000D03*
D33*
%TO.P,C18,1*%
%TO.N,+12V*%
X158091500Y-59382000D03*
%TD*%
D34*
%TO.P,L4,1,1*%
%TO.N,Net-(C7-Pad2)*%
X112647000Y-58747000D03*
%TO.P,L4,2,2*%
%TO.N,GND*%
X104519000Y-58747000D03*
%TD*%
D18*
%TO.P,JP10,1,A*%
%TO.N,Net-(JP10-A)*%
X65911000Y-37596149D03*
D19*
%TO.P,JP10,2,C*%
%TO.N,Net-(JP10-C)*%
X65911000Y-40136149D03*
%TO.P,JP10,3,B*%
%TO.N,Net-(JP10-B)*%
X65911000Y-42676149D03*
%TD*%
D35*
%TO.P,F6,2*%
%TO.N,Net-(JP21-C)*%
X59053000Y-72463000D03*
%TO.P,F6,1*%
%TO.N,Net-(F6-Pad1)*%
X61847000Y-64081000D03*
%TD*%
%TO.P,F4,2*%
%TO.N,Net-(JP19-C)*%
X77424000Y-22112851D03*
%TO.P,F4,1*%
%TO.N,Net-(F4-Pad1)*%
X74630000Y-30494851D03*
%TD*%
%TO.P,F16,2*%
%TO.N,Net-(JP48-C)*%
X154940000Y-87884000D03*
%TO.P,F16,1*%
%TO.N,Net-(F16-Pad1)*%
X146558000Y-85090000D03*
%TD*%
D36*
%TO.P,C13,2*%
%TO.N,Net-(C13-Pad2)*%
X36183000Y-103830000D03*
%TO.P,C13,1*%
%TO.N,Net-(JP49-B)*%
X38258000Y-103830000D03*
%TD*%
D26*
%TO.P,R67,2*%
%TO.N,Net-(JP30-C)*%
X85067000Y-102386000D03*
%TO.P,R67,1*%
%TO.N,Net-(R67-Pad1)*%
X85067000Y-104386000D03*
%TD*%
D15*
%TO.P,D19,2,A*%
%TO.N,Net-(D19-A)*%
X213414000Y-48714000D03*
%TO.P,D19,1,K*%
%TO.N,Net-(D19-K)*%
X213414000Y-50764000D03*
%TD*%
D37*
%TO.P,D10,2,A*%
%TO.N,RB3*%
X244139000Y-82496000D03*
D38*
%TO.P,D10,1,K*%
%TO.N,Net-(D10-K)*%
X246189000Y-82496000D03*
%TD*%
D20*
%TO.P,,1*%
%TO.N,GND*%
X143381000Y-74495000D03*
%TD*%
D21*
%TO.P,R68,2*%
%TO.N,GND*%
X143405000Y-124873000D03*
D22*
%TO.P,R68,1*%
%TO.N,Net-(JP33-C)*%
X145405000Y-124873000D03*
%TD*%
D26*
%TO.P,R43,1*%
%TO.N,+5V*%
X267263000Y-95831000D03*
D25*
%TO.P,R43,2*%
%TO.N,RB7*%
X267263000Y-93831000D03*
%TD*%
D24*
%TO.P,R57,2*%
%TO.N,Net-(JP27-C)*%
X126597000Y-128127000D03*
%TO.P,R57,1*%
%TO.N,Net-(R57-Pad1)*%
X126597000Y-126127000D03*
%TD*%
D39*
%TO.P,C1,2*%
%TO.N,GND*%
X234616750Y-92445000D03*
D40*
%TO.P,C1,1*%
%TO.N,Net-(D3-A)*%
X234616750Y-90370000D03*
%TD*%
D24*
%TO.P,R44,2*%
%TO.N,RB7*%
X267263000Y-91005000D03*
D23*
%TO.P,R44,1*%
%TO.N,GND*%
X267263000Y-89005000D03*
%TD*%
D41*
%TO.P,R63,1*%
%TO.N,Net-(JP39-C)*%
X128794000Y-106172000D03*
D42*
%TO.P,R63,2*%
%TO.N,GND*%
X130794000Y-106172000D03*
%TD*%
D19*
%TO.P,JP32,3,B*%
%TO.N,V_A*%
X142778000Y-132096000D03*
%TO.P,JP32,2,C*%
%TO.N,Net-(JP32-C)*%
X140238000Y-132096000D03*
D18*
%TO.P,JP32,1,A*%
%TO.N,V_B*%
X137698000Y-132096000D03*
%TD*%
%TO.P,JP47,1,A*%
%TO.N,V_B*%
X136390000Y-94256000D03*
D19*
%TO.P,JP47,2,C*%
%TO.N,Net-(JP47-C)*%
X133850000Y-94256000D03*
%TO.P,JP47,3,B*%
%TO.N,V_A*%
X131310000Y-94256000D03*
%TD*%
D18*
%TO.P,JP11,1,A*%
%TO.N,Net-(JP11-A)*%
X82167000Y-37665000D03*
D19*
%TO.P,JP11,2,C*%
%TO.N,Net-(JP11-C)*%
X82167000Y-40205000D03*
%TO.P,JP11,3,B*%
%TO.N,Net-(JP11-B)*%
X82167000Y-42745000D03*
%TD*%
D38*
%TO.P,D7,2,A*%
%TO.N,RB0*%
X244139000Y-88592000D03*
%TO.P,D7,1,K*%
%TO.N,Net-(D7-K)*%
X246189000Y-88592000D03*
%TD*%
D37*
%TO.P,D13,2,A*%
%TO.N,RB6*%
X244139000Y-76400000D03*
D38*
%TO.P,D13,1,K*%
%TO.N,Net-(D13-K)*%
X246189000Y-76400000D03*
%TD*%
D18*
%TO.P,JP15,1,A*%
%TO.N,Net-(JP15-A)*%
X32869000Y-57215000D03*
D19*
%TO.P,JP15,2,C*%
%TO.N,Net-(JP15-C)*%
X32869000Y-54675000D03*
%TO.P,JP15,3,B*%
%TO.N,Net-(JP15-B)*%
X32869000Y-52135000D03*
%TD*%
D18*
%TO.P,JP19,1,A*%
%TO.N,V_B*%
X69953000Y-24703000D03*
D19*
%TO.P,JP19,2,C*%
%TO.N,Net-(JP19-C)*%
X69953000Y-22163000D03*
%TO.P,JP19,3,B*%
%TO.N,V_A*%
X69953000Y-19623000D03*
%TD*%
D18*
%TO.P,J13,1*%
%TO.N,GND*%
X82123000Y-28335851D03*
D19*
%TO.P,J13,2*%
%TO.N,Net-(F4-Pad1)*%
X82123000Y-30875851D03*
%TO.P,J13,3*%
%TO.N,Net-(JP11-A)*%
X82123000Y-33415851D03*
%TD*%
D18*
%TO.P,JP9,1,A*%
%TO.N,Net-(JP9-A)*%
X49401000Y-37604149D03*
D19*
%TO.P,JP9,2,C*%
%TO.N,Net-(JP9-C)*%
X49401000Y-40144149D03*
%TO.P,JP9,3,B*%
%TO.N,Net-(JP9-B)*%
X49401000Y-42684149D03*
%TD*%
D18*
%TO.P,J24,1*%
%TO.N,Net-(JP24-A)*%
X122121200Y-33601000D03*
D19*
%TO.P,J24,2*%
%TO.N,Net-(J20-Pad2)*%
X124661200Y-33601000D03*
%TD*%
D17*
%TO.P,RN2,9,R8*%
%TO.N,Net-(D15-K)*%
X203508000Y-56606000D03*
%TO.P,RN2,8,R7*%
%TO.N,Net-(D16-K)*%
X206048000Y-56606000D03*
%TO.P,RN2,7,R6*%
%TO.N,Net-(D17-K)*%
X208588000Y-56606000D03*
%TO.P,RN2,6,R5*%
%TO.N,Net-(D18-K)*%
X211128000Y-56606000D03*
%TO.P,RN2,5,R4*%
%TO.N,Net-(D19-K)*%
X213668000Y-56606000D03*
%TO.P,RN2,4,R3*%
%TO.N,Net-(D20-K)*%
X216208000Y-56606000D03*
%TO.P,RN2,3,R2*%
%TO.N,Net-(D21-K)*%
X218748000Y-56606000D03*
%TO.P,RN2,2,R1*%
%TO.N,Net-(D22-K)*%
X221288000Y-56606000D03*
D16*
%TO.P,RN2,1,common*%
%TO.N,GND*%
X223828000Y-56606000D03*
%TD*%
D41*
%TO.P,R48,1*%
%TO.N,Net-(R48-Pad1)*%
X173684500Y-112014000D03*
D42*
%TO.P,R48,2*%
%TO.N,GND*%
X175684500Y-112014000D03*
%TD*%
D18*
%TO.P,JP12,1,A*%
%TO.N,Net-(JP12-A)*%
X85215000Y-57223000D03*
D19*
%TO.P,JP12,2,C*%
%TO.N,Net-(JP12-C)*%
X85215000Y-54683000D03*
%TO.P,JP12,3,B*%
%TO.N,Net-(JP12-B)*%
X85215000Y-52143000D03*
%TD*%
D35*
%TO.P,F13,1*%
%TO.N,Net-(F13-Pad1)*%
X82550000Y-84582000D03*
%TO.P,F13,2*%
%TO.N,Net-(JP45-C)*%
X90932000Y-87376000D03*
%TD*%
D18*
%TO.P,J21,1*%
%TO.N,Net-(JP24-B)*%
X124553000Y-67913000D03*
D19*
%TO.P,J21,2*%
%TO.N,Net-(C7-Pad2)*%
X127093000Y-67913000D03*
%TD*%
D35*
%TO.P,F2,2*%
%TO.N,Net-(JP17-C)*%
X44563000Y-22298000D03*
%TO.P,F2,1*%
%TO.N,Net-(F2-Pad1)*%
X41769000Y-30680000D03*
%TD*%
D21*
%TO.P,R54,2*%
%TO.N,GND*%
X122803000Y-124079000D03*
D22*
%TO.P,R54,1*%
%TO.N,Net-(JP34-C)*%
X124803000Y-124079000D03*
%TD*%
D35*
%TO.P,F15,2*%
%TO.N,Net-(JP47-C)*%
X133731000Y-87503000D03*
%TO.P,F15,1*%
%TO.N,Net-(F15-Pad1)*%
X125349000Y-84709000D03*
%TD*%
D18*
%TO.P,J11,1*%
%TO.N,GND*%
X49401000Y-28267000D03*
D19*
%TO.P,J11,2*%
%TO.N,Net-(F2-Pad1)*%
X49401000Y-30807000D03*
%TO.P,J11,3*%
%TO.N,Net-(JP9-A)*%
X49401000Y-33347000D03*
%TD*%
D18*
%TO.P,JP31,1,A*%
%TO.N,V_B*%
X96536000Y-133560000D03*
D19*
%TO.P,JP31,2,C*%
%TO.N,Net-(JP31-C)*%
X99076000Y-133560000D03*
%TO.P,JP31,3,B*%
%TO.N,V_A*%
X101616000Y-133560000D03*
%TD*%
D43*
%TO.P,L6,2,2*%
%TO.N,GND*%
X54284000Y-142196000D03*
D44*
%TO.P,L6,1,1*%
%TO.N,Net-(C12-Pad2)*%
X46156000Y-142196000D03*
%TD*%
D19*
%TO.P,JP3,3,B*%
%TO.N,Net-(JP3-B)*%
X228166500Y-119854500D03*
%TO.P,JP3,2,C*%
%TO.N,RC4*%
X230706500Y-119854500D03*
D18*
%TO.P,JP3,1,A*%
%TO.N,RC4B*%
X233246500Y-119854500D03*
%TD*%
%TO.P,J12,1*%
%TO.N,GND*%
X65867000Y-28267000D03*
D19*
%TO.P,J12,2*%
%TO.N,Net-(F3-Pad1)*%
X65867000Y-30807000D03*
%TO.P,J12,3*%
%TO.N,Net-(JP10-A)*%
X65867000Y-33347000D03*
%TD*%
D38*
%TO.P,D6,1,K*%
%TO.N,Net-(D6-K)*%
X212645000Y-142670000D03*
%TO.P,D6,2,A*%
%TO.N,+5V*%
X210595000Y-142670000D03*
%TD*%
D37*
%TO.P,D14,2,A*%
%TO.N,RB7*%
X244139000Y-74368000D03*
D38*
%TO.P,D14,1,K*%
%TO.N,Net-(D14-K)*%
X246189000Y-74368000D03*
%TD*%
D19*
%TO.P,JP37,3,B*%
%TO.N,Net-(JP37-B)*%
X79248000Y-105664000D03*
%TO.P,JP37,2,C*%
%TO.N,Net-(JP37-C)*%
X79248000Y-103124000D03*
D18*
%TO.P,JP37,1,A*%
%TO.N,Net-(JP37-A)*%
X79248000Y-100584000D03*
%TD*%
%TO.P,J14,1*%
%TO.N,GND*%
X85215000Y-66621000D03*
D19*
%TO.P,J14,2*%
%TO.N,Net-(F5-Pad1)*%
X85215000Y-64081000D03*
%TO.P,J14,3*%
%TO.N,Net-(JP12-A)*%
X85215000Y-61541000D03*
%TD*%
D15*
%TO.P,D15,2,A*%
%TO.N,Net-(D15-A)*%
X204270000Y-48714000D03*
%TO.P,D15,1,K*%
%TO.N,Net-(D15-K)*%
X204270000Y-50764000D03*
%TD*%
D24*
%TO.P,R41,2*%
%TO.N,RB5*%
X260659000Y-90989000D03*
D23*
%TO.P,R41,1*%
%TO.N,GND*%
X260659000Y-88989000D03*
%TD*%
D26*
%TO.P,R13,2*%
%TO.N,Net-(U1-RA4)*%
X230686000Y-98260000D03*
D25*
%TO.P,R13,1*%
%TO.N,GND*%
X230686000Y-100260000D03*
%TD*%
D26*
%TO.P,R52,1*%
%TO.N,Net-(R52-Pad1)*%
X147425000Y-104108000D03*
%TO.P,R52,2*%
%TO.N,Net-(JP25-C)*%
X147425000Y-102108000D03*
%TD*%
%TO.P,R26,2*%
%TO.N,GND*%
X268786000Y-114532000D03*
%TO.P,R26,1*%
%TO.N,Net-(U1-RC5)*%
X268786000Y-116532000D03*
%TD*%
D34*
%TO.P,L1,1,1*%
%TO.N,Net-(JP24-A)*%
X110615000Y-37411000D03*
%TO.P,L1,2,2*%
%TO.N,V_A*%
X102487000Y-37411000D03*
%TD*%
D19*
%TO.P,J40,2*%
%TO.N,Net-(C12-Pad2)*%
X30647100Y-132910000D03*
D18*
%TO.P,J40,1*%
%TO.N,Net-(JP49-A)*%
X33187100Y-132910000D03*
%TD*%
D41*
%TO.P,R53,1*%
%TO.N,Net-(JP38-C)*%
X109252000Y-107188000D03*
D42*
%TO.P,R53,2*%
%TO.N,GND*%
X111252000Y-107188000D03*
%TD*%
D18*
%TO.P,JP45,1,A*%
%TO.N,V_B*%
X93718000Y-94002000D03*
D19*
%TO.P,JP45,2,C*%
%TO.N,Net-(JP45-C)*%
X91178000Y-94002000D03*
%TO.P,JP45,3,B*%
%TO.N,V_A*%
X88638000Y-94002000D03*
%TD*%
D15*
%TO.P,D2,1,K*%
%TO.N,Net-(D2-K)*%
X237818500Y-128744500D03*
%TO.P,D2,2,A*%
%TO.N,+5V*%
X237818500Y-126694500D03*
%TD*%
D20*
%TO.P,,1*%
%TO.N,GND*%
X204270000Y-147266000D03*
%TD*%
D15*
%TO.P,D16,2,A*%
%TO.N,Net-(D16-A)*%
X206556000Y-48705000D03*
%TO.P,D16,1,K*%
%TO.N,Net-(D16-K)*%
X206556000Y-50755000D03*
%TD*%
D24*
%TO.P,R42,2*%
%TO.N,RB6*%
X263961000Y-90989000D03*
D23*
%TO.P,R42,1*%
%TO.N,GND*%
X263961000Y-88989000D03*
%TD*%
D20*
%TO.P,,1*%
%TO.N,GND*%
X204270000Y-65986000D03*
%TD*%
D26*
%TO.P,R38,1*%
%TO.N,+5V*%
X260659000Y-95831000D03*
D25*
%TO.P,R38,2*%
%TO.N,RB5*%
X260659000Y-93831000D03*
%TD*%
D38*
%TO.P,D8,2,A*%
%TO.N,RB1*%
X244139000Y-86560000D03*
%TO.P,D8,1,K*%
%TO.N,Net-(D8-K)*%
X246189000Y-86560000D03*
%TD*%
D18*
%TO.P,JP43,1,A*%
%TO.N,V_B*%
X96528000Y-138916000D03*
D19*
%TO.P,JP43,2,C*%
%TO.N,Net-(JP43-C)*%
X99068000Y-138916000D03*
%TO.P,JP43,3,B*%
%TO.N,V_A*%
X101608000Y-138916000D03*
%TD*%
D35*
%TO.P,F5,2*%
%TO.N,Net-(JP20-C)*%
X76579000Y-72463000D03*
%TO.P,F5,1*%
%TO.N,Net-(F5-Pad1)*%
X79373000Y-64081000D03*
%TD*%
D19*
%TO.P,JP33,3,B*%
%TO.N,Net-(JP33-B)*%
X153162000Y-127508000D03*
%TO.P,JP33,2,C*%
%TO.N,Net-(JP33-C)*%
X153162000Y-130048000D03*
D18*
%TO.P,JP33,1,A*%
%TO.N,Net-(JP33-A)*%
X153162000Y-132588000D03*
%TD*%
D26*
%TO.P,R65,1*%
%TO.N,Net-(R65-Pad1)*%
X127254000Y-104124000D03*
%TO.P,R65,2*%
%TO.N,Net-(JP29-C)*%
X127254000Y-102124000D03*
%TD*%
D17*
%TO.P,RN1,9,R8*%
%TO.N,Net-(D7-K)*%
X252521000Y-89862000D03*
%TO.P,RN1,8,R7*%
%TO.N,Net-(D8-K)*%
X252521000Y-87322000D03*
%TO.P,RN1,7,R6*%
%TO.N,Net-(D9-K)*%
X252521000Y-84782000D03*
%TO.P,RN1,6,R5*%
%TO.N,Net-(D10-K)*%
X252521000Y-82242000D03*
%TO.P,RN1,5,R4*%
%TO.N,Net-(D11-K)*%
X252521000Y-79702000D03*
%TO.P,RN1,4,R3*%
%TO.N,Net-(D12-K)*%
X252521000Y-77162000D03*
%TO.P,RN1,3,R2*%
%TO.N,Net-(D13-K)*%
X252521000Y-74622000D03*
%TO.P,RN1,2,R1*%
%TO.N,Net-(D14-K)*%
X252521000Y-72082000D03*
D16*
%TO.P,RN1,1,common*%
%TO.N,Net-(JP7-B)*%
X252521000Y-69542000D03*
%TD*%
D24*
%TO.P,R23,1*%
%TO.N,Net-(U1-RC1)*%
X265484000Y-119088000D03*
%TO.P,R23,2*%
%TO.N,+5V*%
X265484000Y-121088000D03*
%TD*%
D18*
%TO.P,J10,1*%
%TO.N,GND*%
X32891000Y-28521000D03*
D19*
%TO.P,J10,2*%
%TO.N,Net-(F1-Pad1)*%
X32891000Y-31061000D03*
%TO.P,J10,3*%
%TO.N,Net-(JP8-A)*%
X32891000Y-33601000D03*
%TD*%
D26*
%TO.P,R56,1*%
%TO.N,Net-(R56-Pad1)*%
X107188000Y-104632000D03*
%TO.P,R56,2*%
%TO.N,Net-(JP26-C)*%
X107188000Y-102632000D03*
%TD*%
D41*
%TO.P,R51,1*%
%TO.N,Net-(JP40-C)*%
X149511000Y-106434000D03*
D42*
%TO.P,R51,2*%
%TO.N,GND*%
X151511000Y-106434000D03*
%TD*%
D45*
%TO.P,C17,2*%
%TO.N,GND*%
X70866000Y-94234000D03*
D46*
%TO.P,C17,1*%
%TO.N,V_B*%
X70866000Y-99314000D03*
%TD*%
D19*
%TO.P,JP1,3,B*%
%TO.N,Net-(JP1-B)*%
X237818500Y-119854500D03*
%TO.P,JP1,2,C*%
%TO.N,RC3*%
X240358500Y-119854500D03*
D18*
%TO.P,JP1,1,A*%
%TO.N,RC3B*%
X242898500Y-119854500D03*
%TD*%
D35*
%TO.P,F14,2*%
%TO.N,Net-(JP46-C)*%
X113538000Y-87376000D03*
%TO.P,F14,1*%
%TO.N,Net-(F14-Pad1)*%
X105156000Y-84582000D03*
%TD*%
D44*
%TO.P,L5,2,2*%
%TO.N,V_A*%
X54102000Y-129540000D03*
%TO.P,L5,1,1*%
%TO.N,Net-(JP49-A)*%
X45974000Y-129540000D03*
%TD*%
D24*
%TO.P,R58,2*%
%TO.N,Net-(JP28-C)*%
X84985000Y-130675000D03*
%TO.P,R58,1*%
%TO.N,Net-(R58-Pad1)*%
X84985000Y-128675000D03*
%TD*%
D35*
%TO.P,F9,1*%
%TO.N,Net-(F9-Pad1)*%
X148336000Y-146812000D03*
%TO.P,F9,2*%
%TO.N,Net-(JP41-C)*%
X139954000Y-144018000D03*
%TD*%
D18*
%TO.P,J34,1*%
%TO.N,GND*%
X146558000Y-92964000D03*
D19*
%TO.P,J34,2*%
%TO.N,Net-(F16-Pad1)*%
X146558000Y-95504000D03*
%TO.P,J34,3*%
%TO.N,Net-(JP40-A)*%
X146558000Y-98044000D03*
%TD*%
D41*
%TO.P,R47,1*%
%TO.N,Net-(R47-Pad1)*%
X173684500Y-105410000D03*
D42*
%TO.P,R47,2*%
%TO.N,GND*%
X175684500Y-105410000D03*
%TD*%
D26*
%TO.P,R19,2*%
%TO.N,Net-(U1-RA7)*%
X220780000Y-98260000D03*
D25*
%TO.P,R19,1*%
%TO.N,GND*%
X220780000Y-100260000D03*
%TD*%
D35*
%TO.P,F11,2*%
%TO.N,Net-(JP43-C)*%
X98822000Y-143974000D03*
%TO.P,F11,1*%
%TO.N,Net-(F11-Pad1)*%
X107204000Y-146768000D03*
%TD*%
D19*
%TO.P,JP7,2,B*%
%TO.N,Net-(JP7-B)*%
X247164000Y-69564000D03*
D18*
%TO.P,JP7,1,A*%
%TO.N,GND*%
X244624000Y-69564000D03*
%TD*%
D42*
%TO.P,R64,2*%
%TO.N,GND*%
X89243000Y-106418000D03*
D41*
%TO.P,R64,1*%
%TO.N,Net-(JP37-C)*%
X87243000Y-106418000D03*
%TD*%
D20*
%TO.P,,1*%
%TO.N,GND*%
X143381000Y-20393000D03*
%TD*%
D41*
%TO.P,R61,1*%
%TO.N,Net-(R61-Pad1)*%
X173740500Y-121888200D03*
D42*
%TO.P,R61,2*%
%TO.N,GND*%
X175740500Y-121888200D03*
%TD*%
D41*
%TO.P,R50,1*%
%TO.N,Net-(R50-Pad1)*%
X173740500Y-118586200D03*
D42*
%TO.P,R50,2*%
%TO.N,GND*%
X175740500Y-118586200D03*
%TD*%
D18*
%TO.P,JP39,1,A*%
%TO.N,Net-(JP39-A)*%
X121688000Y-100592000D03*
D19*
%TO.P,JP39,2,C*%
%TO.N,Net-(JP39-C)*%
X121688000Y-103132000D03*
%TO.P,JP39,3,B*%
%TO.N,Net-(JP39-B)*%
X121688000Y-105672000D03*
%TD*%
%TO.P,J33,3*%
%TO.N,Net-(JP39-A)*%
X125730000Y-99060000D03*
%TO.P,J33,2*%
%TO.N,Net-(F15-Pad1)*%
X125730000Y-96520000D03*
D18*
%TO.P,J33,1*%
%TO.N,GND*%
X125730000Y-93980000D03*
%TD*%
D22*
%TO.P,R55,1*%
%TO.N,Net-(JP36-C)*%
X82937000Y-126881000D03*
D21*
%TO.P,R55,2*%
%TO.N,GND*%
X80937000Y-126881000D03*
%TD*%
D36*
%TO.P,C12,2*%
%TO.N,Net-(C12-Pad2)*%
X30715700Y-128072000D03*
%TO.P,C12,1*%
%TO.N,Net-(JP49-A)*%
X32790700Y-128072000D03*
%TD*%
D41*
%TO.P,R45,2*%
%TO.N,Net-(JP5-B)*%
X260388000Y-142948000D03*
%TO.P,R45,1*%
%TO.N,Net-(D5-K)*%
X258388000Y-142948000D03*
%TD*%
D26*
%TO.P,R9,1*%
%TO.N,+5V*%
X230686000Y-113452000D03*
%TO.P,R9,2*%
%TO.N,Net-(U1-RA3)*%
X230686000Y-111452000D03*
%TD*%
D25*
%TO.P,R21,2*%
%TO.N,Net-(R21-Pad2)*%
X268786000Y-100816000D03*
%TO.P,R21,1*%
%TO.N,Net-(U1-RC0)*%
X268786000Y-102816000D03*
%TD*%
D47*
%TO.P,U1,28,ICSPDAT/RB7*%
%TO.N,RB7*%
X250576800Y-98747200D03*
%TO.P,U1,27,ICSPCLK/RB6*%
%TO.N,RB6*%
X250576800Y-99397200D03*
%TO.P,U1,26,RB5*%
%TO.N,RB5*%
X250576800Y-100047200D03*
%TO.P,U1,25,RB4*%
%TO.N,RB4*%
X250576800Y-100697200D03*
%TO.P,U1,24,RB3*%
%TO.N,RB3*%
X250576800Y-101347200D03*
%TO.P,U1,23,RB2*%
%TO.N,RB2*%
X250576800Y-101997200D03*
%TO.P,U1,22,RB1*%
%TO.N,RB1*%
X250576800Y-102647200D03*
%TO.P,U1,21,RB0*%
%TO.N,RB0*%
X250576800Y-103297200D03*
%TO.P,U1,20,VDD*%
%TO.N,+5V*%
X250576800Y-103947200D03*
%TO.P,U1,19,VSS*%
%TO.N,GND*%
X250576800Y-104597200D03*
%TO.P,U1,18,RC7*%
%TO.N,RC7*%
X250576800Y-105247200D03*
%TO.P,U1,17,RC6*%
%TO.N,RC6*%
X250576800Y-105897200D03*
%TO.P,U1,16,RC5*%
%TO.N,Net-(U1-RC5)*%
X250576800Y-106547200D03*
%TO.P,U1,15,RC4*%
%TO.N,RC3*%
X250576800Y-107197200D03*
%TO.P,U1,14,RC3*%
%TO.N,RC4*%
X242608000Y-107207000D03*
%TO.P,U1,13,RC2*%
%TO.N,Net-(U1-RC2)*%
X242608000Y-106557000D03*
%TO.P,U1,12,RC1*%
%TO.N,Net-(U1-RC1)*%
X242608000Y-105907000D03*
%TO.P,U1,11,RC0*%
%TO.N,Net-(U1-RC0)*%
X242608000Y-105257000D03*
%TO.P,U1,10,RA6*%
%TO.N,Net-(U1-RA6)*%
X242608000Y-104607000D03*
%TO.P,U1,9,RA7*%
%TO.N,Net-(U1-RA7)*%
X242608000Y-103957000D03*
%TO.P,U1,8,VSS*%
%TO.N,GND*%
X242608000Y-103307000D03*
%TO.P,U1,7,RA5*%
%TO.N,Net-(U1-RA5)*%
X242608000Y-102657000D03*
%TO.P,U1,6,RA4*%
%TO.N,Net-(U1-RA4)*%
X242608000Y-102007000D03*
%TO.P,U1,5,RA3*%
%TO.N,Net-(U1-RA3)*%
X242608000Y-101357000D03*
%TO.P,U1,4,RA2*%
%TO.N,Net-(U1-RA2)*%
X242608000Y-100707000D03*
%TO.P,U1,3,RA1*%
%TO.N,Net-(U1-RA1)*%
X242608000Y-100057000D03*
%TO.P,U1,2,RA0*%
%TO.N,Net-(U1-RA0)*%
X242608000Y-99407000D03*
%TO.P,U1,1,RE3/~{MCLR}/VPP*%
%TO.N,Net-(D3-K)*%
X242608000Y-98757000D03*
%TD*%
D18*
%TO.P,JP25,1,A*%
%TO.N,V_B*%
X157480000Y-98044000D03*
D19*
%TO.P,JP25,2,C*%
%TO.N,Net-(JP25-C)*%
X154940000Y-98044000D03*
%TO.P,JP25,3,B*%
%TO.N,V_A*%
X152400000Y-98044000D03*
%TD*%
D18*
%TO.P,JP8,1,A*%
%TO.N,Net-(JP8-A)*%
X32913000Y-37842149D03*
D19*
%TO.P,JP8,2,C*%
%TO.N,Net-(JP8-C)*%
X32913000Y-40382149D03*
%TO.P,JP8,3,B*%
%TO.N,Net-(JP8-B)*%
X32913000Y-42922149D03*
%TD*%
D22*
%TO.P,R66,1*%
%TO.N,Net-(JP35-C)*%
X102370000Y-125708000D03*
D21*
%TO.P,R66,2*%
%TO.N,GND*%
X100370000Y-125708000D03*
%TD*%
D18*
%TO.P,JP17,1,A*%
%TO.N,V_B*%
X36921000Y-24830000D03*
D19*
%TO.P,JP17,2,C*%
%TO.N,Net-(JP17-C)*%
X36921000Y-22290000D03*
%TO.P,JP17,3,B*%
%TO.N,V_A*%
X36921000Y-19750000D03*
%TD*%
D18*
%TO.P,J30,1*%
%TO.N,GND*%
X85068000Y-138930000D03*
D19*
%TO.P,J30,2*%
%TO.N,Net-(F12-Pad1)*%
X85068000Y-136390000D03*
%TO.P,J30,3*%
%TO.N,Net-(JP36-A)*%
X85068000Y-133850000D03*
%TD*%
D34*
%TO.P,L3,1,1*%
%TO.N,Net-(JP24-B)*%
X112647000Y-71193000D03*
%TO.P,L3,2,2*%
%TO.N,V_B*%
X104519000Y-71193000D03*
%TD*%
D15*
%TO.P,D1,1,K*%
%TO.N,Net-(D1-K)*%
X233500500Y-128998500D03*
%TO.P,D1,2,A*%
%TO.N,+5V*%
X233500500Y-126948500D03*
%TD*%
D18*
%TO.P,JP13,1,A*%
%TO.N,Net-(JP13-A)*%
X67943000Y-57223000D03*
D19*
%TO.P,JP13,2,C*%
%TO.N,Net-(JP13-C)*%
X67943000Y-54683000D03*
%TO.P,JP13,3,B*%
%TO.N,Net-(JP13-B)*%
X67943000Y-52143000D03*
%TD*%
D26*
%TO.P,R16,2*%
%TO.N,Net-(U1-RA5)*%
X227384000Y-98260000D03*
D25*
%TO.P,R16,1*%
%TO.N,GND*%
X227384000Y-100260000D03*
%TD*%
D19*
%TO.P,JP27,3,B*%
%TO.N,V_A*%
X122682000Y-131826000D03*
%TO.P,JP27,2,C*%
%TO.N,Net-(JP27-C)*%
X120142000Y-131826000D03*
D18*
%TO.P,JP27,1,A*%
%TO.N,V_B*%
X117602000Y-131826000D03*
%TD*%
%TO.P,JP26,1,A*%
%TO.N,V_B*%
X115308000Y-99590000D03*
D19*
%TO.P,JP26,2,C*%
%TO.N,Net-(JP26-C)*%
X112768000Y-99590000D03*
%TO.P,JP26,3,B*%
%TO.N,V_A*%
X110228000Y-99590000D03*
%TD*%
D26*
%TO.P,R3,1*%
%TO.N,+5V*%
X220780000Y-113452000D03*
%TO.P,R3,2*%
%TO.N,Net-(U1-RA0)*%
X220780000Y-111452000D03*
%TD*%
D24*
%TO.P,R18,1*%
%TO.N,+5V*%
X220780000Y-93418000D03*
%TO.P,R18,2*%
%TO.N,Net-(U1-RA7)*%
X220780000Y-95418000D03*
%TD*%
D48*
%TO.P,C9,1*%
%TO.N,V_B*%
X99439000Y-65859000D03*
%TO.P,C9,2*%
%TO.N,GND*%
X99439000Y-63784000D03*
%TD*%
D24*
%TO.P,R31,1*%
%TO.N,+5V*%
X260659000Y-73765000D03*
%TO.P,R31,2*%
%TO.N,RB2*%
X260659000Y-75765000D03*
%TD*%
D20*
%TO.P,,1*%
%TO.N,GND*%
X195268000Y-34998000D03*
%TD*%
D18*
%TO.P,JP18,1,A*%
%TO.N,V_B*%
X53399000Y-24703000D03*
D19*
%TO.P,JP18,2,C*%
%TO.N,Net-(JP18-C)*%
X53399000Y-22163000D03*
%TO.P,JP18,3,B*%
%TO.N,V_A*%
X53399000Y-19623000D03*
%TD*%
D25*
%TO.P,R35,1*%
%TO.N,+5V*%
X257357000Y-95871000D03*
D26*
%TO.P,R35,2*%
%TO.N,RB4*%
X257357000Y-93871000D03*
%TD*%
D24*
%TO.P,R27,1*%
%TO.N,Net-(U1-RC5)*%
X268786000Y-119104000D03*
%TO.P,R27,2*%
%TO.N,+5V*%
X268786000Y-121104000D03*
%TD*%
%TO.P,R30,1*%
%TO.N,+5V*%
X263961000Y-73781000D03*
%TO.P,R30,2*%
%TO.N,RB1*%
X263961000Y-75781000D03*
%TD*%
D33*
%TO.P,C4,1*%
%TO.N,+5V*%
X212609000Y-131010000D03*
%TO.P,C4,2*%
%TO.N,GND*%
X214684000Y-131010000D03*
%TD*%
D25*
%TO.P,R25,2*%
%TO.N,Net-(R21-Pad2)*%
X265484000Y-101054000D03*
D26*
%TO.P,R25,1*%
%TO.N,Net-(U1-RC2)*%
X265484000Y-103054000D03*
%TD*%
%TO.P,R5,1*%
%TO.N,+5V*%
X224082000Y-113452000D03*
%TO.P,R5,2*%
%TO.N,Net-(U1-RA1)*%
X224082000Y-111452000D03*
%TD*%
D34*
%TO.P,L2,1,1*%
%TO.N,Net-(J20-Pad2)*%
X110869000Y-24203000D03*
%TO.P,L2,2,2*%
%TO.N,GND*%
X102741000Y-24203000D03*
%TD*%
D24*
%TO.P,R70,2*%
%TO.N,Net-(JP32-C)*%
X147469000Y-128921000D03*
%TO.P,R70,1*%
%TO.N,Net-(R70-Pad1)*%
X147469000Y-126921000D03*
%TD*%
D20*
%TO.P,,1*%
%TO.N,GND*%
X195268000Y-74368000D03*
%TD*%
D37*
%TO.P,D9,2,A*%
%TO.N,RB2*%
X244139000Y-84528000D03*
D38*
%TO.P,D9,1,K*%
%TO.N,Net-(D9-K)*%
X246189000Y-84528000D03*
%TD*%
D18*
%TO.P,JP46,1,A*%
%TO.N,V_B*%
X115570000Y-94234000D03*
D19*
%TO.P,JP46,2,C*%
%TO.N,Net-(JP46-C)*%
X113030000Y-94234000D03*
%TO.P,JP46,3,B*%
%TO.N,V_A*%
X110490000Y-94234000D03*
%TD*%
D18*
%TO.P,JP48,1,A*%
%TO.N,V_B*%
X157488000Y-92688000D03*
D19*
%TO.P,JP48,2,C*%
%TO.N,Net-(JP48-C)*%
X154948000Y-92688000D03*
%TO.P,JP48,3,B*%
%TO.N,V_A*%
X152408000Y-92688000D03*
%TD*%
D18*
%TO.P,JP49,1,A*%
%TO.N,Net-(JP49-A)*%
X43202000Y-105950000D03*
D19*
%TO.P,JP49,2,B*%
%TO.N,Net-(JP49-B)*%
X43202000Y-103410000D03*
%TD*%
%TO.P,J27,3*%
%TO.N,Net-(JP33-A)*%
X147596000Y-133358000D03*
%TO.P,J27,2*%
%TO.N,Net-(F9-Pad1)*%
X147596000Y-135898000D03*
D18*
%TO.P,J27,1*%
%TO.N,GND*%
X147596000Y-138438000D03*
%TD*%
D24*
%TO.P,R10,1*%
%TO.N,+5V*%
X230686000Y-93418000D03*
%TO.P,R10,2*%
%TO.N,Net-(U1-RA4)*%
X230686000Y-95418000D03*
%TD*%
%TO.P,R69,1*%
%TO.N,Net-(R69-Pad1)*%
X104418000Y-127772000D03*
%TO.P,R69,2*%
%TO.N,Net-(JP31-C)*%
X104418000Y-129772000D03*
%TD*%
D35*
%TO.P,F3,2*%
%TO.N,Net-(JP18-C)*%
X60914000Y-22044000D03*
%TO.P,F3,1*%
%TO.N,Net-(F3-Pad1)*%
X58120000Y-30426000D03*
%TD*%
D18*
%TO.P,J15,1*%
%TO.N,GND*%
X67943000Y-66621000D03*
D19*
%TO.P,J15,2*%
%TO.N,Net-(F6-Pad1)*%
X67943000Y-64081000D03*
%TO.P,J15,3*%
%TO.N,Net-(JP13-A)*%
X67943000Y-61541000D03*
%TD*%
D23*
%TO.P,R8,2*%
%TO.N,Net-(U1-RA2)*%
X227384000Y-108610000D03*
%TO.P,R8,1*%
%TO.N,GND*%
X227384000Y-106610000D03*
%TD*%
D18*
%TO.P,JP16,1,A*%
%TO.N,V_B*%
X20699000Y-24711000D03*
D19*
%TO.P,JP16,2,C*%
%TO.N,Net-(JP16-C)*%
X20699000Y-22171000D03*
%TO.P,JP16,3,B*%
%TO.N,V_A*%
X20699000Y-19631000D03*
%TD*%
%TO.P,JP30,3,B*%
%TO.N,V_A*%
X88638000Y-99590000D03*
%TO.P,JP30,2,C*%
%TO.N,Net-(JP30-C)*%
X91178000Y-99590000D03*
D18*
%TO.P,JP30,1,A*%
%TO.N,V_B*%
X93718000Y-99590000D03*
%TD*%
%TO.P,J16,1*%
%TO.N,GND*%
X50417000Y-66367000D03*
D19*
%TO.P,J16,2*%
%TO.N,Net-(F7-Pad1)*%
X50417000Y-63827000D03*
%TO.P,J16,3*%
%TO.N,Net-(JP14-A)*%
X50417000Y-61287000D03*
%TD*%
%TO.P,J1,5*%
%TO.N,RB6P*%
X235004000Y-70050000D03*
%TO.P,J1,4*%
%TO.N,RB7P*%
X232464000Y-70050000D03*
%TO.P,J1,3*%
%TO.N,GND*%
X229924000Y-70050000D03*
%TO.P,J1,2*%
%TO.N,+5V*%
X227384000Y-70050000D03*
D18*
%TO.P,J1,1*%
%TO.N,Net-(D3-K)*%
X224844000Y-70050000D03*
%TD*%
D31*
%TO.P,C5,1*%
%TO.N,+5V*%
X211128000Y-136598000D03*
%TO.P,C5,2*%
%TO.N,GND*%
X216208000Y-136598000D03*
%TD*%
D49*
%TO.P,SW1,6,C*%
%TO.N,RB6*%
X217960600Y-82496000D03*
%TO.P,SW1,5,B*%
X217960600Y-79905200D03*
%TO.P,SW1,4,A*%
%TO.N,RB6P*%
X217960600Y-77416000D03*
%TO.P,SW1,3,C*%
%TO.N,RB7P*%
X221288000Y-77416000D03*
%TO.P,SW1,2,B*%
%TO.N,RB7*%
X221288000Y-79905200D03*
%TO.P,SW1,1,A*%
X221288000Y-82496000D03*
%TD*%
D19*
%TO.P,JP5,3,B*%
%TO.N,Net-(JP5-B)*%
X262182000Y-131264000D03*
%TO.P,JP5,2,C*%
%TO.N,RC6*%
X262182000Y-128724000D03*
D18*
%TO.P,JP5,1,A*%
%TO.N,RC6B*%
X262182000Y-126184000D03*
%TD*%
D33*
%TO.P,C2,1*%
%TO.N,+5V*%
X212609000Y-121612000D03*
%TO.P,C2,2*%
%TO.N,GND*%
X214684000Y-121612000D03*
%TD*%
D41*
%TO.P,R49,1*%
%TO.N,Net-(R49-Pad1)*%
X173740500Y-125190200D03*
D42*
%TO.P,R49,2*%
%TO.N,GND*%
X175740500Y-125190200D03*
%TD*%
D23*
%TO.P,R11,2*%
%TO.N,Net-(U1-RA3)*%
X230686000Y-108610000D03*
%TO.P,R11,1*%
%TO.N,GND*%
X230686000Y-106610000D03*
%TD*%
%TO.P,R4,2*%
%TO.N,Net-(U1-RA0)*%
X220780000Y-108626000D03*
%TO.P,R4,1*%
%TO.N,GND*%
X220780000Y-106626000D03*
%TD*%
D24*
%TO.P,R2,2*%
%TO.N,Net-(JP1-B)*%
X237818500Y-133275500D03*
%TO.P,R2,1*%
%TO.N,Net-(D2-K)*%
X237818500Y-131275500D03*
%TD*%
D19*
%TO.P,JP41,3,B*%
%TO.N,V_A*%
X142778000Y-137176000D03*
%TO.P,JP41,2,C*%
%TO.N,Net-(JP41-C)*%
X140238000Y-137176000D03*
D18*
%TO.P,JP41,1,A*%
%TO.N,V_B*%
X137698000Y-137176000D03*
%TD*%
%TO.P,JP14,1,A*%
%TO.N,Net-(JP14-A)*%
X50417000Y-57223000D03*
D19*
%TO.P,JP14,2,C*%
%TO.N,Net-(JP14-C)*%
X50417000Y-54683000D03*
%TO.P,JP14,3,B*%
%TO.N,Net-(JP14-B)*%
X50417000Y-52143000D03*
%TD*%
D18*
%TO.P,JP4,1,A*%
%TO.N,Net-(D2-K)*%
X243152500Y-129511500D03*
D19*
%TO.P,JP4,2,B*%
%TO.N,+5V*%
X243152500Y-126971500D03*
%TD*%
D18*
%TO.P,J17,1*%
%TO.N,GND*%
X32891000Y-66367000D03*
D19*
%TO.P,J17,2*%
%TO.N,Net-(F8-Pad1)*%
X32891000Y-63827000D03*
%TO.P,J17,3*%
%TO.N,Net-(JP15-A)*%
X32891000Y-61287000D03*
%TD*%
D50*
%TO.P,J4,1*%
%TO.N,+5V*%
X245824500Y-137368000D03*
D51*
%TO.P,J4,2*%
%TO.N,Net-(JP1-B)*%
X244554500Y-139908000D03*
%TO.P,J4,3*%
%TO.N,Net-(JP3-B)*%
X243284500Y-137368000D03*
%TO.P,J4,4*%
%TO.N,GND*%
X242014500Y-139908000D03*
%TD*%
D19*
%TO.P,J38,2*%
%TO.N,Net-(C13-Pad2)*%
X35718000Y-99766000D03*
D18*
%TO.P,J38,1*%
%TO.N,Net-(JP49-B)*%
X38258000Y-99766000D03*
%TD*%
D23*
%TO.P,R7,2*%
%TO.N,Net-(U1-RA1)*%
X224082000Y-108610000D03*
%TO.P,R7,1*%
%TO.N,GND*%
X224082000Y-106610000D03*
%TD*%
D43*
%TO.P,L8,2,2*%
%TO.N,GND*%
X58070000Y-90622000D03*
D44*
%TO.P,L8,1,1*%
%TO.N,Net-(C13-Pad2)*%
X49942000Y-90622000D03*
%TD*%
D19*
%TO.P,J31,3*%
%TO.N,Net-(JP37-A)*%
X83334000Y-99322000D03*
%TO.P,J31,2*%
%TO.N,Net-(F13-Pad1)*%
X83334000Y-96782000D03*
D18*
%TO.P,J31,1*%
%TO.N,GND*%
X83334000Y-94242000D03*
%TD*%
D19*
%TO.P,J28,3*%
%TO.N,Net-(JP34-A)*%
X128270000Y-132080000D03*
%TO.P,J28,2*%
%TO.N,Net-(F10-Pad1)*%
X128270000Y-134620000D03*
D18*
%TO.P,J28,1*%
%TO.N,GND*%
X128270000Y-137160000D03*
%TD*%
D15*
%TO.P,D21,2,A*%
%TO.N,Net-(D21-A)*%
X217986000Y-48714000D03*
%TO.P,D21,1,K*%
%TO.N,Net-(D21-K)*%
X217986000Y-50764000D03*
%TD*%
D48*
%TO.P,C8,1*%
%TO.N,V_A*%
X97661000Y-31844500D03*
%TO.P,C8,2*%
%TO.N,GND*%
X97661000Y-29769500D03*
%TD*%
D29*
%TO.P,J20,1*%
%TO.N,Net-(JP24-A)*%
X120457500Y-20647000D03*
%TO.P,J20,2*%
%TO.N,Net-(J20-Pad2)*%
X127455200Y-20647000D03*
%TD*%
D15*
%TO.P,D20,2,A*%
%TO.N,Net-(D20-A)*%
X215700000Y-48714000D03*
%TO.P,D20,1,K*%
%TO.N,Net-(D20-K)*%
X215700000Y-50764000D03*
%TD*%
D20*
%TO.P,,1*%
%TO.N,GND*%
X285550000Y-65986000D03*
%TD*%
D25*
%TO.P,R17,2*%
%TO.N,Net-(U1-RA6)*%
X224082000Y-98260000D03*
%TO.P,R17,1*%
%TO.N,GND*%
X224082000Y-100260000D03*
%TD*%
D24*
%TO.P,R1,2*%
%TO.N,Net-(JP3-B)*%
X233500500Y-133307500D03*
%TO.P,R1,1*%
%TO.N,Net-(D1-K)*%
X233500500Y-131307500D03*
%TD*%
D19*
%TO.P,J36,2*%
%TO.N,Net-(C13-Pad2)*%
X35750000Y-95934000D03*
D18*
%TO.P,J36,1*%
%TO.N,Net-(JP49-B)*%
X38290000Y-95934000D03*
%TD*%
D19*
%TO.P,JP6,3,B*%
%TO.N,Net-(JP6-B)*%
X267770000Y-131010000D03*
%TO.P,JP6,2,C*%
%TO.N,RC7*%
X267770000Y-128470000D03*
D18*
%TO.P,JP6,1,A*%
%TO.N,RC7B*%
X267770000Y-125930000D03*
%TD*%
D46*
%TO.P,C10,1*%
%TO.N,V_A*%
X91565000Y-33347000D03*
D45*
%TO.P,C10,2*%
%TO.N,GND*%
X91565000Y-28267000D03*
%TD*%
D29*
%TO.P,J37,2*%
%TO.N,Net-(C12-Pad2)*%
X28175700Y-145852000D03*
%TO.P,J37,1*%
%TO.N,Net-(JP49-A)*%
X35173400Y-145852000D03*
%TD*%
D15*
%TO.P,D3,2,A*%
%TO.N,Net-(D3-A)*%
X238814000Y-93400000D03*
D52*
%TO.P,D3,1,K*%
%TO.N,Net-(D3-K)*%
X238814000Y-95450000D03*
%TD*%
D41*
%TO.P,R60,1*%
%TO.N,Net-(R60-Pad1)*%
X173684500Y-115316000D03*
D42*
%TO.P,R60,2*%
%TO.N,GND*%
X175684500Y-115316000D03*
%TD*%
D41*
%TO.P,R59,1*%
%TO.N,Net-(R59-Pad1)*%
X173684500Y-108712000D03*
D42*
%TO.P,R59,2*%
%TO.N,GND*%
X175684500Y-108712000D03*
%TD*%
D18*
%TO.P,JP24,1,A*%
%TO.N,Net-(JP24-A)*%
X120521000Y-52111000D03*
D19*
%TO.P,JP24,2,B*%
%TO.N,Net-(JP24-B)*%
X120521000Y-54651000D03*
%TD*%
D24*
%TO.P,R15,1*%
%TO.N,+5V*%
X224082000Y-93418000D03*
%TO.P,R15,2*%
%TO.N,Net-(U1-RA6)*%
X224082000Y-95418000D03*
%TD*%
D29*
%TO.P,J22,1*%
%TO.N,Net-(JP24-B)*%
X122413300Y-74241000D03*
%TO.P,J22,2*%
%TO.N,Net-(C7-Pad2)*%
X129411000Y-74241000D03*
%TD*%
D18*
%TO.P,JP21,1,A*%
%TO.N,V_B*%
X54459000Y-74995000D03*
D19*
%TO.P,JP21,2,C*%
%TO.N,Net-(JP21-C)*%
X54459000Y-72455000D03*
%TO.P,JP21,3,B*%
%TO.N,V_A*%
X54459000Y-69915000D03*
%TD*%
D35*
%TO.P,F1,2*%
%TO.N,Net-(JP16-C)*%
X28192000Y-22425000D03*
%TO.P,F1,1*%
%TO.N,Net-(F1-Pad1)*%
X25398000Y-30807000D03*
%TD*%
D37*
%TO.P,D11,2,A*%
%TO.N,RB4*%
X244139000Y-80464000D03*
D38*
%TO.P,D11,1,K*%
%TO.N,Net-(D11-K)*%
X246189000Y-80464000D03*
%TD*%
D24*
%TO.P,R14,1*%
%TO.N,+5V*%
X227384000Y-93418000D03*
%TO.P,R14,2*%
%TO.N,Net-(U1-RA5)*%
X227384000Y-95418000D03*
%TD*%
D18*
%TO.P,JP23,1,A*%
%TO.N,V_B*%
X19429000Y-75003000D03*
D19*
%TO.P,JP23,2,C*%
%TO.N,Net-(JP23-C)*%
X19429000Y-72463000D03*
%TO.P,JP23,3,B*%
%TO.N,V_A*%
X19429000Y-69923000D03*
%TD*%
D24*
%TO.P,R20,2*%
%TO.N,GND*%
X268786000Y-107642000D03*
%TO.P,R20,1*%
%TO.N,Net-(U1-RC0)*%
X268786000Y-105642000D03*
%TD*%
D20*
%TO.P,,1*%
%TO.N,GND*%
X10539000Y-20393000D03*
%TD*%
D18*
%TO.P,JP34,1,A*%
%TO.N,Net-(JP34-A)*%
X132588000Y-130810000D03*
D19*
%TO.P,JP34,2,C*%
%TO.N,Net-(JP34-C)*%
X132588000Y-128270000D03*
%TO.P,JP34,3,B*%
%TO.N,Net-(JP34-B)*%
X132588000Y-125730000D03*
%TD*%
D18*
%TO.P,J32,1*%
%TO.N,GND*%
X105134000Y-93972000D03*
D19*
%TO.P,J32,2*%
%TO.N,Net-(F14-Pad1)*%
X105134000Y-96512000D03*
%TO.P,J32,3*%
%TO.N,Net-(JP38-A)*%
X105134000Y-99052000D03*
%TD*%
D20*
%TO.P,REF\u002A\u002A,1*%
%TO.N,GND*%
X10539000Y-74495000D03*
%TD*%
D26*
%TO.P,R36,2*%
%TO.N,RB3*%
X257357000Y-78591000D03*
D25*
%TO.P,R36,1*%
%TO.N,GND*%
X257357000Y-80591000D03*
%TD*%
D24*
%TO.P,R34,1*%
%TO.N,+5V*%
X257357000Y-73765000D03*
%TO.P,R34,2*%
%TO.N,RB3*%
X257357000Y-75765000D03*
%TD*%
D18*
%TO.P,JP36,1,A*%
%TO.N,Net-(JP36-A)*%
X91650000Y-133080000D03*
D19*
%TO.P,JP36,2,C*%
%TO.N,Net-(JP36-C)*%
X91650000Y-130540000D03*
%TO.P,JP36,3,B*%
%TO.N,Net-(JP36-B)*%
X91650000Y-128000000D03*
%TD*%
D15*
%TO.P,D17,2,A*%
%TO.N,Net-(D17-A)*%
X208842000Y-48714000D03*
%TO.P,D17,1,K*%
%TO.N,Net-(D17-K)*%
X208842000Y-50764000D03*
%TD*%
D50*
%TO.P,J3,1*%
%TO.N,+5V*%
X231092500Y-137368000D03*
D51*
%TO.P,J3,2*%
%TO.N,Net-(JP1-B)*%
X229822500Y-139908000D03*
%TO.P,J3,3*%
%TO.N,Net-(JP3-B)*%
X228552500Y-137368000D03*
%TO.P,J3,4*%
%TO.N,GND*%
X227282500Y-139908000D03*
%TD*%
D18*
%TO.P,JP20,1,A*%
%TO.N,V_B*%
X71985000Y-74995000D03*
D19*
%TO.P,JP20,2,C*%
%TO.N,Net-(JP20-C)*%
X71985000Y-72455000D03*
%TO.P,JP20,3,B*%
%TO.N,V_A*%
X71985000Y-69915000D03*
%TD*%
D35*
%TO.P,F10,1*%
%TO.N,Net-(F10-Pad1)*%
X127889000Y-146685000D03*
%TO.P,F10,2*%
%TO.N,Net-(JP42-C)*%
X119507000Y-143891000D03*
%TD*%
D38*
%TO.P,D5,1,K*%
%TO.N,Net-(D5-K)*%
X256340000Y-142948000D03*
%TO.P,D5,2,A*%
%TO.N,+5V*%
X254290000Y-142948000D03*
%TD*%
D20*
%TO.P,,1*%
%TO.N,GND*%
X285550000Y-147266000D03*
%TD*%
D41*
%TO.P,R46,2*%
%TO.N,GND*%
X216938000Y-142670000D03*
%TO.P,R46,1*%
%TO.N,Net-(D6-K)*%
X214938000Y-142670000D03*
%TD*%
D26*
%TO.P,R32,2*%
%TO.N,RB1*%
X263961000Y-78591000D03*
D25*
%TO.P,R32,1*%
%TO.N,GND*%
X263961000Y-80591000D03*
%TD*%
D18*
%TO.P,JP40,1,A*%
%TO.N,Net-(JP40-A)*%
X141754000Y-100338000D03*
D19*
%TO.P,JP40,2,C*%
%TO.N,Net-(JP40-C)*%
X141754000Y-102878000D03*
%TO.P,JP40,3,B*%
%TO.N,Net-(JP40-B)*%
X141754000Y-105418000D03*
%TD*%
D15*
%TO.P,D22,2,A*%
%TO.N,Net-(D22-A)*%
X220272000Y-48714000D03*
%TO.P,D22,1,K*%
%TO.N,Net-(D22-K)*%
X220272000Y-50764000D03*
%TD*%
D41*
%TO.P,R62,1*%
%TO.N,Net-(R62-Pad1)*%
X173740500Y-128492200D03*
D42*
%TO.P,R62,2*%
%TO.N,GND*%
X175740500Y-128492200D03*
%TD*%
D33*
%TO.P,C3,1*%
%TO.N,+5V*%
X212609000Y-126438000D03*
%TO.P,C3,2*%
%TO.N,GND*%
X214684000Y-126438000D03*
%TD*%
D29*
%TO.P,J39,2*%
%TO.N,Net-(C13-Pad2)*%
X32766000Y-86614000D03*
%TO.P,J39,1*%
%TO.N,Net-(JP49-B)*%
X39763700Y-86614000D03*
%TD*%
D19*
%TO.P,J41,2*%
%TO.N,Net-(C12-Pad2)*%
X30583100Y-137780000D03*
D18*
%TO.P,J41,1*%
%TO.N,Net-(JP49-A)*%
X33123100Y-137780000D03*
%TD*%
%TO.P,JP38,1,A*%
%TO.N,Net-(JP38-A)*%
X101092000Y-100330000D03*
D19*
%TO.P,JP38,2,C*%
%TO.N,Net-(JP38-C)*%
X101092000Y-102870000D03*
%TO.P,JP38,3,B*%
%TO.N,Net-(JP38-B)*%
X101092000Y-105410000D03*
%TD*%
D18*
%TO.P,JP29,1,A*%
%TO.N,V_B*%
X136136000Y-98828000D03*
D19*
%TO.P,JP29,2,C*%
%TO.N,Net-(JP29-C)*%
X133596000Y-98828000D03*
%TO.P,JP29,3,B*%
%TO.N,V_A*%
X131056000Y-98828000D03*
%TD*%
D41*
%TO.P,R39,2*%
%TO.N,Net-(JP6-B)*%
X260388000Y-137106000D03*
%TO.P,R39,1*%
%TO.N,Net-(D4-K)*%
X258388000Y-137106000D03*
%TD*%
D48*
%TO.P,C15,2*%
%TO.N,GND*%
X64516000Y-96244500D03*
%TO.P,C15,1*%
%TO.N,V_B*%
X64516000Y-98319500D03*
%TD*%
D53*
%TO.P,U2,1*%
%TO.N,Net-(J26-Pad4)*%
X169096500Y-115316000D03*
%TO.P,U2,2*%
%TO.N,Net-(R60-Pad1)*%
X169096500Y-114046000D03*
%TO.P,U2,3*%
%TO.N,Net-(J26-Pad3)*%
X169096500Y-112776000D03*
%TO.P,U2,4*%
%TO.N,Net-(R48-Pad1)*%
X169096500Y-111506000D03*
%TO.P,U2,5*%
%TO.N,Net-(J26-Pad2)*%
X169096500Y-110236000D03*
%TO.P,U2,6*%
%TO.N,Net-(R59-Pad1)*%
X169096500Y-108966000D03*
%TO.P,U2,7*%
%TO.N,Net-(J26-Pad1)*%
X169096500Y-107696000D03*
%TO.P,U2,8*%
%TO.N,Net-(R47-Pad1)*%
X169096500Y-106426000D03*
%TO.P,U2,9*%
%TO.N,Net-(JP40-C)*%
X162096500Y-106426000D03*
%TO.P,U2,10*%
%TO.N,Net-(R52-Pad1)*%
X162096500Y-107696000D03*
%TO.P,U2,11*%
%TO.N,Net-(JP39-C)*%
X162096500Y-108966000D03*
%TO.P,U2,12*%
%TO.N,Net-(R65-Pad1)*%
X162096500Y-110236000D03*
%TO.P,U2,13*%
%TO.N,Net-(JP38-C)*%
X162096500Y-111506000D03*
%TO.P,U2,14*%
%TO.N,Net-(R56-Pad1)*%
X162096500Y-112776000D03*
%TO.P,U2,15*%
%TO.N,Net-(JP37-C)*%
X162096500Y-114046000D03*
%TO.P,U2,16*%
%TO.N,Net-(R67-Pad1)*%
X162096500Y-115316000D03*
%TD*%
D54*
%TO.P,C16,2*%
%TO.N,GND*%
X66294000Y-138684000D03*
D55*
%TO.P,C16,1*%
%TO.N,V_A*%
X66294000Y-133604000D03*
%TD*%
D18*
%TO.P,J8,1*%
%TO.N,+5V*%
X212874000Y-148812000D03*
D19*
%TO.P,J8,2*%
%TO.N,GND*%
X215414000Y-148812000D03*
%TD*%
D18*
%TO.P,JP44,1,A*%
%TO.N,V_B*%
X74422000Y-138176000D03*
D19*
%TO.P,JP44,2,C*%
%TO.N,Net-(JP44-C)*%
X76962000Y-138176000D03*
%TO.P,JP44,3,B*%
%TO.N,V_A*%
X79502000Y-138176000D03*
%TD*%
D24*
%TO.P,R37,2*%
%TO.N,RB4*%
X257357000Y-91021000D03*
D23*
%TO.P,R37,1*%
%TO.N,GND*%
X257357000Y-89021000D03*
%TD*%
D15*
%TO.P,D18,2,A*%
%TO.N,Net-(D18-A)*%
X211128000Y-48705000D03*
%TO.P,D18,1,K*%
%TO.N,Net-(D18-K)*%
X211128000Y-50755000D03*
%TD*%
D35*
%TO.P,F12,2*%
%TO.N,Net-(JP44-C)*%
X76962000Y-144018000D03*
%TO.P,F12,1*%
%TO.N,Net-(F12-Pad1)*%
X85344000Y-146812000D03*
%TD*%
D44*
%TO.P,L7,1,1*%
%TO.N,Net-(JP49-B)*%
X49942000Y-102594000D03*
%TO.P,L7,2,2*%
%TO.N,V_B*%
X58070000Y-102594000D03*
%TD*%
D19*
%TO.P,JP28,3,B*%
%TO.N,V_A*%
X79502000Y-132842000D03*
%TO.P,JP28,2,C*%
%TO.N,Net-(JP28-C)*%
X76962000Y-132842000D03*
D18*
%TO.P,JP28,1,A*%
%TO.N,V_B*%
X74422000Y-132842000D03*
%TD*%
D37*
%TO.P,D12,2,A*%
%TO.N,RB5*%
X244139000Y-78432000D03*
D38*
%TO.P,D12,1,K*%
%TO.N,Net-(D12-K)*%
X246189000Y-78432000D03*
%TD*%
%TO.P,D4,1,K*%
%TO.N,Net-(D4-K)*%
X256340000Y-137106000D03*
%TO.P,D4,2,A*%
%TO.N,+5V*%
X254290000Y-137106000D03*
%TD*%
D18*
%TO.P,J29,1*%
%TO.N,GND*%
X106920000Y-138146000D03*
D19*
%TO.P,J29,2*%
%TO.N,Net-(F11-Pad1)*%
X106920000Y-135606000D03*
%TO.P,J29,3*%
%TO.N,Net-(JP35-A)*%
X106920000Y-133066000D03*
%TD*%
D24*
%TO.P,R12,2*%
%TO.N,Net-(D3-A)*%
X234616750Y-87819500D03*
%TO.P,R12,1*%
%TO.N,+5V*%
X234616750Y-85819500D03*
%TD*%
D18*
%TO.P,JP22,1,A*%
%TO.N,V_B*%
X36955000Y-75003000D03*
D19*
%TO.P,JP22,2,C*%
%TO.N,Net-(JP22-C)*%
X36955000Y-72463000D03*
%TO.P,JP22,3,B*%
%TO.N,V_A*%
X36955000Y-69923000D03*
%TD*%
D35*
%TO.P,F7,2*%
%TO.N,Net-(JP22-C)*%
X41527000Y-72463000D03*
%TO.P,F7,1*%
%TO.N,Net-(F7-Pad1)*%
X44321000Y-64081000D03*
%TD*%
%TO.P,F8,2*%
%TO.N,Net-(JP23-C)*%
X24255000Y-72463000D03*
%TO.P,F8,1*%
%TO.N,Net-(F8-Pad1)*%
X27049000Y-64081000D03*
%TD*%
D24*
%TO.P,R24,2*%
%TO.N,GND*%
X265484000Y-107880000D03*
%TO.P,R24,1*%
%TO.N,Net-(U1-RC2)*%
X265484000Y-105880000D03*
%TD*%
D40*
%TO.P,C14,2*%
%TO.N,GND*%
X60198000Y-137181500D03*
%TO.P,C14,1*%
%TO.N,V_A*%
X60198000Y-135106500D03*
%TD*%
D18*
%TO.P,J19,1*%
%TO.N,Net-(JP24-B)*%
X124553000Y-62557000D03*
D19*
%TO.P,J19,2*%
%TO.N,Net-(C7-Pad2)*%
X127093000Y-62557000D03*
%TD*%
D26*
%TO.P,R6,1*%
%TO.N,+5V*%
X227384000Y-113452000D03*
%TO.P,R6,2*%
%TO.N,Net-(U1-RA2)*%
X227384000Y-111452000D03*
%TD*%
D50*
%TO.P,J7,1*%
%TO.N,+5V*%
X277422000Y-130624000D03*
D51*
%TO.P,J7,2*%
%TO.N,Net-(JP5-B)*%
X279962000Y-131894000D03*
%TO.P,J7,3*%
%TO.N,Net-(JP6-B)*%
X277422000Y-133164000D03*
%TO.P,J7,4*%
%TO.N,GND*%
X279962000Y-134434000D03*
%TD*%
D18*
%TO.P,JP2,1,A*%
%TO.N,Net-(D1-K)*%
X229182500Y-129511500D03*
D19*
%TO.P,JP2,2,B*%
%TO.N,+5V*%
X229182500Y-126971500D03*
%TD*%
D26*
%TO.P,R40,1*%
%TO.N,+5V*%
X263961000Y-95831000D03*
D25*
%TO.P,R40,2*%
%TO.N,RB6*%
X263961000Y-93831000D03*
%TD*%
D46*
%TO.P,C11,1*%
%TO.N,V_B*%
X93089000Y-67129000D03*
D45*
%TO.P,C11,2*%
%TO.N,GND*%
X93089000Y-62049000D03*
%TD*%
D26*
%TO.P,R33,2*%
%TO.N,RB2*%
X260659000Y-78591000D03*
D25*
%TO.P,R33,1*%
%TO.N,GND*%
X260659000Y-80591000D03*
%TD*%
D26*
%TO.P,R22,2*%
%TO.N,GND*%
X265484000Y-114532000D03*
%TO.P,R22,1*%
%TO.N,Net-(U1-RC1)*%
X265484000Y-116532000D03*
%TD*%
D53*
%TO.P,U3,1*%
%TO.N,Net-(J26-Pad8)*%
X168588500Y-127857200D03*
%TO.P,U3,2*%
%TO.N,Net-(R62-Pad1)*%
X168588500Y-126587200D03*
%TO.P,U3,3*%
%TO.N,Net-(J26-Pad7)*%
X168588500Y-125317200D03*
%TO.P,U3,4*%
%TO.N,Net-(R49-Pad1)*%
X168588500Y-124047200D03*
%TO.P,U3,5*%
%TO.N,Net-(J26-Pad6)*%
X168588500Y-122777200D03*
%TO.P,U3,6*%
%TO.N,Net-(R61-Pad1)*%
X168588500Y-121507200D03*
%TO.P,U3,7*%
%TO.N,Net-(J26-Pad5)*%
X168588500Y-120237200D03*
%TO.P,U3,8*%
%TO.N,Net-(R50-Pad1)*%
X168588500Y-118967200D03*
%TO.P,U3,9*%
%TO.N,Net-(JP36-C)*%
X161588500Y-118967200D03*
%TO.P,U3,10*%
%TO.N,Net-(R58-Pad1)*%
X161588500Y-120237200D03*
%TO.P,U3,11*%
%TO.N,Net-(JP35-C)*%
X161588500Y-121507200D03*
%TO.P,U3,12*%
%TO.N,Net-(R69-Pad1)*%
X161588500Y-122777200D03*
%TO.P,U3,13*%
%TO.N,Net-(JP34-C)*%
X161588500Y-124047200D03*
%TO.P,U3,14*%
%TO.N,Net-(R57-Pad1)*%
X161588500Y-125317200D03*
%TO.P,U3,15*%
%TO.N,Net-(JP33-C)*%
X161588500Y-126587200D03*
%TO.P,U3,16*%
%TO.N,Net-(R70-Pad1)*%
X161588500Y-127857200D03*
%TD*%
D26*
%TO.P,R29,2*%
%TO.N,RB0*%
X267263000Y-78591000D03*
D25*
%TO.P,R29,1*%
%TO.N,GND*%
X267263000Y-80591000D03*
%TD*%
D18*
%TO.P,J23,1*%
%TO.N,Net-(JP24-A)*%
X122089200Y-28289000D03*
D19*
%TO.P,J23,2*%
%TO.N,Net-(J20-Pad2)*%
X124629200Y-28289000D03*
%TD*%
D24*
%TO.P,R28,1*%
%TO.N,+5V*%
X267263000Y-73765000D03*
%TO.P,R28,2*%
%TO.N,RB0*%
X267263000Y-75765000D03*
%TD*%
D19*
%TO.P,JP42,3,B*%
%TO.N,V_A*%
X122428000Y-137160000D03*
%TO.P,JP42,2,C*%
%TO.N,Net-(JP42-C)*%
X119888000Y-137160000D03*
D18*
%TO.P,JP42,1,A*%
%TO.N,V_B*%
X117348000Y-137160000D03*
%TD*%
D56*
%TO.N,GND*%
X270510000Y-75692000D03*
X252784000Y-94180000D03*
X263198000Y-104340000D03*
X267262000Y-104594000D03*
X237290000Y-103070000D03*
X237290000Y-103070000D03*
X253292000Y-104594000D03*
%TO.N,Net-(JP40-B)*%
X86614000Y-111506000D03*
%TO.N,Net-(JP39-B)*%
X85344000Y-110236000D03*
%TO.N,Net-(JP38-B)*%
X84582000Y-108966000D03*
%TO.N,RB5*%
X255295500Y-96974000D03*
%TO.N,RB6*%
X254054000Y-97228000D03*
%TO.N,RB7*%
X253038000Y-97990000D03*
%TO.N,+5V*%
X244910000Y-93926000D03*
%TO.N,Net-(U1-RA6)*%
X235766000Y-105356000D03*
%TO.N,Net-(U1-RA1)*%
X245858686Y-99322228D03*
%TO.N,Net-(U1-RA2)*%
X246739506Y-99795685D03*
%TO.N,Net-(U1-RA0)*%
X244910000Y-99006000D03*
%TO.N,Net-(U1-RA3)*%
X240846000Y-101292000D03*
%TO.N,Net-(U1-RC0)*%
X244402000Y-104848000D03*
%TO.N,RC4B*%
X260686500Y-119580000D03*
%TO.N,RC3B*%
X261448500Y-118027500D03*
%TO.N,Net-(U1-RC2)*%
X246688000Y-106372000D03*
%TO.N,Net-(U1-RC1)*%
X245418000Y-105610000D03*
%TO.N,Net-(JP10-B)*%
X76579000Y-42745000D03*
%TO.N,Net-(JP24-A)*%
X121537000Y-48333000D03*
%TO.N,RC4*%
X242624000Y-108658000D03*
X235151500Y-115409500D03*
%TO.N,RC6*%
X248466000Y-109166000D03*
%TO.N,RC7*%
X259896000Y-113484000D03*
%TD*%
D57*
%TO.N,RB0*%
X261760458Y-103297200D02*
X250576800Y-103297200D01*
X266509500Y-102044500D02*
X263013158Y-102044500D01*
X266954000Y-101600000D02*
X266509500Y-102044500D01*
X279848500Y-90696096D02*
X271138596Y-99406000D01*
X266954000Y-100076000D02*
X266954000Y-101600000D01*
X263013158Y-102044500D02*
X261760458Y-103297200D01*
X279848500Y-83110878D02*
X279848500Y-90696096D01*
X275328622Y-78591000D02*
X279848500Y-83110878D01*
X267263000Y-78591000D02*
X275328622Y-78591000D01*
X271138596Y-99406000D02*
X267624000Y-99406000D01*
X267624000Y-99406000D02*
X266954000Y-100076000D01*
D58*
%TO.N,Net-(D6-K)*%
X212645000Y-142670000D02*
X214938000Y-142670000D01*
%TO.N,GND*%
X280216000Y-65986000D02*
X285550000Y-65986000D01*
X270510000Y-75692000D02*
X280216000Y-65986000D01*
X230686000Y-106610000D02*
X230686000Y-100260000D01*
%TO.N,V_A*%
X131310000Y-98574000D02*
X131056000Y-98828000D01*
X131310000Y-94256000D02*
X131310000Y-98574000D01*
%TO.N,Net-(JP47-C)*%
X133731000Y-94137000D02*
X133850000Y-94256000D01*
X133731000Y-87503000D02*
X133731000Y-94137000D01*
%TO.N,V_B*%
X136390000Y-87723895D02*
X136390000Y-94256000D01*
X129946105Y-81280000D02*
X136390000Y-87723895D01*
D57*
%TO.N,GND*%
X252784000Y-94180000D02*
X252784000Y-94434000D01*
X252784000Y-93594000D02*
X252784000Y-94180000D01*
X257357000Y-89021000D02*
X252784000Y-93594000D01*
%TO.N,RB7*%
X275264000Y-91132000D02*
X267390000Y-91132000D01*
X267390000Y-91132000D02*
X267263000Y-91005000D01*
X276915000Y-89481000D02*
X275264000Y-91132000D01*
%TO.N,Net-(U1-RA2)*%
X225915500Y-106730768D02*
X225915500Y-107200500D01*
X225974500Y-107200500D02*
X227384000Y-108610000D01*
X223778732Y-104594000D02*
X225915500Y-106730768D01*
X217986000Y-105864000D02*
X219256000Y-104594000D01*
X214838500Y-105864000D02*
X217986000Y-105864000D01*
X225915500Y-107200500D02*
X225974500Y-107200500D01*
X214441500Y-105467000D02*
X214838500Y-105864000D01*
X219256000Y-104594000D02*
X223778732Y-104594000D01*
%TO.N,Net-(U1-RA1)*%
X221796000Y-105356000D02*
X222613500Y-106173500D01*
X222613500Y-106173500D02*
X222613500Y-107141500D01*
X218494000Y-106626000D02*
X219764000Y-105356000D01*
X219764000Y-105356000D02*
X221796000Y-105356000D01*
X212012500Y-106626000D02*
X218494000Y-106626000D01*
X222613500Y-107141500D02*
X224082000Y-108610000D01*
X211901500Y-106737000D02*
X212012500Y-106626000D01*
%TO.N,Net-(U1-RA3)*%
X229162000Y-107388000D02*
X230384000Y-108610000D01*
X229162000Y-106675268D02*
X229162000Y-107388000D01*
X217224000Y-103832000D02*
X226318732Y-103832000D01*
X216970000Y-104086000D02*
X217224000Y-103832000D01*
X226318732Y-103832000D02*
X229162000Y-106675268D01*
X212012500Y-104086000D02*
X216970000Y-104086000D01*
X230384000Y-108610000D02*
X230686000Y-108610000D01*
X211901500Y-104197000D02*
X212012500Y-104086000D01*
%TO.N,Net-(U1-RA5)*%
X226293500Y-99350500D02*
X227384000Y-98260000D01*
X226293500Y-100006000D02*
X226293500Y-99350500D01*
X224468000Y-101831500D02*
X226293500Y-100006000D01*
X217763500Y-101831500D02*
X224468000Y-101831500D01*
X212012500Y-101546000D02*
X217478000Y-101546000D01*
X217478000Y-101546000D02*
X217763500Y-101831500D01*
X211901500Y-101657000D02*
X212012500Y-101546000D01*
%TO.N,Net-(U1-RA6)*%
X222991500Y-99350500D02*
X224082000Y-98260000D01*
X222991500Y-99761232D02*
X222991500Y-99350500D01*
X221502232Y-101250500D02*
X222991500Y-99761232D01*
X220057768Y-101250500D02*
X221502232Y-101250500D01*
X219083268Y-100276000D02*
X220057768Y-101250500D01*
X214552500Y-100276000D02*
X219083268Y-100276000D01*
X214441500Y-100387000D02*
X214552500Y-100276000D01*
%TO.N,Net-(U1-RA7)*%
X220542000Y-98498000D02*
X220780000Y-98260000D01*
X212520500Y-98498000D02*
X220542000Y-98498000D01*
X210112000Y-100906500D02*
X212520500Y-98498000D01*
X210112000Y-108150000D02*
X210112000Y-100906500D01*
X232718000Y-111132732D02*
X231389232Y-112461500D01*
X231389232Y-112461500D02*
X214423500Y-112461500D01*
X214423500Y-112461500D02*
X210112000Y-108150000D01*
X235387000Y-103957000D02*
X232718000Y-106626000D01*
X242608000Y-103957000D02*
X235387000Y-103957000D01*
X232718000Y-106626000D02*
X232718000Y-111132732D01*
D58*
%TO.N,+12V*%
X151946000Y-59128000D02*
X153033000Y-59128000D01*
X150676000Y-57858000D02*
X151946000Y-59128000D01*
X150676000Y-49029000D02*
X150676000Y-57858000D01*
X153255000Y-46450000D02*
X150676000Y-49029000D01*
X153255000Y-41062000D02*
X153287000Y-41094000D01*
X153255000Y-35782000D02*
X153255000Y-41062000D01*
X153255000Y-41126000D02*
X153287000Y-41094000D01*
X153255000Y-46450000D02*
X153255000Y-41126000D01*
D57*
%TO.N,GND*%
X265484000Y-114532000D02*
X268786000Y-114532000D01*
%TO.N,Net-(U1-RC1)*%
X266474500Y-115541500D02*
X265484000Y-116532000D01*
X273024500Y-110515500D02*
X271089768Y-112450232D01*
X271089768Y-112450232D02*
X271089768Y-113940964D01*
X271089768Y-113940964D02*
X269489232Y-115541500D01*
X274708122Y-110515500D02*
X273024500Y-110515500D01*
X276914000Y-108309622D02*
X274708122Y-110515500D01*
X269489232Y-115541500D02*
X266474500Y-115541500D01*
X276914000Y-107896000D02*
X276914000Y-108309622D01*
%TO.N,GND*%
X265484000Y-114532000D02*
X265484000Y-107880000D01*
X263198000Y-105594000D02*
X263198000Y-104340000D01*
X265484000Y-107880000D02*
X263198000Y-105594000D01*
X267262000Y-105945268D02*
X267262000Y-104594000D01*
X268786000Y-107469268D02*
X267262000Y-105945268D01*
X268786000Y-107642000D02*
X268786000Y-107469268D01*
X237527000Y-103307000D02*
X237290000Y-103070000D01*
X242608000Y-103307000D02*
X237527000Y-103307000D01*
X253288800Y-104597200D02*
X253292000Y-104594000D01*
X250576800Y-104597200D02*
X253288800Y-104597200D01*
D58*
%TO.N,Net-(J20-Pad2)*%
X124629200Y-23473000D02*
X127455200Y-20647000D01*
X124629200Y-28289000D02*
X124629200Y-23473000D01*
X124661200Y-28321000D02*
X124629200Y-28289000D01*
X124661200Y-33601000D02*
X124661200Y-28321000D01*
D57*
%TO.N,Net-(JP1-B)*%
X243851000Y-139908000D02*
X244554500Y-139908000D01*
X237818500Y-133875500D02*
X243851000Y-139908000D01*
X237818500Y-133275500D02*
X237818500Y-133875500D01*
%TO.N,Net-(D21-K)*%
X271945977Y-55780740D02*
X272707977Y-56542740D01*
%TO.N,Net-(D16-A)*%
X263208977Y-45948740D02*
X260515977Y-48641740D01*
%TO.N,Net-(D21-A)*%
X269558977Y-40284740D02*
X269558977Y-46263740D01*
X269558977Y-46263740D02*
X271945977Y-48650740D01*
%TO.N,Net-(D20-A)*%
X268288977Y-47279740D02*
X269659977Y-48650740D01*
%TO.N,Net-(D20-K)*%
X269659977Y-56034740D02*
X270167977Y-56542740D01*
%TO.N,Net-(D15-K)*%
X258229977Y-50700740D02*
X258229977Y-55780740D01*
%TO.N,Net-(D20-K)*%
X269659977Y-50700740D02*
X269659977Y-56034740D01*
%TO.N,Net-(D19-A)*%
X267018977Y-40284740D02*
X267018977Y-48295740D01*
%TO.N,Net-(D17-K)*%
X262801977Y-56288740D02*
X262547977Y-56542740D01*
%TO.N,Net-(D16-A)*%
X263208977Y-37744740D02*
X263208977Y-45948740D01*
%TO.N,Net-(D19-A)*%
X267018977Y-48295740D02*
X267373977Y-48650740D01*
%TO.N,Net-(D19-K)*%
X267373977Y-50700740D02*
X267373977Y-56288740D01*
%TO.N,Net-(D18-A)*%
X265748977Y-37744740D02*
X265748977Y-47980740D01*
%TO.N,Net-(D15-A)*%
X261938977Y-44941740D02*
X258229977Y-48650740D01*
%TO.N,Net-(D17-A)*%
X264478977Y-40284740D02*
X264478977Y-46973740D01*
%TO.N,Net-(D18-A)*%
X265748977Y-47980740D02*
X265087977Y-48641740D01*
%TO.N,Net-(D22-A)*%
X270828977Y-37744740D02*
X270828977Y-45247740D01*
X270828977Y-45247740D02*
X274231977Y-48650740D01*
%TO.N,Net-(D18-K)*%
X265087977Y-50691740D02*
X265087977Y-56542740D01*
%TO.N,Net-(D20-A)*%
X268288977Y-37744740D02*
X268288977Y-47279740D01*
%TO.N,Net-(D17-A)*%
X264478977Y-46973740D02*
X262801977Y-48650740D01*
%TO.N,Net-(D17-K)*%
X262801977Y-50700740D02*
X262801977Y-56288740D01*
%TO.N,Net-(D15-K)*%
X258229977Y-55780740D02*
X257467977Y-56542740D01*
%TO.N,Net-(D15-A)*%
X261938977Y-40284740D02*
X261938977Y-44941740D01*
%TO.N,Net-(D19-K)*%
X267373977Y-56288740D02*
X267627977Y-56542740D01*
%TO.N,Net-(D16-K)*%
X260515977Y-56034740D02*
X260007977Y-56542740D01*
%TO.N,Net-(D21-K)*%
X271945977Y-50700740D02*
X271945977Y-55780740D01*
%TO.N,Net-(D16-K)*%
X260515977Y-50691740D02*
X260515977Y-56034740D01*
%TO.N,Net-(D22-K)*%
X274231977Y-55526740D02*
X275247977Y-56542740D01*
X274231977Y-50700740D02*
X274231977Y-55526740D01*
%TO.N,Net-(D21-K)*%
X244894688Y-55890705D02*
X245656688Y-56652705D01*
%TO.N,Net-(D16-A)*%
X236157688Y-46058705D02*
X233464688Y-48751705D01*
%TO.N,Net-(D21-A)*%
X242507688Y-40394705D02*
X242507688Y-46373705D01*
X242507688Y-46373705D02*
X244894688Y-48760705D01*
%TO.N,Net-(D20-A)*%
X241237688Y-47389705D02*
X242608688Y-48760705D01*
%TO.N,Net-(D20-K)*%
X242608688Y-56144705D02*
X243116688Y-56652705D01*
%TO.N,Net-(D15-K)*%
X231178688Y-50810705D02*
X231178688Y-55890705D01*
%TO.N,Net-(D20-K)*%
X242608688Y-50810705D02*
X242608688Y-56144705D01*
%TO.N,Net-(D19-A)*%
X239967688Y-40394705D02*
X239967688Y-48405705D01*
%TO.N,Net-(D17-K)*%
X235750688Y-56398705D02*
X235496688Y-56652705D01*
%TO.N,Net-(D16-A)*%
X236157688Y-37854705D02*
X236157688Y-46058705D01*
%TO.N,Net-(D19-A)*%
X239967688Y-48405705D02*
X240322688Y-48760705D01*
%TO.N,Net-(D19-K)*%
X240322688Y-50810705D02*
X240322688Y-56398705D01*
%TO.N,Net-(D18-A)*%
X238697688Y-37854705D02*
X238697688Y-48090705D01*
%TO.N,Net-(D15-A)*%
X234887688Y-45051705D02*
X231178688Y-48760705D01*
%TO.N,Net-(D17-A)*%
X237427688Y-40394705D02*
X237427688Y-47083705D01*
%TO.N,Net-(D18-A)*%
X238697688Y-48090705D02*
X238036688Y-48751705D01*
%TO.N,Net-(D22-A)*%
X243777688Y-37854705D02*
X243777688Y-45357705D01*
X243777688Y-45357705D02*
X247180688Y-48760705D01*
%TO.N,Net-(D18-K)*%
X238036688Y-50801705D02*
X238036688Y-56652705D01*
%TO.N,Net-(D20-A)*%
X241237688Y-37854705D02*
X241237688Y-47389705D01*
%TO.N,Net-(D17-A)*%
X237427688Y-47083705D02*
X235750688Y-48760705D01*
%TO.N,Net-(D17-K)*%
X235750688Y-50810705D02*
X235750688Y-56398705D01*
%TO.N,Net-(D15-K)*%
X231178688Y-55890705D02*
X230416688Y-56652705D01*
%TO.N,Net-(D15-A)*%
X234887688Y-40394705D02*
X234887688Y-45051705D01*
%TO.N,Net-(D19-K)*%
X240322688Y-56398705D02*
X240576688Y-56652705D01*
%TO.N,Net-(D16-K)*%
X233464688Y-56144705D02*
X232956688Y-56652705D01*
%TO.N,Net-(D21-K)*%
X244894688Y-50810705D02*
X244894688Y-55890705D01*
%TO.N,Net-(D16-K)*%
X233464688Y-50801705D02*
X233464688Y-56144705D01*
%TO.N,Net-(D22-K)*%
X247180688Y-55636705D02*
X248196688Y-56652705D01*
X247180688Y-50810705D02*
X247180688Y-55636705D01*
D58*
%TO.N,Net-(JP49-A)*%
X21336000Y-120429200D02*
X25620800Y-124714000D01*
X21336000Y-112522000D02*
X21336000Y-120429200D01*
X27908000Y-105950000D02*
X21336000Y-112522000D01*
X25620800Y-124714000D02*
X29432700Y-124714000D01*
X43202000Y-105950000D02*
X27908000Y-105950000D01*
X29432700Y-124714000D02*
X32790700Y-128072000D01*
%TO.N,V_A*%
X67310000Y-134620000D02*
X77724000Y-134620000D01*
X77724000Y-134620000D02*
X79502000Y-132842000D01*
X66294000Y-133604000D02*
X67310000Y-134620000D01*
X101616000Y-138908000D02*
X101608000Y-138916000D01*
X101616000Y-133560000D02*
X101616000Y-138908000D01*
X122682000Y-136906000D02*
X122428000Y-137160000D01*
X122682000Y-131826000D02*
X122682000Y-136906000D01*
X142778000Y-132096000D02*
X142778000Y-137176000D01*
X152400000Y-92696000D02*
X152408000Y-92688000D01*
X152400000Y-98044000D02*
X152400000Y-92696000D01*
X110228000Y-99590000D02*
X110228000Y-94496000D01*
X110228000Y-94496000D02*
X110490000Y-94234000D01*
X88638000Y-99590000D02*
X88638000Y-94002000D01*
X90069000Y-98159000D02*
X88638000Y-99590000D01*
X101461000Y-98159000D02*
X90069000Y-98159000D01*
X109335000Y-100483000D02*
X103785000Y-100483000D01*
X103785000Y-100483000D02*
X101461000Y-98159000D01*
X110228000Y-99590000D02*
X109335000Y-100483000D01*
X111659000Y-98159000D02*
X110228000Y-99590000D01*
X122289000Y-98159000D02*
X111659000Y-98159000D01*
X129393000Y-100491000D02*
X124621000Y-100491000D01*
X131056000Y-98828000D02*
X129393000Y-100491000D01*
X124621000Y-100491000D02*
X122289000Y-98159000D01*
X132602000Y-97282000D02*
X131056000Y-98828000D01*
X143417000Y-99475000D02*
X141224000Y-97282000D01*
X141224000Y-97282000D02*
X132602000Y-97282000D01*
X147150740Y-99475000D02*
X143417000Y-99475000D01*
X152408000Y-92688000D02*
X152408000Y-94217740D01*
X152408000Y-94217740D02*
X147150740Y-99475000D01*
D57*
%TO.N,Net-(JP29-C)*%
X133596000Y-99830000D02*
X131302000Y-102124000D01*
D58*
%TO.N,V_A*%
X153954000Y-94234000D02*
X152408000Y-92688000D01*
X163576000Y-101278000D02*
X156532000Y-94234000D01*
X156532000Y-94234000D02*
X153954000Y-94234000D01*
X157638700Y-134019000D02*
X163576000Y-128081700D01*
X163576000Y-128081700D02*
X163576000Y-101278000D01*
X151731000Y-134019000D02*
X157638700Y-134019000D01*
X148352740Y-130640740D02*
X151731000Y-134019000D01*
X144233260Y-130640740D02*
X148352740Y-130640740D01*
X142778000Y-132096000D02*
X144233260Y-130640740D01*
X141270000Y-133604000D02*
X142778000Y-132096000D01*
X129565000Y-130649000D02*
X132520000Y-133604000D01*
X123444000Y-131826000D02*
X124621000Y-130649000D01*
X132520000Y-133604000D02*
X141270000Y-133604000D01*
X122682000Y-131826000D02*
X123444000Y-131826000D01*
X124621000Y-130649000D02*
X129565000Y-130649000D01*
X121158000Y-133350000D02*
X122682000Y-131826000D01*
X109930000Y-133350000D02*
X121158000Y-133350000D01*
X103541000Y-131635000D02*
X108215000Y-131635000D01*
X108215000Y-131635000D02*
X109930000Y-133350000D01*
X101616000Y-133560000D02*
X103541000Y-131635000D01*
X100185000Y-134991000D02*
X101616000Y-133560000D01*
X90541000Y-134991000D02*
X100185000Y-134991000D01*
X87542000Y-131992000D02*
X90541000Y-134991000D01*
X80352000Y-131992000D02*
X87542000Y-131992000D01*
X79502000Y-132842000D02*
X80352000Y-131992000D01*
X79502000Y-132842000D02*
X79502000Y-138176000D01*
%TO.N,V_B*%
X74422000Y-143916105D02*
X74422000Y-138176000D01*
X79041895Y-148536000D02*
X74422000Y-143916105D01*
X100945895Y-148536000D02*
X79041895Y-148536000D01*
X100945895Y-148536000D02*
X96528000Y-144118105D01*
X96528000Y-144118105D02*
X96528000Y-138916000D01*
X121713895Y-148536000D02*
X100945895Y-148536000D01*
X117348000Y-144170105D02*
X117348000Y-137160000D01*
X121713895Y-148536000D02*
X117348000Y-144170105D01*
X142033895Y-148536000D02*
X121713895Y-148536000D01*
X137698000Y-144200105D02*
X137698000Y-137176000D01*
X182725500Y-102711534D02*
X182725500Y-125122500D01*
X142033895Y-148536000D02*
X137698000Y-144200105D01*
X161293966Y-81280000D02*
X182725500Y-102711534D01*
X159312000Y-148536000D02*
X142033895Y-148536000D01*
X150774105Y-81280000D02*
X161293966Y-81280000D01*
X182725500Y-125122500D02*
X159312000Y-148536000D01*
X157488000Y-87993895D02*
X157488000Y-92688000D01*
X150774105Y-81280000D02*
X157488000Y-87993895D01*
X129946105Y-81280000D02*
X150774105Y-81280000D01*
X109880105Y-81280000D02*
X129946105Y-81280000D01*
X109880105Y-81280000D02*
X115570000Y-86969895D01*
X115570000Y-86969895D02*
X115570000Y-94234000D01*
X87376000Y-81280000D02*
X109880105Y-81280000D01*
X93718000Y-87622000D02*
X93718000Y-94002000D01*
X87376000Y-81280000D02*
X93718000Y-87622000D01*
X83413895Y-81280000D02*
X87376000Y-81280000D01*
X73987000Y-90706895D02*
X83413895Y-81280000D01*
X73987000Y-96193000D02*
X73987000Y-90706895D01*
X70866000Y-99314000D02*
X73987000Y-96193000D01*
D57*
%TO.N,Net-(JP40-B)*%
X76454000Y-121666000D02*
X26427500Y-121666000D01*
X86614000Y-111506000D02*
X76454000Y-121666000D01*
%TO.N,Net-(JP39-B)*%
X38608000Y-120396000D02*
X23887500Y-120396000D01*
X38608000Y-120396000D02*
X75184000Y-120396000D01*
X38100000Y-120396000D02*
X38608000Y-120396000D01*
%TO.N,Net-(JP38-B)*%
X74422000Y-119126000D02*
X26427500Y-119126000D01*
X84582000Y-108966000D02*
X74422000Y-119126000D01*
%TO.N,Net-(JP37-B)*%
X67056000Y-117856000D02*
X23887500Y-117856000D01*
X79248000Y-105664000D02*
X67056000Y-117856000D01*
D58*
%TO.N,V_A*%
X60198000Y-135106500D02*
X59668500Y-135106500D01*
X59668500Y-135106500D02*
X54102000Y-129540000D01*
X61700500Y-133604000D02*
X60198000Y-135106500D01*
X66294000Y-133604000D02*
X61700500Y-133604000D01*
%TO.N,GND*%
X59298500Y-137181500D02*
X54284000Y-142196000D01*
X60198000Y-137181500D02*
X59298500Y-137181500D01*
X61700500Y-138684000D02*
X60198000Y-137181500D01*
X66294000Y-138684000D02*
X61700500Y-138684000D01*
%TO.N,Net-(C12-Pad2)*%
X46156000Y-144965900D02*
X46156000Y-142196000D01*
X40878900Y-150243000D02*
X46156000Y-144965900D01*
X31417400Y-150243000D02*
X40878900Y-150243000D01*
X28175700Y-145852000D02*
X28175700Y-147001300D01*
X28175700Y-147001300D02*
X31417400Y-150243000D01*
X30715700Y-132841400D02*
X30647100Y-132910000D01*
X30715700Y-128072000D02*
X30715700Y-132841400D01*
X30647100Y-137716000D02*
X30583100Y-137780000D01*
X30647100Y-132910000D02*
X30647100Y-137716000D01*
X28175700Y-140187400D02*
X30583100Y-137780000D01*
X28175700Y-145852000D02*
X28175700Y-140187400D01*
%TO.N,Net-(JP49-A)*%
X33123100Y-138023200D02*
X35173400Y-140073500D01*
X33123100Y-137780000D02*
X33123100Y-138023200D01*
X35173400Y-140073500D02*
X35173400Y-145852000D01*
X33187100Y-137716000D02*
X33123100Y-137780000D01*
X33187100Y-132910000D02*
X33187100Y-137716000D01*
X32790700Y-128072000D02*
X32790700Y-132513600D01*
X32790700Y-132513600D02*
X33187100Y-132910000D01*
X34258700Y-129540000D02*
X32790700Y-128072000D01*
X45974000Y-129540000D02*
X34258700Y-129540000D01*
%TO.N,GND*%
X68855500Y-96244500D02*
X70866000Y-94234000D01*
X64516000Y-96244500D02*
X68855500Y-96244500D01*
X63692500Y-96244500D02*
X64516000Y-96244500D01*
X58070000Y-90622000D02*
X63692500Y-96244500D01*
%TO.N,V_B*%
X62344500Y-98319500D02*
X58070000Y-102594000D01*
X64516000Y-98319500D02*
X62344500Y-98319500D01*
X65510500Y-99314000D02*
X64516000Y-98319500D01*
X70866000Y-99314000D02*
X65510500Y-99314000D01*
%TO.N,Net-(C13-Pad2)*%
X49942000Y-86177001D02*
X49942000Y-90622000D01*
X45552999Y-81788000D02*
X49942000Y-86177001D01*
X32766000Y-82042000D02*
X33020000Y-81788000D01*
X33020000Y-81788000D02*
X45552999Y-81788000D01*
X32766000Y-86614000D02*
X32766000Y-82042000D01*
X35718000Y-103365000D02*
X36183000Y-103830000D01*
X35718000Y-99766000D02*
X35718000Y-103365000D01*
X35750000Y-99734000D02*
X35718000Y-99766000D01*
X35750000Y-95934000D02*
X35750000Y-99734000D01*
X32766000Y-92950000D02*
X35750000Y-95934000D01*
X32766000Y-86614000D02*
X32766000Y-92950000D01*
%TO.N,Net-(JP49-B)*%
X43202000Y-103410000D02*
X49126000Y-103410000D01*
X49126000Y-103410000D02*
X49942000Y-102594000D01*
X38258000Y-103830000D02*
X42782000Y-103830000D01*
X42782000Y-103830000D02*
X43202000Y-103410000D01*
X38258000Y-99766000D02*
X38258000Y-103830000D01*
X38290000Y-99734000D02*
X38258000Y-99766000D01*
X38290000Y-95934000D02*
X38290000Y-99734000D01*
X39763700Y-94460300D02*
X38290000Y-95934000D01*
X39763700Y-86614000D02*
X39763700Y-94460300D01*
D57*
%TO.N,Net-(JP39-B)*%
X75184000Y-120396000D02*
X85344000Y-110236000D01*
%TO.N,Net-(JP31-C)*%
X102864000Y-129772000D02*
X99076000Y-133560000D01*
X104418000Y-129772000D02*
X102864000Y-129772000D01*
%TO.N,Net-(JP35-C)*%
X103616500Y-128762500D02*
X102370000Y-127516000D01*
X110744500Y-128762500D02*
X103616500Y-128762500D01*
X102370000Y-127516000D02*
X102370000Y-125708000D01*
X110984000Y-129002000D02*
X110744500Y-128762500D01*
D58*
%TO.N,Net-(F11-Pad1)*%
X105410000Y-136652000D02*
X106456000Y-135606000D01*
X105410000Y-144253396D02*
X105410000Y-136652000D01*
X106456000Y-135606000D02*
X106920000Y-135606000D01*
X105498200Y-144341596D02*
X105410000Y-144253396D01*
X105498200Y-145062200D02*
X105498200Y-144341596D01*
X107204000Y-146768000D02*
X105498200Y-145062200D01*
%TO.N,Net-(JP43-C)*%
X99068000Y-143728000D02*
X98822000Y-143974000D01*
X99068000Y-138916000D02*
X99068000Y-143728000D01*
%TO.N,Net-(F12-Pad1)*%
X83566000Y-137160000D02*
X84336000Y-136390000D01*
X84336000Y-136390000D02*
X85068000Y-136390000D01*
X83638200Y-144385596D02*
X83566000Y-144313396D01*
X83566000Y-144313396D02*
X83566000Y-137160000D01*
X85344000Y-146812000D02*
X83638200Y-145106200D01*
X83638200Y-145106200D02*
X83638200Y-144385596D01*
%TO.N,Net-(JP44-C)*%
X76962000Y-138176000D02*
X76962000Y-144018000D01*
D57*
%TO.N,Net-(JP28-C)*%
X84985000Y-130675000D02*
X79129000Y-130675000D01*
X79129000Y-130675000D02*
X76962000Y-132842000D01*
D59*
%TO.N,Net-(JP36-C)*%
X90380000Y-129750000D02*
X91186000Y-130556000D01*
X82937000Y-128397100D02*
X84289900Y-129750000D01*
X84289900Y-129750000D02*
X90380000Y-129750000D01*
X82937000Y-126881000D02*
X82937000Y-128397100D01*
%TO.N,Net-(R58-Pad1)*%
X161588500Y-120237200D02*
X93422800Y-120237200D01*
X93422800Y-120237200D02*
X92479000Y-121181000D01*
X84985000Y-128675000D02*
X92479000Y-121181000D01*
%TO.N,Net-(JP36-C)*%
X90850800Y-118967200D02*
X161588500Y-118967200D01*
X82937000Y-126881000D02*
X90850800Y-118967200D01*
%TO.N,Net-(JP35-C)*%
X161551300Y-121470000D02*
X161588500Y-121507200D01*
X106608000Y-121470000D02*
X161551300Y-121470000D01*
X102370000Y-125708000D02*
X106608000Y-121470000D01*
%TO.N,Net-(JP34-C)*%
X126008000Y-122874000D02*
X159450000Y-122874000D01*
X159450000Y-122874000D02*
X160623200Y-124047200D01*
X160623200Y-124047200D02*
X161588500Y-124047200D01*
X124803000Y-124079000D02*
X126008000Y-122874000D01*
%TO.N,Net-(R57-Pad1)*%
X160877200Y-125317200D02*
X161588500Y-125317200D01*
X129146000Y-123578000D02*
X159138000Y-123578000D01*
X159138000Y-123578000D02*
X160877200Y-125317200D01*
X126597000Y-126127000D02*
X129146000Y-123578000D01*
%TO.N,Net-(R69-Pad1)*%
X159647696Y-121920000D02*
X110270000Y-121920000D01*
X160504896Y-122777200D02*
X159647696Y-121920000D01*
X110270000Y-121920000D02*
X104418000Y-127772000D01*
X161588500Y-122777200D02*
X160504896Y-122777200D01*
D58*
%TO.N,Net-(F10-Pad1)*%
X126183200Y-144979200D02*
X127889000Y-146685000D01*
X126183200Y-135690800D02*
X126183200Y-144979200D01*
X127254000Y-134620000D02*
X126183200Y-135690800D01*
X128270000Y-134620000D02*
X127254000Y-134620000D01*
%TO.N,Net-(JP42-C)*%
X119888000Y-143510000D02*
X119507000Y-143891000D01*
X119888000Y-137160000D02*
X119888000Y-143510000D01*
D57*
%TO.N,Net-(JP27-C)*%
X123841000Y-128127000D02*
X120142000Y-131826000D01*
X126597000Y-128127000D02*
X123841000Y-128127000D01*
%TO.N,Net-(JP34-C)*%
X124803000Y-126045732D02*
X124803000Y-124079000D01*
X125874768Y-127117500D02*
X124803000Y-126045732D01*
X131435500Y-127117500D02*
X125874768Y-127117500D01*
X132588000Y-128270000D02*
X131435500Y-127117500D01*
D59*
%TO.N,Net-(JP33-C)*%
X146773900Y-127846000D02*
X150960000Y-127846000D01*
X145405000Y-126477100D02*
X146773900Y-127846000D01*
X145405000Y-124873000D02*
X145405000Y-126477100D01*
X150960000Y-127846000D02*
X153162000Y-130048000D01*
D58*
%TO.N,Net-(JP32-C)*%
X143413000Y-128921000D02*
X140238000Y-132096000D01*
X147469000Y-128921000D02*
X143413000Y-128921000D01*
%TO.N,Net-(F9-Pad1)*%
X145542000Y-142401554D02*
X145542000Y-137160000D01*
X146804000Y-135898000D02*
X147596000Y-135898000D01*
X148336000Y-145195554D02*
X145542000Y-142401554D01*
X148336000Y-146812000D02*
X148336000Y-145195554D01*
X145542000Y-137160000D02*
X146804000Y-135898000D01*
%TO.N,Net-(JP41-C)*%
X139954000Y-137460000D02*
X140238000Y-137176000D01*
X139954000Y-144018000D02*
X139954000Y-137460000D01*
D59*
%TO.N,Net-(R70-Pad1)*%
X150152000Y-124968000D02*
X148199000Y-126921000D01*
X158249300Y-124968000D02*
X150152000Y-124968000D01*
X161138500Y-127857200D02*
X158249300Y-124968000D01*
X148199000Y-126921000D02*
X147469000Y-126921000D01*
X161588500Y-127857200D02*
X161138500Y-127857200D01*
%TO.N,Net-(JP33-C)*%
X145929000Y-124349000D02*
X145405000Y-124873000D01*
X158900300Y-124349000D02*
X145929000Y-124349000D01*
%TO.N,Net-(R57-Pad1)*%
X161588500Y-125317200D02*
X161138500Y-125317200D01*
D58*
%TO.N,Net-(F13-Pad1)*%
X85344000Y-95504000D02*
X84066000Y-96782000D01*
X85344000Y-89916000D02*
X85344000Y-95504000D01*
X82550000Y-87122000D02*
X85344000Y-89916000D01*
X84066000Y-96782000D02*
X83334000Y-96782000D01*
X82550000Y-84582000D02*
X82550000Y-87122000D01*
%TO.N,Net-(JP45-C)*%
X91178000Y-87622000D02*
X90932000Y-87376000D01*
X91178000Y-94002000D02*
X91178000Y-87622000D01*
%TO.N,Net-(JP30-C)*%
X88382000Y-102386000D02*
X91178000Y-99590000D01*
X85067000Y-102386000D02*
X88382000Y-102386000D01*
D57*
%TO.N,Net-(JP37-A)*%
X80510000Y-99322000D02*
X79248000Y-100584000D01*
X83334000Y-99322000D02*
X80510000Y-99322000D01*
D59*
%TO.N,Net-(JP37-C)*%
X79502000Y-103378000D02*
X79248000Y-103124000D01*
X85679100Y-103378000D02*
X79502000Y-103378000D01*
X87243000Y-104941900D02*
X85679100Y-103378000D01*
X87243000Y-106418000D02*
X87243000Y-104941900D01*
D57*
%TO.N,Net-(JP38-C)*%
X109252000Y-104983268D02*
X109252000Y-107188000D01*
X107910232Y-103641500D02*
X109252000Y-104983268D01*
X101863500Y-103641500D02*
X107910232Y-103641500D01*
X101092000Y-102870000D02*
X101863500Y-103641500D01*
D58*
%TO.N,Net-(F14-Pad1)*%
X106934000Y-94712000D02*
X105134000Y-96512000D01*
X106934000Y-87080604D02*
X106934000Y-94712000D01*
X106861800Y-87008404D02*
X106934000Y-87080604D01*
X105156000Y-84582000D02*
X106861800Y-86287800D01*
X106861800Y-86287800D02*
X106861800Y-87008404D01*
%TO.N,Net-(JP46-C)*%
X113030000Y-87884000D02*
X113538000Y-87376000D01*
X113030000Y-94234000D02*
X113030000Y-87884000D01*
%TO.N,Net-(JP26-C)*%
X109726000Y-102632000D02*
X107188000Y-102632000D01*
X112768000Y-99590000D02*
X109726000Y-102632000D01*
%TO.N,Net-(F15-Pad1)*%
X124460000Y-96520000D02*
X125730000Y-96520000D01*
X123190000Y-95250000D02*
X124460000Y-96520000D01*
X125349000Y-84709000D02*
X123190000Y-86868000D01*
X123190000Y-86868000D02*
X123190000Y-95250000D01*
%TO.N,Net-(JP47-C)*%
X133604000Y-87630000D02*
X133731000Y-87503000D01*
D59*
%TO.N,Net-(JP39-C)*%
X127882100Y-103132000D02*
X121688000Y-103132000D01*
X128794000Y-104043900D02*
X127882100Y-103132000D01*
X128794000Y-106172000D02*
X128794000Y-104043900D01*
D57*
%TO.N,Net-(JP29-C)*%
X133596000Y-98828000D02*
X133596000Y-99830000D01*
X131302000Y-102124000D02*
X127254000Y-102124000D01*
D58*
%TO.N,Net-(JP25-C)*%
X150876000Y-102108000D02*
X147425000Y-102108000D01*
X154940000Y-98044000D02*
X150876000Y-102108000D01*
%TO.N,Net-(JP48-C)*%
X154948000Y-87892000D02*
X154940000Y-87884000D01*
X154948000Y-92688000D02*
X154948000Y-87892000D01*
%TO.N,Net-(F16-Pad1)*%
X147989000Y-88137446D02*
X147989000Y-94073000D01*
X146558000Y-86706446D02*
X147989000Y-88137446D01*
X146558000Y-85090000D02*
X146558000Y-86706446D01*
X147989000Y-94073000D02*
X146558000Y-95504000D01*
D59*
%TO.N,Net-(JP40-C)*%
X142000000Y-103124000D02*
X141754000Y-102878000D01*
X148061100Y-103124000D02*
X142000000Y-103124000D01*
X149511000Y-106434000D02*
X149511000Y-104573900D01*
X149511000Y-104573900D02*
X148061100Y-103124000D01*
X149733000Y-106212000D02*
X149511000Y-106434000D01*
%TO.N,Net-(R67-Pad1)*%
X85067000Y-107165000D02*
X85067000Y-104386000D01*
X93218000Y-115316000D02*
X85067000Y-107165000D01*
X162096500Y-115316000D02*
X93218000Y-115316000D01*
%TO.N,Net-(JP37-C)*%
X94871000Y-114046000D02*
X87243000Y-106418000D01*
X162096500Y-114046000D02*
X94871000Y-114046000D01*
%TO.N,Net-(R56-Pad1)*%
X107188000Y-106744100D02*
X107188000Y-104632000D01*
X113219900Y-112776000D02*
X107188000Y-106744100D01*
X162096500Y-112776000D02*
X113219900Y-112776000D01*
%TO.N,Net-(JP38-C)*%
X113570000Y-111506000D02*
X109252000Y-107188000D01*
X162096500Y-111506000D02*
X113570000Y-111506000D01*
%TO.N,Net-(R65-Pad1)*%
X131237900Y-110236000D02*
X127254000Y-106252100D01*
X127254000Y-106252100D02*
X127254000Y-104124000D01*
X162096500Y-110236000D02*
X131237900Y-110236000D01*
%TO.N,Net-(JP39-C)*%
X131588000Y-108966000D02*
X128794000Y-106172000D01*
X162096500Y-108966000D02*
X131588000Y-108966000D01*
%TO.N,Net-(R52-Pad1)*%
X147425000Y-105968100D02*
X147425000Y-104108000D01*
X149152900Y-107696000D02*
X147425000Y-105968100D01*
X162096500Y-107696000D02*
X149152900Y-107696000D01*
%TO.N,Net-(JP40-C)*%
X150789000Y-105156000D02*
X149511000Y-106434000D01*
X160826500Y-105156000D02*
X150789000Y-105156000D01*
X162096500Y-106426000D02*
X160826500Y-105156000D01*
%TO.N,Net-(R58-Pad1)*%
X161588500Y-120237200D02*
X161429700Y-120396000D01*
%TO.N,Net-(JP33-C)*%
X161138500Y-126587200D02*
X158900300Y-124349000D01*
X161588500Y-126587200D02*
X161138500Y-126587200D01*
%TO.N,Net-(R70-Pad1)*%
X147866000Y-127318000D02*
X147469000Y-126921000D01*
%TO.N,Net-(J26-Pad8)*%
X181344500Y-125095000D02*
X181344500Y-121031000D01*
X176518500Y-129921000D02*
X181344500Y-125095000D01*
X168588500Y-127857200D02*
X170652300Y-129921000D01*
X170652300Y-129921000D02*
X176518500Y-129921000D01*
%TO.N,Net-(J26-Pad7)*%
X178804500Y-123825000D02*
X178804500Y-119761000D01*
X173145400Y-126215200D02*
X176414300Y-126215200D01*
X172247400Y-125317200D02*
X173145400Y-126215200D01*
X176414300Y-126215200D02*
X178804500Y-123825000D01*
X168588500Y-125317200D02*
X172247400Y-125317200D01*
%TO.N,Net-(J26-Pad6)*%
X177517600Y-118491000D02*
X181344500Y-118491000D01*
X174815500Y-121193100D02*
X177517600Y-118491000D01*
X174815500Y-122480000D02*
X174815500Y-121193100D01*
X168724500Y-122913200D02*
X174382300Y-122913200D01*
X174382300Y-122913200D02*
X174815500Y-122480000D01*
X168588500Y-122777200D02*
X168724500Y-122913200D01*
%TO.N,Net-(J26-Pad5)*%
X175485600Y-117221000D02*
X178804500Y-117221000D01*
X174815500Y-117891100D02*
X175485600Y-117221000D01*
X173859600Y-120237200D02*
X174815500Y-119281300D01*
X168588500Y-120237200D02*
X173859600Y-120237200D01*
X174815500Y-119281300D02*
X174815500Y-117891100D01*
%TO.N,Net-(J26-Pad4)*%
X178483509Y-115951000D02*
X181344500Y-115951000D01*
X178093509Y-116341000D02*
X178483509Y-115951000D01*
X170121500Y-116341000D02*
X178093509Y-116341000D01*
X169096500Y-115316000D02*
X170121500Y-116341000D01*
%TO.N,Net-(J26-Pad3)*%
X169477500Y-113157000D02*
X175756500Y-113157000D01*
X177280500Y-114681000D02*
X178804500Y-114681000D01*
X169096500Y-112776000D02*
X169477500Y-113157000D01*
X175756500Y-113157000D02*
X177280500Y-114681000D01*
%TO.N,Net-(J26-Pad2)*%
X177026500Y-112649000D02*
X177788500Y-113411000D01*
X176137500Y-110236000D02*
X177026500Y-111125000D01*
X169096500Y-110236000D02*
X176137500Y-110236000D01*
X177026500Y-111125000D02*
X177026500Y-112649000D01*
X177788500Y-113411000D02*
X181344500Y-113411000D01*
%TO.N,Net-(J26-Pad1)*%
X178804500Y-110109000D02*
X178804500Y-112141000D01*
X176382500Y-107687000D02*
X178804500Y-110109000D01*
X169105500Y-107687000D02*
X176382500Y-107687000D01*
X169096500Y-107696000D02*
X169105500Y-107687000D01*
%TO.N,Net-(R62-Pad1)*%
X171835500Y-126587200D02*
X168588500Y-126587200D01*
X173740500Y-128492200D02*
X171835500Y-126587200D01*
%TO.N,Net-(R49-Pad1)*%
X172597500Y-124047200D02*
X168588500Y-124047200D01*
X173740500Y-125190200D02*
X172597500Y-124047200D01*
%TO.N,Net-(R61-Pad1)*%
X168715500Y-121634200D02*
X168588500Y-121507200D01*
X173486500Y-121634200D02*
X168715500Y-121634200D01*
X173740500Y-121888200D02*
X173486500Y-121634200D01*
%TO.N,Net-(R50-Pad1)*%
X168969500Y-118586200D02*
X168588500Y-118967200D01*
X173740500Y-118586200D02*
X168969500Y-118586200D01*
%TO.N,Net-(R60-Pad1)*%
X172414500Y-114046000D02*
X169096500Y-114046000D01*
X173684500Y-115316000D02*
X172414500Y-114046000D01*
%TO.N,Net-(R48-Pad1)*%
X173684500Y-112014000D02*
X173176500Y-111506000D01*
X173176500Y-111506000D02*
X169096500Y-111506000D01*
%TO.N,Net-(R59-Pad1)*%
X169350500Y-108712000D02*
X169096500Y-108966000D01*
X173684500Y-108712000D02*
X169350500Y-108712000D01*
%TO.N,Net-(R47-Pad1)*%
X170112500Y-105410000D02*
X169096500Y-106426000D01*
X173684500Y-105410000D02*
X170112500Y-105410000D01*
%TO.N,Net-(Q1-G)*%
X180156000Y-74384000D02*
X180394000Y-74622000D01*
X174877000Y-74384000D02*
X180156000Y-74384000D01*
%TO.N,Net-(Q6-G)*%
X173115000Y-43142000D02*
X173353000Y-43380000D01*
X167511000Y-43142000D02*
X173115000Y-43142000D01*
%TO.N,Net-(Q5-G)*%
X185037000Y-44142000D02*
X180465000Y-48714000D01*
X185037000Y-44126000D02*
X185037000Y-44142000D01*
%TO.N,Net-(Q4-G)*%
X170067000Y-52286000D02*
X173353000Y-55572000D01*
X167511000Y-52286000D02*
X170067000Y-52286000D01*
%TO.N,Net-(Q2-G)*%
X171559000Y-67764000D02*
X165987000Y-62192000D01*
X173282000Y-67764000D02*
X171559000Y-67764000D01*
%TO.N,Net-(Q3-G)*%
X180394000Y-63247000D02*
X179179000Y-64462000D01*
X180394000Y-60398000D02*
X180394000Y-63247000D01*
%TO.N,Net-(Q6-G)*%
X180592000Y-53413000D02*
X185292500Y-53413000D01*
X173353000Y-46174000D02*
X180592000Y-53413000D01*
X173353000Y-43380000D02*
X173353000Y-46174000D01*
%TO.N,Net-(J43-Pin_2)*%
X157351000Y-56588000D02*
X153033000Y-56588000D01*
X159004000Y-60527000D02*
X159004000Y-58241000D01*
X170559000Y-72082000D02*
X159004000Y-60527000D01*
X180394000Y-72082000D02*
X170559000Y-72082000D01*
X159004000Y-58241000D02*
X157351000Y-56588000D01*
%TO.N,Net-(J42-Pin_2)*%
X172083000Y-53032000D02*
X173353000Y-53032000D01*
X165501000Y-46450000D02*
X172083000Y-53032000D01*
X155795000Y-46450000D02*
X165501000Y-46450000D01*
%TO.N,Net-(J44-Pin_2)*%
X177925000Y-43634000D02*
X180465000Y-46174000D01*
X177925000Y-39316000D02*
X177925000Y-43634000D01*
X174391000Y-35782000D02*
X177925000Y-39316000D01*
X155795000Y-35782000D02*
X174391000Y-35782000D01*
%TO.N,Net-(J45-Pin_2)*%
X173099000Y-41094000D02*
X173353000Y-40840000D01*
X155827000Y-41094000D02*
X173099000Y-41094000D01*
%TO.N,Net-(J43-Pin_4)*%
X162205698Y-51508000D02*
X153033000Y-51508000D01*
X168555698Y-57858000D02*
X162205698Y-51508000D01*
X180394000Y-57858000D02*
X168555698Y-57858000D01*
%TO.N,Net-(Q5-G)*%
X189863000Y-52652500D02*
X187832500Y-54683000D01*
X189863000Y-51254000D02*
X189863000Y-52652500D01*
X180465000Y-48714000D02*
X187323000Y-48714000D01*
X187323000Y-48714000D02*
X189863000Y-51254000D01*
%TO.N,Net-(Q4-G)*%
X174884500Y-54040500D02*
X183380000Y-54040500D01*
X173353000Y-55572000D02*
X174884500Y-54040500D01*
X183380000Y-54040500D02*
X185292500Y-55953000D01*
%TO.N,Net-(J43-Pin_3)*%
X162106000Y-54048000D02*
X153033000Y-54048000D01*
X173282000Y-65224000D02*
X162106000Y-54048000D01*
%TO.N,Net-(Q3-G)*%
X183569000Y-57223000D02*
X187832500Y-57223000D01*
X180394000Y-60398000D02*
X183569000Y-57223000D01*
%TO.N,Net-(Q2-G)*%
X185292500Y-61412500D02*
X185292500Y-58493000D01*
X178941000Y-67764000D02*
X185292500Y-61412500D01*
X173282000Y-67764000D02*
X178941000Y-67764000D01*
%TO.N,Net-(Q1-G)*%
X187832500Y-67231000D02*
X187832500Y-59763000D01*
X180441500Y-74622000D02*
X187832500Y-67231000D01*
X180394000Y-74622000D02*
X180441500Y-74622000D01*
D58*
%TO.N,V_A*%
X102487000Y-37411000D02*
X102487000Y-36670500D01*
X36955000Y-69923000D02*
X41060396Y-69923000D01*
X71142800Y-70757200D02*
X71985000Y-69915000D01*
X36120800Y-70757200D02*
X36955000Y-69923000D01*
%TO.N,V_B*%
X71985000Y-74995000D02*
X54459000Y-74995000D01*
X27824404Y-24130800D02*
X28523604Y-24830000D01*
X44894604Y-24703000D02*
X53399000Y-24703000D01*
%TO.N,V_A*%
X24622596Y-70757200D02*
X36120800Y-70757200D01*
%TO.N,V_B*%
X60546404Y-23749800D02*
X61499604Y-24703000D01*
X104519000Y-70939000D02*
X99439000Y-65859000D01*
%TO.N,V_A*%
X10539000Y-61033000D02*
X19429000Y-69923000D01*
%TO.N,V_B*%
X36921000Y-24830000D02*
X37747200Y-24003800D01*
X93089000Y-67129000D02*
X85223000Y-74995000D01*
X54470396Y-24703000D02*
X55423596Y-23749800D01*
%TO.N,V_A*%
X54459000Y-69915000D02*
X58578396Y-69915000D01*
%TO.N,V_B*%
X53399000Y-24703000D02*
X54470396Y-24703000D01*
%TO.N,V_A*%
X20699000Y-19631000D02*
X10539000Y-29791000D01*
X93067500Y-31844500D02*
X91565000Y-33347000D01*
%TO.N,V_B*%
X94359000Y-65859000D02*
X93089000Y-67129000D01*
X104519000Y-71193000D02*
X104519000Y-70939000D01*
%TO.N,V_A*%
X53616800Y-70757200D02*
X54459000Y-69915000D01*
%TO.N,V_B*%
X61499604Y-24703000D02*
X69953000Y-24703000D01*
%TO.N,V_A*%
X102487000Y-36670500D02*
X97661000Y-31844500D01*
%TO.N,V_B*%
X85223000Y-74995000D02*
X71985000Y-74995000D01*
%TO.N,V_A*%
X20699000Y-19631000D02*
X36802000Y-19631000D01*
%TO.N,V_B*%
X28523604Y-24830000D02*
X36921000Y-24830000D01*
%TO.N,V_A*%
X69953000Y-19623000D02*
X53399000Y-19623000D01*
%TO.N,V_B*%
X21279200Y-24130800D02*
X27824404Y-24130800D01*
X54459000Y-74995000D02*
X36963000Y-74995000D01*
%TO.N,V_A*%
X19429000Y-69923000D02*
X23788396Y-69923000D01*
%TO.N,V_B*%
X36963000Y-74995000D02*
X36955000Y-75003000D01*
%TO.N,V_A*%
X37048000Y-19623000D02*
X36921000Y-19750000D01*
X97661000Y-31844500D02*
X93067500Y-31844500D01*
%TO.N,V_B*%
X44195404Y-24003800D02*
X44894604Y-24703000D01*
%TO.N,V_A*%
X91565000Y-33347000D02*
X77841000Y-19623000D01*
X23788396Y-69923000D02*
X24622596Y-70757200D01*
X10539000Y-29791000D02*
X10539000Y-61033000D01*
%TO.N,V_B*%
X99439000Y-65859000D02*
X94359000Y-65859000D01*
%TO.N,V_A*%
X59420596Y-70757200D02*
X71142800Y-70757200D01*
X41060396Y-69923000D02*
X41894596Y-70757200D01*
X58578396Y-69915000D02*
X59420596Y-70757200D01*
X53399000Y-19623000D02*
X37048000Y-19623000D01*
X77841000Y-19623000D02*
X69953000Y-19623000D01*
X41894596Y-70757200D02*
X53616800Y-70757200D01*
X36802000Y-19631000D02*
X36921000Y-19750000D01*
%TO.N,V_B*%
X37747200Y-24003800D02*
X44195404Y-24003800D01*
X36955000Y-75003000D02*
X19429000Y-75003000D01*
X55423596Y-23749800D02*
X60546404Y-23749800D01*
X20699000Y-24711000D02*
X21279200Y-24130800D01*
D57*
%TO.N,Net-(D3-A)*%
X238034000Y-93400000D02*
X238814000Y-93400000D01*
X234616750Y-90370000D02*
X235004000Y-90370000D01*
X235004000Y-90370000D02*
X238034000Y-93400000D01*
X234616750Y-87819500D02*
X234616750Y-90370000D01*
D58*
%TO.N,GND*%
X216208000Y-136598000D02*
X216208000Y-132534000D01*
X215414000Y-146028000D02*
X216938000Y-144504000D01*
X93067500Y-29769500D02*
X91565000Y-28267000D01*
X97661000Y-29769500D02*
X93067500Y-29769500D01*
X216938000Y-142670000D02*
X216938000Y-137328000D01*
X97661000Y-29769500D02*
X97661000Y-29283000D01*
X215414000Y-148812000D02*
X215414000Y-146028000D01*
X214684000Y-126438000D02*
X214684000Y-131010000D01*
X97661000Y-29283000D02*
X102741000Y-24203000D01*
X216938000Y-137328000D02*
X216208000Y-136598000D01*
X216208000Y-132534000D02*
X214684000Y-131010000D01*
X99439000Y-63784000D02*
X94824000Y-63784000D01*
X214684000Y-126438000D02*
X214684000Y-121612000D01*
X216938000Y-144504000D02*
X216938000Y-142670000D01*
X94824000Y-63784000D02*
X93089000Y-62049000D01*
X99439000Y-63784000D02*
X99482000Y-63784000D01*
X99482000Y-63784000D02*
X104519000Y-58747000D01*
%TO.N,Net-(C7-Pad2)*%
X127093000Y-62557000D02*
X127093000Y-67913000D01*
X129411000Y-70231000D02*
X127093000Y-67913000D01*
X129411000Y-74241000D02*
X129411000Y-70231000D01*
%TO.N,Net-(JP24-B)*%
X124553000Y-62557000D02*
X124553000Y-58683000D01*
X122413300Y-74241000D02*
X122413300Y-70052700D01*
X124553000Y-58683000D02*
X120521000Y-54651000D01*
X124553000Y-62557000D02*
X124553000Y-67913000D01*
X122413300Y-70052700D02*
X124553000Y-67913000D01*
%TO.N,Net-(D1-K)*%
X232987500Y-129511500D02*
X233500500Y-128998500D01*
D57*
X233500500Y-131307500D02*
X233500500Y-128998500D01*
D58*
X229182500Y-129511500D02*
X232987500Y-129511500D01*
%TO.N,Net-(D2-K)*%
X243152500Y-129511500D02*
X238585500Y-129511500D01*
D57*
X237818500Y-131275500D02*
X237818500Y-128744500D01*
D58*
X238585500Y-129511500D02*
X237818500Y-128744500D01*
D57*
%TO.N,Net-(D3-K)*%
X238814000Y-95450000D02*
X239301000Y-95450000D01*
X239301000Y-95450000D02*
X242608000Y-98757000D01*
%TO.N,Net-(D4-K)*%
X256340000Y-137106000D02*
X258388000Y-137106000D01*
%TO.N,Net-(D5-K)*%
X258388000Y-142948000D02*
X256340000Y-142948000D01*
D59*
%TO.N,Net-(D7-K)*%
X252521000Y-89862000D02*
X247459000Y-89862000D01*
X247459000Y-89862000D02*
X246189000Y-88592000D01*
D57*
%TO.N,RB0*%
X244139000Y-90869000D02*
X244139000Y-88592000D01*
X248111006Y-94841006D02*
X244139000Y-90869000D01*
X267263000Y-78591000D02*
X267263000Y-75765000D01*
X269263000Y-80591000D02*
X267263000Y-78591000D01*
X274375000Y-80591000D02*
X269263000Y-80591000D01*
X247958000Y-102562000D02*
X247958000Y-100516785D01*
X248693200Y-103297200D02*
X247958000Y-102562000D01*
X247958000Y-100516785D02*
X248111006Y-100363779D01*
X250576800Y-103297200D02*
X248693200Y-103297200D01*
X248111006Y-100363779D02*
X248111006Y-94841006D01*
D59*
%TO.N,Net-(D8-K)*%
X252521000Y-87322000D02*
X246951000Y-87322000D01*
X246951000Y-87322000D02*
X246189000Y-86560000D01*
D57*
%TO.N,RB1*%
X245104500Y-87525500D02*
X245104500Y-91012842D01*
X265051500Y-80092232D02*
X265051500Y-79681500D01*
X279267500Y-90455438D02*
X279267500Y-84213500D01*
X263961000Y-78591000D02*
X263961000Y-75781000D01*
X279267500Y-84213500D02*
X276915000Y-81861000D01*
X265051500Y-79681500D02*
X263961000Y-78591000D01*
X250576800Y-102647200D02*
X261588800Y-102647200D01*
X270897938Y-98825000D02*
X279267500Y-90455438D01*
X248720000Y-101921400D02*
X249445800Y-102647200D01*
X245104500Y-91012842D02*
X248720000Y-94628342D01*
X249445800Y-102647200D02*
X250576800Y-102647200D01*
X266820268Y-81861000D02*
X265051500Y-80092232D01*
X244139000Y-86560000D02*
X245104500Y-87525500D01*
X248720000Y-94628342D02*
X248720000Y-101921400D01*
X276915000Y-81861000D02*
X266820268Y-81861000D01*
X261588800Y-102647200D02*
X265411000Y-98825000D01*
X265411000Y-98825000D02*
X270897938Y-98825000D01*
%TO.N,RB2*%
X263707000Y-83131000D02*
X261749500Y-81173500D01*
X261749500Y-79681500D02*
X260659000Y-78591000D01*
X260520458Y-101997200D02*
X264273658Y-98244000D01*
X274375000Y-83131000D02*
X263707000Y-83131000D01*
X261749500Y-81173500D02*
X261749500Y-79681500D01*
X264273658Y-98244000D02*
X270657280Y-98244000D01*
X260659000Y-75765000D02*
X260659000Y-78591000D01*
X270657280Y-98244000D02*
X278686500Y-90214780D01*
X278686500Y-90214780D02*
X278686500Y-84488878D01*
X278686500Y-84488878D02*
X277328622Y-83131000D01*
X277328622Y-83131000D02*
X274375000Y-83131000D01*
X250576800Y-101997200D02*
X260520458Y-101997200D01*
D59*
%TO.N,Net-(D9-K)*%
X246443000Y-84782000D02*
X246189000Y-84528000D01*
X252521000Y-84782000D02*
X246443000Y-84782000D01*
D57*
%TO.N,RB3*%
X258447500Y-80092232D02*
X258447500Y-79681500D01*
X278105500Y-85591500D02*
X276915000Y-84401000D01*
X262756268Y-84401000D02*
X258447500Y-80092232D01*
X278105500Y-89974122D02*
X278105500Y-85591500D01*
X264033000Y-97663000D02*
X270416622Y-97663000D01*
X258447500Y-79681500D02*
X257357000Y-78591000D01*
X257357000Y-75765000D02*
X257357000Y-78591000D01*
X260348800Y-101347200D02*
X264033000Y-97663000D01*
X250576800Y-101347200D02*
X260348800Y-101347200D01*
X270416622Y-97663000D02*
X278105500Y-89974122D01*
X276915000Y-84401000D02*
X262756268Y-84401000D01*
D59*
%TO.N,Net-(D10-K)*%
X252521000Y-82242000D02*
X246443000Y-82242000D01*
X246443000Y-82242000D02*
X246189000Y-82496000D01*
D57*
%TO.N,RB4*%
X250576800Y-100697200D02*
X255156800Y-100697200D01*
X255156800Y-100697200D02*
X256086000Y-99768000D01*
X257357000Y-91021000D02*
X257357000Y-93871000D01*
X258447500Y-89487768D02*
X258447500Y-89930500D01*
X274375000Y-85671000D02*
X262264268Y-85671000D01*
X258447500Y-89930500D02*
X257357000Y-91021000D01*
X262264268Y-85671000D02*
X258447500Y-89487768D01*
X256086000Y-95142000D02*
X257357000Y-93871000D01*
X256086000Y-99768000D02*
X256086000Y-95142000D01*
D59*
%TO.N,Net-(D11-K)*%
X246951000Y-79702000D02*
X246189000Y-80464000D01*
X252521000Y-79702000D02*
X246951000Y-79702000D01*
D57*
%TO.N,RB5*%
X253876736Y-100047200D02*
X250576800Y-100047200D01*
X276915000Y-86941000D02*
X273926658Y-86941000D01*
X260659000Y-93831000D02*
X260659000Y-90989000D01*
X261749500Y-89481000D02*
X261749500Y-89898500D01*
X273799658Y-87068000D02*
X264162500Y-87068000D01*
X255295500Y-98628436D02*
X253876736Y-100047200D01*
X273926658Y-86941000D02*
X273799658Y-87068000D01*
X264162500Y-87068000D02*
X261749500Y-89481000D01*
X255295500Y-96974000D02*
X255295500Y-98628436D01*
X261749500Y-89898500D02*
X260659000Y-90989000D01*
D59*
%TO.N,Net-(D12-K)*%
X252521000Y-77162000D02*
X247459000Y-77162000D01*
X247459000Y-77162000D02*
X246189000Y-78432000D01*
%TO.N,Net-(D13-K)*%
X252521000Y-74622000D02*
X247967000Y-74622000D01*
X247967000Y-74622000D02*
X246189000Y-76400000D01*
D57*
%TO.N,RB6*%
X252748736Y-99397200D02*
X250576800Y-99397200D01*
X220272000Y-84274000D02*
X219510000Y-83512000D01*
X244139000Y-76400000D02*
X236265000Y-84274000D01*
X219510000Y-83512000D02*
X219510000Y-81454600D01*
X219510000Y-81454600D02*
X217960600Y-79905200D01*
X254054000Y-97228000D02*
X254054000Y-98091936D01*
X254054000Y-98091936D02*
X252748736Y-99397200D01*
X236265000Y-84274000D02*
X220272000Y-84274000D01*
D59*
%TO.N,Net-(D14-K)*%
X252521000Y-72082000D02*
X248475000Y-72082000D01*
X248475000Y-72082000D02*
X246189000Y-74368000D01*
D57*
%TO.N,RB7*%
X250576800Y-98747200D02*
X252280800Y-98747200D01*
X221288000Y-79905200D02*
X238601800Y-79905200D01*
X238601800Y-79905200D02*
X244139000Y-74368000D01*
X252280800Y-98747200D02*
X253038000Y-97990000D01*
%TO.N,Net-(D15-A)*%
X207979000Y-45005000D02*
X204270000Y-48714000D01*
X207979000Y-40348000D02*
X207979000Y-45005000D01*
%TO.N,Net-(D15-K)*%
X204270000Y-55844000D02*
X203508000Y-56606000D01*
X204270000Y-50764000D02*
X204270000Y-55844000D01*
%TO.N,Net-(D16-K)*%
X206556000Y-56098000D02*
X206048000Y-56606000D01*
X206556000Y-50755000D02*
X206556000Y-56098000D01*
%TO.N,Net-(D16-A)*%
X209249000Y-46012000D02*
X206556000Y-48705000D01*
X209249000Y-37808000D02*
X209249000Y-46012000D01*
%TO.N,Net-(D17-K)*%
X208842000Y-50764000D02*
X208842000Y-56352000D01*
X208842000Y-56352000D02*
X208588000Y-56606000D01*
%TO.N,Net-(D17-A)*%
X210519000Y-47037000D02*
X208842000Y-48714000D01*
X210519000Y-40348000D02*
X210519000Y-47037000D01*
%TO.N,Net-(D18-K)*%
X211128000Y-50755000D02*
X211128000Y-56606000D01*
%TO.N,Net-(D18-A)*%
X211789000Y-48044000D02*
X211128000Y-48705000D01*
X211789000Y-37808000D02*
X211789000Y-48044000D01*
%TO.N,Net-(D19-K)*%
X213414000Y-56352000D02*
X213668000Y-56606000D01*
X213414000Y-50764000D02*
X213414000Y-56352000D01*
%TO.N,Net-(D19-A)*%
X213059000Y-40348000D02*
X213059000Y-48359000D01*
X213059000Y-48359000D02*
X213414000Y-48714000D01*
%TO.N,Net-(D20-K)*%
X215700000Y-50764000D02*
X215700000Y-56098000D01*
X215700000Y-56098000D02*
X216208000Y-56606000D01*
%TO.N,Net-(D20-A)*%
X214329000Y-47343000D02*
X215700000Y-48714000D01*
X214329000Y-37808000D02*
X214329000Y-47343000D01*
%TO.N,Net-(D21-A)*%
X215599000Y-46327000D02*
X217986000Y-48714000D01*
X215599000Y-40348000D02*
X215599000Y-46327000D01*
%TO.N,Net-(D21-K)*%
X217986000Y-55844000D02*
X218748000Y-56606000D01*
X217986000Y-50764000D02*
X217986000Y-55844000D01*
%TO.N,Net-(D22-A)*%
X216869000Y-45311000D02*
X220272000Y-48714000D01*
X216869000Y-37808000D02*
X216869000Y-45311000D01*
%TO.N,Net-(D22-K)*%
X220272000Y-50764000D02*
X220272000Y-55590000D01*
X220272000Y-55590000D02*
X221288000Y-56606000D01*
D58*
%TO.N,Net-(F1-Pad1)*%
X32891000Y-31061000D02*
X25652000Y-31061000D01*
X25652000Y-31061000D02*
X25398000Y-30807000D01*
%TO.N,Net-(JP16-C)*%
X28192000Y-22425000D02*
X20953000Y-22425000D01*
X20953000Y-22425000D02*
X20699000Y-22171000D01*
%TO.N,Net-(F2-Pad1)*%
X49401000Y-30807000D02*
X48893000Y-30807000D01*
D59*
X41896000Y-30807000D02*
X41769000Y-30680000D01*
D58*
X48766000Y-30680000D02*
X41769000Y-30680000D01*
X48893000Y-30807000D02*
X48766000Y-30680000D01*
%TO.N,Net-(JP17-C)*%
X36929000Y-22298000D02*
X36921000Y-22290000D01*
X44563000Y-22298000D02*
X36929000Y-22298000D01*
%TO.N,Net-(JP18-C)*%
X60914000Y-22044000D02*
X53518000Y-22044000D01*
X53518000Y-22044000D02*
X53399000Y-22163000D01*
%TO.N,Net-(F3-Pad1)*%
X65486000Y-30426000D02*
X65867000Y-30807000D01*
X58120000Y-30426000D02*
X65486000Y-30426000D01*
%TO.N,Net-(JP19-C)*%
X77424000Y-22112851D02*
X70003149Y-22112851D01*
D59*
X77424000Y-22112851D02*
X77373851Y-22163000D01*
X70003149Y-22112851D02*
X69953000Y-22163000D01*
D58*
%TO.N,Net-(F4-Pad1)*%
X82123000Y-30875851D02*
X75011000Y-30875851D01*
X75011000Y-30875851D02*
X74630000Y-30494851D01*
%TO.N,Net-(JP20-C)*%
X76579000Y-72463000D02*
X71993000Y-72463000D01*
X71993000Y-72463000D02*
X71985000Y-72455000D01*
%TO.N,Net-(F5-Pad1)*%
X85215000Y-64081000D02*
X79373000Y-64081000D01*
%TO.N,Net-(F6-Pad1)*%
X67943000Y-64081000D02*
X61847000Y-64081000D01*
%TO.N,Net-(JP21-C)*%
X54467000Y-72463000D02*
X54459000Y-72455000D01*
X59053000Y-72463000D02*
X54467000Y-72463000D01*
%TO.N,Net-(JP22-C)*%
X41527000Y-72463000D02*
X36955000Y-72463000D01*
%TO.N,Net-(F7-Pad1)*%
X50417000Y-63827000D02*
X44575000Y-63827000D01*
X44575000Y-63827000D02*
X44321000Y-64081000D01*
%TO.N,Net-(JP23-C)*%
X24255000Y-72463000D02*
X19429000Y-72463000D01*
%TO.N,Net-(F8-Pad1)*%
X32891000Y-63827000D02*
X27303000Y-63827000D01*
X27303000Y-63827000D02*
X27049000Y-64081000D01*
%TO.N,+5V*%
X212874000Y-147488000D02*
X210595000Y-145209000D01*
X210595000Y-145209000D02*
X210595000Y-142670000D01*
X220780000Y-113452000D02*
X220780000Y-118508000D01*
X255571000Y-144229000D02*
X263817000Y-144229000D01*
X224082000Y-113452000D02*
X222812000Y-113452000D01*
X220780000Y-113452000D02*
X220764000Y-113468000D01*
X214430000Y-89100000D02*
X218748000Y-93418000D01*
X215682500Y-118538500D02*
X220749500Y-118538500D01*
X212609000Y-131010000D02*
X212609000Y-135117000D01*
X268786000Y-121104000D02*
X268786000Y-121988000D01*
X257357000Y-95871000D02*
X267223000Y-95871000D01*
X201984000Y-95942000D02*
X204508000Y-93418000D01*
X257357000Y-70559000D02*
X253546000Y-66748000D01*
X236803500Y-85819500D02*
X234616750Y-85819500D01*
X268786000Y-121988000D02*
X277422000Y-130624000D01*
X220018000Y-148282000D02*
X217986000Y-150314000D01*
X220780000Y-93418000D02*
X224082000Y-93418000D01*
X220780000Y-118508000D02*
X220749500Y-118538500D01*
D57*
X249112800Y-103947200D02*
X250576800Y-103947200D01*
D58*
X268786000Y-121104000D02*
X265500000Y-121104000D01*
X263817000Y-144229000D02*
X277422000Y-130624000D01*
X243152500Y-126971500D02*
X245824500Y-129643500D01*
X212874000Y-148812000D02*
X212874000Y-147488000D01*
X212609000Y-121612000D02*
X215682500Y-118538500D01*
X230686000Y-113452000D02*
X242148000Y-113452000D01*
X231163500Y-137947000D02*
X231092500Y-137876000D01*
X223066000Y-66748000D02*
X214430000Y-75384000D01*
X220018000Y-145488000D02*
X220018000Y-148282000D01*
D57*
X247704000Y-107896000D02*
X247704000Y-105356000D01*
D58*
X204524000Y-113468000D02*
X201984000Y-110928000D01*
X225372500Y-141170000D02*
X223828000Y-142714500D01*
X246594500Y-137106000D02*
X245824500Y-137876000D01*
X231163500Y-141495500D02*
X231163500Y-137947000D01*
X230686000Y-93418000D02*
X230686000Y-88338000D01*
X254290000Y-137106000D02*
X246594500Y-137106000D01*
D57*
X247069000Y-108531000D02*
X247704000Y-107896000D01*
D58*
X201984000Y-110928000D02*
X201984000Y-95942000D01*
X204508000Y-93418000D02*
X218748000Y-93418000D01*
X227384000Y-68526000D02*
X227384000Y-70050000D01*
X223828000Y-142714500D02*
X222791500Y-142714500D01*
D57*
X247704000Y-105356000D02*
X249112800Y-103947200D01*
D58*
X229162000Y-66748000D02*
X227384000Y-68526000D01*
X211128000Y-142137000D02*
X210595000Y-142670000D01*
X237818500Y-126694500D02*
X233754500Y-126694500D01*
X237818500Y-126694500D02*
X242875500Y-126694500D01*
X242148000Y-113452000D02*
X247069000Y-108531000D01*
X254290000Y-142948000D02*
X254290000Y-137106000D01*
X230686000Y-113452000D02*
X227384000Y-113452000D01*
X218748000Y-93418000D02*
X220780000Y-93418000D01*
X214376000Y-150314000D02*
X212874000Y-148812000D01*
X227150500Y-142714500D02*
X223828000Y-142714500D01*
X221542000Y-113452000D02*
X220780000Y-113452000D01*
X227384000Y-113452000D02*
X224082000Y-113452000D01*
X212609000Y-121612000D02*
X212609000Y-126438000D01*
X257357000Y-73765000D02*
X267263000Y-73765000D01*
D57*
X246688000Y-108912000D02*
X247069000Y-108531000D01*
D58*
X254290000Y-142948000D02*
X255571000Y-144229000D01*
X225860000Y-66748000D02*
X223066000Y-66748000D01*
X227384000Y-68272000D02*
X225860000Y-66748000D01*
X225372500Y-140936500D02*
X227150500Y-142714500D01*
X222791500Y-142714500D02*
X220018000Y-145488000D01*
X227150500Y-142714500D02*
X229944500Y-142714500D01*
X225372500Y-140936500D02*
X225372500Y-141170000D01*
X222812000Y-113452000D02*
X221542000Y-113452000D01*
X267223000Y-95871000D02*
X267263000Y-95831000D01*
X229182500Y-126971500D02*
X220749500Y-118538500D01*
X233754500Y-126694500D02*
X233500500Y-126948500D01*
X245824500Y-129643500D02*
X245824500Y-137876000D01*
X230686000Y-88338000D02*
X233204500Y-85819500D01*
X253546000Y-66748000D02*
X229162000Y-66748000D01*
X212609000Y-135117000D02*
X211128000Y-136598000D01*
X233204500Y-85819500D02*
X234616750Y-85819500D01*
X244910000Y-93926000D02*
X236803500Y-85819500D01*
X265500000Y-121104000D02*
X265484000Y-121088000D01*
X229944500Y-142714500D02*
X231163500Y-141495500D01*
X211128000Y-136598000D02*
X211128000Y-142137000D01*
X225372500Y-130781500D02*
X225372500Y-140936500D01*
X220764000Y-113468000D02*
X204524000Y-113468000D01*
X227384000Y-70050000D02*
X227384000Y-68272000D01*
X229182500Y-126971500D02*
X225372500Y-130781500D01*
X229205500Y-126948500D02*
X229182500Y-126971500D01*
X214430000Y-75384000D02*
X214430000Y-89100000D01*
X212609000Y-131010000D02*
X212609000Y-126438000D01*
X233500500Y-126948500D02*
X229205500Y-126948500D01*
X242875500Y-126694500D02*
X243152500Y-126971500D01*
X217986000Y-150314000D02*
X214376000Y-150314000D01*
X257357000Y-73765000D02*
X257357000Y-70559000D01*
X227384000Y-93418000D02*
X230686000Y-93418000D01*
X224082000Y-93418000D02*
X227384000Y-93418000D01*
D57*
%TO.N,Net-(U1-RA7)*%
X220780000Y-98260000D02*
X220780000Y-95418000D01*
%TO.N,Net-(U1-RA4)*%
X229595500Y-99350500D02*
X230686000Y-98260000D01*
X214441500Y-102927000D02*
X226429732Y-102927000D01*
X242608000Y-102007000D02*
X241248936Y-102007000D01*
X241173436Y-102082500D02*
X234508500Y-102082500D01*
X241248936Y-102007000D02*
X241173436Y-102082500D01*
X230686000Y-98260000D02*
X230686000Y-95418000D01*
X226429732Y-102927000D02*
X229595500Y-99761232D01*
X234508500Y-102082500D02*
X230686000Y-98260000D01*
X229595500Y-99761232D02*
X229595500Y-99350500D01*
%TO.N,Net-(U1-RA6)*%
X242608000Y-104607000D02*
X236515000Y-104607000D01*
X242608000Y-104607000D02*
X242595000Y-104594000D01*
X236515000Y-104607000D02*
X235766000Y-105356000D01*
X224082000Y-98260000D02*
X224082000Y-95418000D01*
%TO.N,Net-(U1-RA1)*%
X242677000Y-99988000D02*
X242608000Y-100057000D01*
X224082000Y-111452000D02*
X224082000Y-108610000D01*
X245858686Y-99322228D02*
X245858686Y-99429250D01*
X245299936Y-99988000D02*
X242677000Y-99988000D01*
X245858686Y-99429250D02*
X245299936Y-99988000D01*
%TO.N,Net-(U1-RA2)*%
X227384000Y-111452000D02*
X227384000Y-108610000D01*
X246739506Y-99795685D02*
X245828191Y-100707000D01*
X246739506Y-99795685D02*
X246660315Y-99795685D01*
X245828191Y-100707000D02*
X242608000Y-100707000D01*
%TO.N,Net-(U1-RA5)*%
X247530006Y-99468249D02*
X242489257Y-94427500D01*
X227384000Y-97007268D02*
X227384000Y-98260000D01*
X242608000Y-102657000D02*
X244996127Y-102657000D01*
X244996127Y-102657000D02*
X247530006Y-100123121D01*
X229963768Y-94427500D02*
X227384000Y-97007268D01*
X227384000Y-95418000D02*
X227384000Y-98260000D01*
X247530006Y-100123121D02*
X247530006Y-99468249D01*
X242489257Y-94427500D02*
X229963768Y-94427500D01*
%TO.N,Net-(U1-RA0)*%
X220780000Y-111452000D02*
X220780000Y-108626000D01*
X244910000Y-99006000D02*
X244509000Y-99407000D01*
X244509000Y-99407000D02*
X242608000Y-99407000D01*
X214441500Y-108007000D02*
X220161000Y-108007000D01*
X220161000Y-108007000D02*
X220780000Y-108626000D01*
%TO.N,Net-(U1-RA3)*%
X240846000Y-101292000D02*
X242543000Y-101292000D01*
X242543000Y-101292000D02*
X242608000Y-101357000D01*
X230686000Y-111452000D02*
X230686000Y-108610000D01*
%TO.N,Net-(JP3-B)*%
X232179842Y-133307500D02*
X228552500Y-136934842D01*
X233500500Y-133307500D02*
X232179842Y-133307500D01*
X243284500Y-137876000D02*
X243284500Y-136801198D01*
X243284500Y-136801198D02*
X238768302Y-132285000D01*
X234523000Y-132285000D02*
X233500500Y-133307500D01*
X238768302Y-132285000D02*
X234523000Y-132285000D01*
X228552500Y-136934842D02*
X228552500Y-137876000D01*
%TO.N,Net-(JP1-B)*%
X229822500Y-140416000D02*
X229822500Y-136486500D01*
X229822500Y-136486500D02*
X230960500Y-135348500D01*
X230960500Y-135348500D02*
X235745500Y-135348500D01*
X235745500Y-135348500D02*
X237818500Y-133275500D01*
%TO.N,Net-(U1-RC0)*%
X269770000Y-106626000D02*
X268786000Y-105642000D01*
X268786000Y-102816000D02*
X268786000Y-105642000D01*
X242608000Y-105257000D02*
X243993000Y-105257000D01*
X243993000Y-105257000D02*
X244402000Y-104848000D01*
X274374000Y-106626000D02*
X269770000Y-106626000D01*
%TO.N,Net-(U1-RC5)*%
X276914000Y-113389622D02*
X276914000Y-112976000D01*
X264771268Y-120088000D02*
X267802000Y-120088000D01*
X258547200Y-113386600D02*
X258547200Y-113863932D01*
X273771622Y-116532000D02*
X276914000Y-113389622D01*
X267802000Y-120088000D02*
X268786000Y-119104000D01*
X250576800Y-106547200D02*
X251707800Y-106547200D01*
X268786000Y-119104000D02*
X268786000Y-116532000D01*
X251707800Y-106547200D02*
X258547200Y-113386600D01*
X268786000Y-116532000D02*
X273771622Y-116532000D01*
X258547200Y-113863932D02*
X264771268Y-120088000D01*
%TO.N,RC4B*%
X260658000Y-119580000D02*
X258143500Y-122094500D01*
X258143500Y-122094500D02*
X235486500Y-122094500D01*
X235486500Y-122094500D02*
X233246500Y-119854500D01*
X260686500Y-119580000D02*
X260658000Y-119580000D01*
%TO.N,RC3B*%
X261448500Y-118027500D02*
X244725500Y-118027500D01*
X244725500Y-118027500D02*
X242898500Y-119854500D01*
%TO.N,Net-(U1-RC2)*%
X242608000Y-106557000D02*
X246503000Y-106557000D01*
X265484000Y-106167268D02*
X265484000Y-105880000D01*
X246503000Y-106557000D02*
X246688000Y-106372000D01*
X268482732Y-109166000D02*
X265484000Y-106167268D01*
X265484000Y-103054000D02*
X265484000Y-105880000D01*
X274374000Y-109166000D02*
X268482732Y-109166000D01*
%TO.N,Net-(U1-RC1)*%
X245121000Y-105907000D02*
X245418000Y-105610000D01*
X242608000Y-105907000D02*
X245121000Y-105907000D01*
X265484000Y-119088000D02*
X265484000Y-116532000D01*
%TO.N,Net-(JP6-B)*%
X260388000Y-137106000D02*
X261674000Y-137106000D01*
X261674000Y-137106000D02*
X267770000Y-131010000D01*
%TO.N,Net-(JP5-B)*%
X259397500Y-134048500D02*
X262182000Y-131264000D01*
X260388000Y-142948000D02*
X259397500Y-141957500D01*
X259397500Y-141957500D02*
X259397500Y-134048500D01*
%TO.N,Net-(JP11-C)*%
X27049000Y-46809000D02*
X68705000Y-46809000D01*
X68705000Y-46809000D02*
X75309000Y-40205000D01*
X75309000Y-40205000D02*
X82167000Y-40205000D01*
X26541000Y-46301000D02*
X27049000Y-46809000D01*
%TO.N,Net-(JP9-C)*%
X29843000Y-43761000D02*
X30859000Y-44777000D01*
X26541000Y-43761000D02*
X29843000Y-43761000D01*
X30859000Y-44777000D02*
X44768149Y-44777000D01*
X44768149Y-44777000D02*
X49401000Y-40144149D01*
%TO.N,Net-(JP13-C)*%
X62609000Y-49349000D02*
X67943000Y-54683000D01*
X26541000Y-48841000D02*
X27049000Y-49349000D01*
X27049000Y-49349000D02*
X62609000Y-49349000D01*
%TO.N,Net-(JP15-C)*%
X29835000Y-54675000D02*
X26541000Y-51381000D01*
X32869000Y-54675000D02*
X29835000Y-54675000D01*
%TO.N,Net-(JP10-C)*%
X60254149Y-45793000D02*
X65911000Y-40136149D01*
X30351000Y-45793000D02*
X60254149Y-45793000D01*
X24001000Y-45031000D02*
X29589000Y-45031000D01*
X29589000Y-45031000D02*
X30351000Y-45793000D01*
%TO.N,Net-(JP12-C)*%
X78103000Y-47571000D02*
X85215000Y-54683000D01*
X24001000Y-47571000D02*
X78103000Y-47571000D01*
%TO.N,Net-(JP14-C)*%
X24001000Y-50111000D02*
X45845000Y-50111000D01*
X45845000Y-50111000D02*
X50417000Y-54683000D01*
D59*
%TO.N,Net-(JP8-A)*%
X32891000Y-33601000D02*
X32891000Y-37820149D01*
X32891000Y-37820149D02*
X32913000Y-37842149D01*
X32913000Y-33623000D02*
X32891000Y-33601000D01*
%TO.N,Net-(JP9-A)*%
X49401000Y-37604149D02*
X49401000Y-33347000D01*
%TO.N,Net-(JP10-A)*%
X65911000Y-37596149D02*
X65911000Y-33391000D01*
X65911000Y-33391000D02*
X65867000Y-33347000D01*
%TO.N,Net-(JP11-A)*%
X82167000Y-33459851D02*
X82123000Y-33415851D01*
X82167000Y-37665000D02*
X82167000Y-33459851D01*
D57*
%TO.N,Net-(JP12-A)*%
X85215000Y-57223000D02*
X85215000Y-61541000D01*
%TO.N,Net-(JP13-A)*%
X67943000Y-57223000D02*
X67943000Y-61541000D01*
%TO.N,Net-(JP14-A)*%
X50417000Y-57223000D02*
X50417000Y-61287000D01*
%TO.N,Net-(JP15-A)*%
X32869000Y-57215000D02*
X32869000Y-61265000D01*
X32869000Y-61265000D02*
X32891000Y-61287000D01*
%TO.N,Net-(JP10-B)*%
X126584689Y-49936500D02*
X126156189Y-50365000D01*
X126156189Y-50365000D02*
X84199000Y-50365000D01*
X76579000Y-42745000D02*
X76452000Y-42618000D01*
X129839500Y-49936500D02*
X126584689Y-49936500D01*
X129919000Y-49857000D02*
X129839500Y-49936500D01*
X84199000Y-50365000D02*
X76579000Y-42745000D01*
%TO.N,Net-(JP11-B)*%
X126617000Y-49349000D02*
X88771000Y-49349000D01*
X127379000Y-48587000D02*
X126617000Y-49349000D01*
X88771000Y-49349000D02*
X82167000Y-42745000D01*
D58*
%TO.N,Net-(JP24-A)*%
X122089200Y-28289000D02*
X122089200Y-22278700D01*
X121537000Y-48333000D02*
X122121200Y-47748800D01*
X122121200Y-28321000D02*
X122089200Y-28289000D01*
X122121200Y-47748800D02*
X122121200Y-33601000D01*
X122121200Y-33601000D02*
X122121200Y-28321000D01*
X122089200Y-22278700D02*
X120457500Y-20647000D01*
D57*
%TO.N,RC3*%
X250576800Y-109636200D02*
X250576800Y-107197200D01*
X240358500Y-119854500D02*
X250576800Y-109636200D01*
%TO.N,RC4*%
X242608000Y-108642000D02*
X242624000Y-108658000D01*
X235151500Y-115409500D02*
X230706500Y-119854500D01*
X242608000Y-107207000D02*
X242608000Y-108642000D01*
%TO.N,RC6*%
X249445800Y-105897200D02*
X248466000Y-106877000D01*
X250576800Y-105897200D02*
X249445800Y-105897200D01*
X248466000Y-106877000D02*
X248466000Y-109166000D01*
%TO.N,RC7*%
X251707800Y-105247200D02*
X250576800Y-105247200D01*
X259896000Y-113484000D02*
X259896000Y-113435400D01*
X259896000Y-113435400D02*
X251707800Y-105247200D01*
D59*
%TO.N,Net-(JP7-B)*%
X252521000Y-69542000D02*
X246917000Y-69542000D01*
D57*
%TO.N,RB7P*%
X225098000Y-77416000D02*
X232464000Y-70050000D01*
X221288000Y-77416000D02*
X225098000Y-77416000D01*
%TO.N,RB7*%
X267263000Y-91005000D02*
X267263000Y-93831000D01*
%TO.N,RB6*%
X274178500Y-88014500D02*
X274375000Y-88211000D01*
X263961000Y-93831000D02*
X263961000Y-90989000D01*
X266172500Y-88382768D02*
X266540768Y-88014500D01*
X263961000Y-90989000D02*
X266172500Y-88777500D01*
X266172500Y-88777500D02*
X266172500Y-88382768D01*
X266540768Y-88014500D02*
X274178500Y-88014500D01*
%TO.N,Net-(JP8-C)*%
X30804149Y-42491000D02*
X32913000Y-40382149D01*
X24001000Y-42491000D02*
X30804149Y-42491000D01*
D58*
%TO.N,+12V*%
X153104000Y-64970000D02*
X153866000Y-65732000D01*
X158162500Y-59382000D02*
X153358000Y-59382000D01*
X153104000Y-59128000D02*
X153104000Y-64970000D01*
X153866000Y-72907500D02*
X154818500Y-73860000D01*
X153358000Y-59382000D02*
X153104000Y-59128000D01*
X153866000Y-65732000D02*
X153866000Y-72907500D01*
%TD*%
M02*
