%TF.GenerationSoftware,KiCad,Pcbnew,8.0.1*%
%TF.CreationDate,2024-04-02T21:45:17-06:00*%
%TF.ProjectId,ATV_Project_Slave Barg,4154565f-5072-46f6-9a65-63745f536c61,rev?*%
%TF.SameCoordinates,Original*%
%TF.FileFunction,Soldermask,Top*%
%TF.FilePolarity,Negative*%
%FSLAX46Y46*%
G04 Gerber Fmt 4.6, Leading zero omitted, Abs format (unit mm)*
G04 Created by KiCad (PCBNEW 8.0.1) date 2024-04-02 21:45:17*
%MOMM*%
%LPD*%
G01*
G04 APERTURE LIST*
G04 Aperture macros list*
%AMRoundRect*
0 Rectangle with rounded corners*
0 $1 Rounding radius*
0 $2 $3 $4 $5 $6 $7 $8 $9 X,Y pos of 4 corners*
0 Add a 4 corners polygon primitive as box body*
4,1,4,$2,$3,$4,$5,$6,$7,$8,$9,$2,$3,0*
0 Add four circle primitives for the rounded corners*
1,1,$1+$1,$2,$3*
1,1,$1+$1,$4,$5*
1,1,$1+$1,$6,$7*
1,1,$1+$1,$8,$9*
0 Add four rect primitives between the rounded corners*
20,1,$1+$1,$2,$3,$4,$5,0*
20,1,$1+$1,$4,$5,$6,$7,0*
20,1,$1+$1,$6,$7,$8,$9,0*
20,1,$1+$1,$8,$9,$2,$3,0*%
G04 Aperture macros list end*
%ADD10C,3.250000*%
%ADD11RoundRect,0.248000X-0.552000X0.552000X-0.552000X-0.552000X0.552000X-0.552000X0.552000X0.552000X0*%
%ADD12C,1.600000*%
%ADD13C,2.200000*%
%ADD14RoundRect,0.248000X0.552000X-0.552000X0.552000X0.552000X-0.552000X0.552000X-0.552000X-0.552000X0*%
%ADD15RoundRect,0.248000X0.552000X0.552000X-0.552000X0.552000X-0.552000X-0.552000X0.552000X-0.552000X0*%
%ADD16RoundRect,0.250000X0.450000X-0.325000X0.450000X0.325000X-0.450000X0.325000X-0.450000X-0.325000X0*%
%ADD17R,1.600000X1.600000*%
%ADD18O,1.600000X1.600000*%
%ADD19R,1.700000X1.700000*%
%ADD20O,1.700000X1.700000*%
%ADD21R,7.112000X7.112000*%
%ADD22RoundRect,0.250000X0.350000X0.450000X-0.350000X0.450000X-0.350000X-0.450000X0.350000X-0.450000X0*%
%ADD23RoundRect,0.250000X-0.450000X0.350000X-0.450000X-0.350000X0.450000X-0.350000X0.450000X0.350000X0*%
%ADD24RoundRect,0.250000X0.450000X-0.350000X0.450000X0.350000X-0.450000X0.350000X-0.450000X-0.350000X0*%
%ADD25O,2.000000X1.905000*%
%ADD26R,2.000000X1.905000*%
%ADD27R,6.350000X7.620000*%
%ADD28RoundRect,0.952500X-0.952500X-1.587500X0.952500X-1.587500X0.952500X1.587500X-0.952500X1.587500X0*%
%ADD29RoundRect,0.250000X-0.337500X-0.475000X0.337500X-0.475000X0.337500X0.475000X-0.337500X0.475000X0*%
%ADD30RoundRect,1.270000X-1.270000X-3.175000X1.270000X-3.175000X1.270000X3.175000X-1.270000X3.175000X0*%
%ADD31C,2.286000*%
%ADD32C,2.159000*%
%ADD33RoundRect,0.250000X0.337500X0.475000X-0.337500X0.475000X-0.337500X-0.475000X0.337500X-0.475000X0*%
%ADD34RoundRect,0.250000X0.325000X0.450000X-0.325000X0.450000X-0.325000X-0.450000X0.325000X-0.450000X0*%
%ADD35RoundRect,0.250000X-0.475000X0.337500X-0.475000X-0.337500X0.475000X-0.337500X0.475000X0.337500X0*%
%ADD36RoundRect,0.250000X-0.350000X-0.450000X0.350000X-0.450000X0.350000X0.450000X-0.350000X0.450000X0*%
%ADD37RoundRect,1.270000X1.270000X3.175000X-1.270000X3.175000X-1.270000X-3.175000X1.270000X-3.175000X0*%
%ADD38RoundRect,0.952500X1.587500X-0.952500X1.587500X0.952500X-1.587500X0.952500X-1.587500X-0.952500X0*%
%ADD39R,1.500000X0.380000*%
%ADD40RoundRect,0.250000X0.475000X-0.337500X0.475000X0.337500X-0.475000X0.337500X-0.475000X-0.337500X0*%
%ADD41C,1.905000*%
%ADD42R,1.520000X1.520000*%
%ADD43C,1.520000*%
%ADD44R,1.500000X0.600000*%
%ADD45RoundRect,0.952500X-1.587500X0.952500X-1.587500X-0.952500X1.587500X-0.952500X1.587500X0.952500X0*%
G04 APERTURE END LIST*
D10*
%TO.C,J2*%
X205540000Y-97756600D03*
X205540000Y-109186600D03*
D11*
X214430000Y-107916600D03*
D12*
X211890000Y-106646600D03*
X214430000Y-105376600D03*
X211890000Y-104106600D03*
X214430000Y-102836600D03*
X211890000Y-101566600D03*
X214430000Y-100296600D03*
X211890000Y-99026600D03*
D13*
X208590000Y-95571600D03*
X208590000Y-111371600D03*
%TD*%
D10*
%TO.C,J46*%
X194182500Y-61033000D03*
X194182500Y-49603000D03*
D14*
X185292500Y-50873000D03*
D12*
X187832500Y-52143000D03*
X185292500Y-53413000D03*
X187832500Y-54683000D03*
X185292500Y-55953000D03*
X187832500Y-57223000D03*
X185292500Y-58493000D03*
X187832500Y-59763000D03*
D13*
X191132500Y-63218000D03*
X191132500Y-47418000D03*
%TD*%
D10*
%TO.C,J25*%
X272098977Y-31394740D03*
X260668977Y-31394740D03*
D15*
X261938977Y-40284740D03*
D12*
X263208977Y-37744740D03*
X264478977Y-40284740D03*
X265748977Y-37744740D03*
X267018977Y-40284740D03*
X268288977Y-37744740D03*
X269558977Y-40284740D03*
X270828977Y-37744740D03*
D13*
X274283977Y-34444740D03*
X258483977Y-34444740D03*
%TD*%
D10*
%TO.C,J25*%
X245047688Y-31504705D03*
X233617688Y-31504705D03*
D15*
X234887688Y-40394705D03*
D12*
X236157688Y-37854705D03*
X237427688Y-40394705D03*
X238697688Y-37854705D03*
X239967688Y-40394705D03*
X241237688Y-37854705D03*
X242507688Y-40394705D03*
X243777688Y-37854705D03*
D13*
X247232688Y-34554705D03*
X231432688Y-34554705D03*
%TD*%
D10*
%TO.C,J6*%
X283264000Y-116786000D03*
X283264000Y-105356000D03*
D14*
X274374000Y-106626000D03*
D12*
X276914000Y-107896000D03*
X274374000Y-109166000D03*
X276914000Y-110436000D03*
X274374000Y-111706000D03*
X276914000Y-112976000D03*
X274374000Y-114246000D03*
X276914000Y-115516000D03*
D13*
X280214000Y-118971000D03*
X280214000Y-103171000D03*
%TD*%
%TO.C,J18*%
X133148000Y-40179000D03*
X133148000Y-55979000D03*
D12*
X129848000Y-52524000D03*
X127308000Y-51254000D03*
X129848000Y-49984000D03*
X127308000Y-48714000D03*
X129848000Y-47444000D03*
X127308000Y-46174000D03*
X129848000Y-44904000D03*
D14*
X127308000Y-43634000D03*
D10*
X136198000Y-42364000D03*
X136198000Y-53794000D03*
%TD*%
D13*
%TO.C,J35*%
X20587500Y-125121000D03*
X20587500Y-109321000D03*
D12*
X23887500Y-112776000D03*
X26427500Y-114046000D03*
X23887500Y-115316000D03*
X26427500Y-116586000D03*
X23887500Y-117856000D03*
X26427500Y-119126000D03*
X23887500Y-120396000D03*
D11*
X26427500Y-121666000D03*
D10*
X17537500Y-122936000D03*
X17537500Y-111506000D03*
%TD*%
%TO.C,J25*%
X218139000Y-31458000D03*
X206709000Y-31458000D03*
D15*
X207979000Y-40348000D03*
D12*
X209249000Y-37808000D03*
X210519000Y-40348000D03*
X211789000Y-37808000D03*
X213059000Y-40348000D03*
X214329000Y-37808000D03*
X215599000Y-40348000D03*
X216869000Y-37808000D03*
D13*
X220324000Y-34508000D03*
X204524000Y-34508000D03*
%TD*%
%TO.C,J26*%
X184644500Y-108686000D03*
X184644500Y-124486000D03*
D12*
X181344500Y-121031000D03*
X178804500Y-119761000D03*
X181344500Y-118491000D03*
X178804500Y-117221000D03*
X181344500Y-115951000D03*
X178804500Y-114681000D03*
X181344500Y-113411000D03*
D14*
X178804500Y-112141000D03*
D10*
X187694500Y-110871000D03*
X187694500Y-122301000D03*
%TD*%
%TO.C,J5*%
X283265000Y-90751000D03*
X283265000Y-79321000D03*
D14*
X274375000Y-80591000D03*
D12*
X276915000Y-81861000D03*
X274375000Y-83131000D03*
X276915000Y-84401000D03*
X274375000Y-85671000D03*
X276915000Y-86941000D03*
X274375000Y-88211000D03*
X276915000Y-89481000D03*
D13*
X280215000Y-92936000D03*
X280215000Y-77136000D03*
%TD*%
%TO.C,J9*%
X20641500Y-54836000D03*
X20641500Y-39036000D03*
D12*
X23941500Y-42491000D03*
X26481500Y-43761000D03*
X23941500Y-45031000D03*
X26481500Y-46301000D03*
X23941500Y-47571000D03*
X26481500Y-48841000D03*
X23941500Y-50111000D03*
D11*
X26481500Y-51381000D03*
D10*
X17591500Y-52651000D03*
X17591500Y-41221000D03*
%TD*%
D16*
%TO.C,D19*%
X267373977Y-50700740D03*
X267373977Y-48650740D03*
%TD*%
%TO.C,D16*%
X260515977Y-50691740D03*
X260515977Y-48641740D03*
%TD*%
%TO.C,D15*%
X258229977Y-50700740D03*
X258229977Y-48650740D03*
%TD*%
D17*
%TO.C,RN2*%
X277787977Y-56542740D03*
D18*
X275247977Y-56542740D03*
X272707977Y-56542740D03*
X270167977Y-56542740D03*
X267627977Y-56542740D03*
X265087977Y-56542740D03*
X262547977Y-56542740D03*
X260007977Y-56542740D03*
X257467977Y-56542740D03*
%TD*%
D16*
%TO.C,D18*%
X265087977Y-50691740D03*
X265087977Y-48641740D03*
%TD*%
%TO.C,D17*%
X262801977Y-50700740D03*
X262801977Y-48650740D03*
%TD*%
%TO.C,D22*%
X274231977Y-50700740D03*
X274231977Y-48650740D03*
%TD*%
%TO.C,D21*%
X271945977Y-50700740D03*
X271945977Y-48650740D03*
%TD*%
%TO.C,D20*%
X269659977Y-50700740D03*
X269659977Y-48650740D03*
%TD*%
%TO.C,D19*%
X240322688Y-50810705D03*
X240322688Y-48760705D03*
%TD*%
%TO.C,D16*%
X233464688Y-50801705D03*
X233464688Y-48751705D03*
%TD*%
%TO.C,D15*%
X231178688Y-50810705D03*
X231178688Y-48760705D03*
%TD*%
D17*
%TO.C,RN2*%
X250736688Y-56652705D03*
D18*
X248196688Y-56652705D03*
X245656688Y-56652705D03*
X243116688Y-56652705D03*
X240576688Y-56652705D03*
X238036688Y-56652705D03*
X235496688Y-56652705D03*
X232956688Y-56652705D03*
X230416688Y-56652705D03*
%TD*%
D16*
%TO.C,D18*%
X238036688Y-50801705D03*
X238036688Y-48751705D03*
%TD*%
%TO.C,D17*%
X235750688Y-50810705D03*
X235750688Y-48760705D03*
%TD*%
%TO.C,D22*%
X247180688Y-50810705D03*
X247180688Y-48760705D03*
%TD*%
%TO.C,D21*%
X244894688Y-50810705D03*
X244894688Y-48760705D03*
%TD*%
%TO.C,D20*%
X242608688Y-50810705D03*
X242608688Y-48760705D03*
%TD*%
D19*
%TO.C,JP35*%
X110984000Y-131542000D03*
D20*
X110984000Y-129002000D03*
X110984000Y-126462000D03*
%TD*%
D21*
%TO.C,*%
X10414000Y-147320000D03*
%TD*%
%TO.C,*%
X10414000Y-83820000D03*
%TD*%
%TO.C,*%
X195072000Y-147320000D03*
%TD*%
%TO.C,*%
X195072000Y-83820000D03*
%TD*%
D22*
%TO.C,R76*%
X177179000Y-64462000D03*
X179179000Y-64462000D03*
%TD*%
D23*
%TO.C,R75*%
X167511000Y-45142000D03*
X167511000Y-43142000D03*
%TD*%
D24*
%TO.C,R74*%
X185037000Y-42126000D03*
X185037000Y-44126000D03*
%TD*%
D23*
%TO.C,R73*%
X167511000Y-54286000D03*
X167511000Y-52286000D03*
%TD*%
%TO.C,R72*%
X165987000Y-64192000D03*
X165987000Y-62192000D03*
%TD*%
%TO.C,R71*%
X174877000Y-76384000D03*
X174877000Y-74384000D03*
%TD*%
D25*
%TO.C,Q6*%
X173353000Y-38300000D03*
X173353000Y-40840000D03*
D26*
X173353000Y-43380000D03*
%TD*%
D25*
%TO.C,Q5*%
X180465000Y-43634000D03*
X180465000Y-46174000D03*
D26*
X180465000Y-48714000D03*
%TD*%
D25*
%TO.C,Q4*%
X173353000Y-50492000D03*
X173353000Y-53032000D03*
D26*
X173353000Y-55572000D03*
%TD*%
D25*
%TO.C,Q3*%
X180394000Y-55318000D03*
X180394000Y-57858000D03*
D26*
X180394000Y-60398000D03*
%TD*%
D25*
%TO.C,Q2*%
X173282000Y-62684000D03*
X173282000Y-65224000D03*
D26*
X173282000Y-67764000D03*
%TD*%
D25*
%TO.C,Q1*%
X180394000Y-69542000D03*
X180394000Y-72082000D03*
D26*
X180394000Y-74622000D03*
%TD*%
D27*
%TO.C,J47*%
X161923000Y-73352000D03*
X154925300Y-73352000D03*
%TD*%
D20*
%TO.C,J45*%
X155827000Y-41094000D03*
D19*
X153287000Y-41094000D03*
%TD*%
D20*
%TO.C,J44*%
X155795000Y-35782000D03*
D19*
X153255000Y-35782000D03*
%TD*%
D20*
%TO.C,J43*%
X153033000Y-51508000D03*
X153033000Y-54048000D03*
X153033000Y-56588000D03*
D19*
X153033000Y-59128000D03*
%TD*%
D20*
%TO.C,J42*%
X155795000Y-46450000D03*
D19*
X153255000Y-46450000D03*
%TD*%
D28*
%TO.C,C19*%
X158621000Y-65224000D03*
X153541000Y-65224000D03*
%TD*%
D29*
%TO.C,C18*%
X160166500Y-59382000D03*
X158091500Y-59382000D03*
%TD*%
D30*
%TO.C,L4*%
X112647000Y-58747000D03*
X104519000Y-58747000D03*
%TD*%
D19*
%TO.C,JP10*%
X65911000Y-37596149D03*
D20*
X65911000Y-40136149D03*
X65911000Y-42676149D03*
%TD*%
D31*
%TO.C,F6*%
X59053000Y-72463000D03*
X61847000Y-64081000D03*
D32*
X60450000Y-68272000D03*
%TD*%
D31*
%TO.C,F4*%
X77424000Y-22112851D03*
X74630000Y-30494851D03*
D32*
X76027000Y-26303851D03*
%TD*%
D31*
%TO.C,F16*%
X154940000Y-87884000D03*
X146558000Y-85090000D03*
D32*
X150749000Y-86487000D03*
%TD*%
D33*
%TO.C,C13*%
X36183000Y-103830000D03*
X38258000Y-103830000D03*
%TD*%
D24*
%TO.C,R67*%
X85067000Y-102386000D03*
X85067000Y-104386000D03*
%TD*%
D16*
%TO.C,D19*%
X213414000Y-48714000D03*
X213414000Y-50764000D03*
%TD*%
D34*
%TO.C,D10*%
X244139000Y-82496000D03*
X246189000Y-82496000D03*
%TD*%
D21*
%TO.C,*%
X143381000Y-74495000D03*
%TD*%
D22*
%TO.C,R68*%
X143405000Y-124873000D03*
X145405000Y-124873000D03*
%TD*%
D24*
%TO.C,R43*%
X267263000Y-95831000D03*
X267263000Y-93831000D03*
%TD*%
D23*
%TO.C,R57*%
X126597000Y-128127000D03*
X126597000Y-126127000D03*
%TD*%
D35*
%TO.C,C1*%
X234616750Y-92445000D03*
X234616750Y-90370000D03*
%TD*%
D23*
%TO.C,R44*%
X267263000Y-91005000D03*
X267263000Y-89005000D03*
%TD*%
D36*
%TO.C,R63*%
X128794000Y-106172000D03*
X130794000Y-106172000D03*
%TD*%
D20*
%TO.C,JP32*%
X142778000Y-132096000D03*
X140238000Y-132096000D03*
D19*
X137698000Y-132096000D03*
%TD*%
%TO.C,JP47*%
X136390000Y-94256000D03*
D20*
X133850000Y-94256000D03*
X131310000Y-94256000D03*
%TD*%
D19*
%TO.C,JP11*%
X82167000Y-37665000D03*
D20*
X82167000Y-40205000D03*
X82167000Y-42745000D03*
%TD*%
D34*
%TO.C,D7*%
X244139000Y-88592000D03*
X246189000Y-88592000D03*
%TD*%
%TO.C,D13*%
X244139000Y-76400000D03*
X246189000Y-76400000D03*
%TD*%
D19*
%TO.C,JP15*%
X32869000Y-57215000D03*
D20*
X32869000Y-54675000D03*
X32869000Y-52135000D03*
%TD*%
D19*
%TO.C,JP19*%
X69953000Y-24703000D03*
D20*
X69953000Y-22163000D03*
X69953000Y-19623000D03*
%TD*%
D19*
%TO.C,J13*%
X82123000Y-28335851D03*
D20*
X82123000Y-30875851D03*
X82123000Y-33415851D03*
%TD*%
D19*
%TO.C,JP9*%
X49401000Y-37604149D03*
D20*
X49401000Y-40144149D03*
X49401000Y-42684149D03*
%TD*%
D19*
%TO.C,J24*%
X122121200Y-33601000D03*
D20*
X124661200Y-33601000D03*
%TD*%
D18*
%TO.C,RN2*%
X203508000Y-56606000D03*
X206048000Y-56606000D03*
X208588000Y-56606000D03*
X211128000Y-56606000D03*
X213668000Y-56606000D03*
X216208000Y-56606000D03*
X218748000Y-56606000D03*
X221288000Y-56606000D03*
D17*
X223828000Y-56606000D03*
%TD*%
D36*
%TO.C,R48*%
X173684500Y-112014000D03*
X175684500Y-112014000D03*
%TD*%
D19*
%TO.C,JP12*%
X85215000Y-57223000D03*
D20*
X85215000Y-54683000D03*
X85215000Y-52143000D03*
%TD*%
D32*
%TO.C,F13*%
X86741000Y-85979000D03*
D31*
X82550000Y-84582000D03*
X90932000Y-87376000D03*
%TD*%
D19*
%TO.C,J21*%
X124553000Y-67913000D03*
D20*
X127093000Y-67913000D03*
%TD*%
D31*
%TO.C,F2*%
X44563000Y-22298000D03*
X41769000Y-30680000D03*
D32*
X43166000Y-26489000D03*
%TD*%
D22*
%TO.C,R54*%
X122803000Y-124079000D03*
X124803000Y-124079000D03*
%TD*%
D31*
%TO.C,F15*%
X133731000Y-87503000D03*
X125349000Y-84709000D03*
D32*
X129540000Y-86106000D03*
%TD*%
D19*
%TO.C,J11*%
X49401000Y-28267000D03*
D20*
X49401000Y-30807000D03*
X49401000Y-33347000D03*
%TD*%
D19*
%TO.C,JP31*%
X96536000Y-133560000D03*
D20*
X99076000Y-133560000D03*
X101616000Y-133560000D03*
%TD*%
D37*
%TO.C,L6*%
X54284000Y-142196000D03*
X46156000Y-142196000D03*
%TD*%
D20*
%TO.C,JP3*%
X228166500Y-119854500D03*
X230706500Y-119854500D03*
D19*
X233246500Y-119854500D03*
%TD*%
%TO.C,J12*%
X65867000Y-28267000D03*
D20*
X65867000Y-30807000D03*
X65867000Y-33347000D03*
%TD*%
D34*
%TO.C,D6*%
X212645000Y-142670000D03*
X210595000Y-142670000D03*
%TD*%
%TO.C,D14*%
X244139000Y-74368000D03*
X246189000Y-74368000D03*
%TD*%
D20*
%TO.C,JP37*%
X79248000Y-105664000D03*
X79248000Y-103124000D03*
D19*
X79248000Y-100584000D03*
%TD*%
%TO.C,J14*%
X85215000Y-66621000D03*
D20*
X85215000Y-64081000D03*
X85215000Y-61541000D03*
%TD*%
D16*
%TO.C,D15*%
X204270000Y-48714000D03*
X204270000Y-50764000D03*
%TD*%
D23*
%TO.C,R41*%
X260659000Y-90989000D03*
X260659000Y-88989000D03*
%TD*%
D24*
%TO.C,R13*%
X230686000Y-98260000D03*
X230686000Y-100260000D03*
%TD*%
%TO.C,R52*%
X147425000Y-104108000D03*
X147425000Y-102108000D03*
%TD*%
%TO.C,R26*%
X268786000Y-114532000D03*
X268786000Y-116532000D03*
%TD*%
D30*
%TO.C,L1*%
X110615000Y-37411000D03*
X102487000Y-37411000D03*
%TD*%
D20*
%TO.C,J40*%
X30647100Y-132910000D03*
D19*
X33187100Y-132910000D03*
%TD*%
D36*
%TO.C,R53*%
X109252000Y-107188000D03*
X111252000Y-107188000D03*
%TD*%
D19*
%TO.C,JP45*%
X93718000Y-94002000D03*
D20*
X91178000Y-94002000D03*
X88638000Y-94002000D03*
%TD*%
D16*
%TO.C,D2*%
X237818500Y-128744500D03*
X237818500Y-126694500D03*
%TD*%
D21*
%TO.C,*%
X204270000Y-147266000D03*
%TD*%
D16*
%TO.C,D16*%
X206556000Y-48705000D03*
X206556000Y-50755000D03*
%TD*%
D23*
%TO.C,R42*%
X263961000Y-90989000D03*
X263961000Y-88989000D03*
%TD*%
D21*
%TO.C,*%
X204270000Y-65986000D03*
%TD*%
D24*
%TO.C,R38*%
X260659000Y-95831000D03*
X260659000Y-93831000D03*
%TD*%
D34*
%TO.C,D8*%
X244139000Y-86560000D03*
X246189000Y-86560000D03*
%TD*%
D19*
%TO.C,JP43*%
X96528000Y-138916000D03*
D20*
X99068000Y-138916000D03*
X101608000Y-138916000D03*
%TD*%
D31*
%TO.C,F5*%
X76579000Y-72463000D03*
X79373000Y-64081000D03*
D32*
X77976000Y-68272000D03*
%TD*%
D20*
%TO.C,JP33*%
X153162000Y-127508000D03*
X153162000Y-130048000D03*
D19*
X153162000Y-132588000D03*
%TD*%
D24*
%TO.C,R65*%
X127254000Y-104124000D03*
X127254000Y-102124000D03*
%TD*%
D18*
%TO.C,RN1*%
X252521000Y-89862000D03*
X252521000Y-87322000D03*
X252521000Y-84782000D03*
X252521000Y-82242000D03*
X252521000Y-79702000D03*
X252521000Y-77162000D03*
X252521000Y-74622000D03*
X252521000Y-72082000D03*
D17*
X252521000Y-69542000D03*
%TD*%
D23*
%TO.C,R23*%
X265484000Y-119088000D03*
X265484000Y-121088000D03*
%TD*%
D19*
%TO.C,J10*%
X32891000Y-28521000D03*
D20*
X32891000Y-31061000D03*
X32891000Y-33601000D03*
%TD*%
D24*
%TO.C,R56*%
X107188000Y-104632000D03*
X107188000Y-102632000D03*
%TD*%
D36*
%TO.C,R51*%
X149511000Y-106434000D03*
X151511000Y-106434000D03*
%TD*%
D38*
%TO.C,C17*%
X70866000Y-94234000D03*
X70866000Y-99314000D03*
%TD*%
D20*
%TO.C,JP1*%
X237818500Y-119854500D03*
X240358500Y-119854500D03*
D19*
X242898500Y-119854500D03*
%TD*%
D31*
%TO.C,F14*%
X113538000Y-87376000D03*
X105156000Y-84582000D03*
D32*
X109347000Y-85979000D03*
%TD*%
D37*
%TO.C,L5*%
X54102000Y-129540000D03*
X45974000Y-129540000D03*
%TD*%
D23*
%TO.C,R58*%
X84985000Y-130675000D03*
X84985000Y-128675000D03*
%TD*%
D32*
%TO.C,F9*%
X144145000Y-145415000D03*
D31*
X148336000Y-146812000D03*
X139954000Y-144018000D03*
%TD*%
D19*
%TO.C,J34*%
X146558000Y-92964000D03*
D20*
X146558000Y-95504000D03*
X146558000Y-98044000D03*
%TD*%
D36*
%TO.C,R47*%
X173684500Y-105410000D03*
X175684500Y-105410000D03*
%TD*%
D24*
%TO.C,R19*%
X220780000Y-98260000D03*
X220780000Y-100260000D03*
%TD*%
D31*
%TO.C,F11*%
X98822000Y-143974000D03*
X107204000Y-146768000D03*
D32*
X103013000Y-145371000D03*
%TD*%
D20*
%TO.C,JP7*%
X247164000Y-69564000D03*
D19*
X244624000Y-69564000D03*
%TD*%
D36*
%TO.C,R64*%
X89243000Y-106418000D03*
X87243000Y-106418000D03*
%TD*%
D21*
%TO.C,*%
X143381000Y-20393000D03*
%TD*%
D36*
%TO.C,R61*%
X173740500Y-121888200D03*
X175740500Y-121888200D03*
%TD*%
%TO.C,R50*%
X173740500Y-118586200D03*
X175740500Y-118586200D03*
%TD*%
D19*
%TO.C,JP39*%
X121688000Y-100592000D03*
D20*
X121688000Y-103132000D03*
X121688000Y-105672000D03*
%TD*%
%TO.C,J33*%
X125730000Y-99060000D03*
X125730000Y-96520000D03*
D19*
X125730000Y-93980000D03*
%TD*%
D22*
%TO.C,R55*%
X82937000Y-126881000D03*
X80937000Y-126881000D03*
%TD*%
D33*
%TO.C,C12*%
X30715700Y-128072000D03*
X32790700Y-128072000D03*
%TD*%
D36*
%TO.C,R45*%
X260388000Y-142948000D03*
X258388000Y-142948000D03*
%TD*%
D24*
%TO.C,R9*%
X230686000Y-113452000D03*
X230686000Y-111452000D03*
%TD*%
%TO.C,R21*%
X268786000Y-100816000D03*
X268786000Y-102816000D03*
%TD*%
D39*
%TO.C,U1*%
X250576800Y-98747200D03*
X250576800Y-99397200D03*
X250576800Y-100047200D03*
X250576800Y-100697200D03*
X250576800Y-101347200D03*
X250576800Y-101997200D03*
X250576800Y-102647200D03*
X250576800Y-103297200D03*
X250576800Y-103947200D03*
X250576800Y-104597200D03*
X250576800Y-105247200D03*
X250576800Y-105897200D03*
X250576800Y-106547200D03*
X250576800Y-107197200D03*
X242608000Y-107207000D03*
X242608000Y-106557000D03*
X242608000Y-105907000D03*
X242608000Y-105257000D03*
X242608000Y-104607000D03*
X242608000Y-103957000D03*
X242608000Y-103307000D03*
X242608000Y-102657000D03*
X242608000Y-102007000D03*
X242608000Y-101357000D03*
X242608000Y-100707000D03*
X242608000Y-100057000D03*
X242608000Y-99407000D03*
X242608000Y-98757000D03*
%TD*%
D19*
%TO.C,JP25*%
X157480000Y-98044000D03*
D20*
X154940000Y-98044000D03*
X152400000Y-98044000D03*
%TD*%
D19*
%TO.C,JP8*%
X32913000Y-37842149D03*
D20*
X32913000Y-40382149D03*
X32913000Y-42922149D03*
%TD*%
D22*
%TO.C,R66*%
X102370000Y-125708000D03*
X100370000Y-125708000D03*
%TD*%
D19*
%TO.C,JP17*%
X36921000Y-24830000D03*
D20*
X36921000Y-22290000D03*
X36921000Y-19750000D03*
%TD*%
D19*
%TO.C,J30*%
X85068000Y-138930000D03*
D20*
X85068000Y-136390000D03*
X85068000Y-133850000D03*
%TD*%
D30*
%TO.C,L3*%
X112647000Y-71193000D03*
X104519000Y-71193000D03*
%TD*%
D16*
%TO.C,D1*%
X233500500Y-128998500D03*
X233500500Y-126948500D03*
%TD*%
D19*
%TO.C,JP13*%
X67943000Y-57223000D03*
D20*
X67943000Y-54683000D03*
X67943000Y-52143000D03*
%TD*%
D24*
%TO.C,R16*%
X227384000Y-98260000D03*
X227384000Y-100260000D03*
%TD*%
D20*
%TO.C,JP27*%
X122682000Y-131826000D03*
X120142000Y-131826000D03*
D19*
X117602000Y-131826000D03*
%TD*%
%TO.C,JP26*%
X115308000Y-99590000D03*
D20*
X112768000Y-99590000D03*
X110228000Y-99590000D03*
%TD*%
D24*
%TO.C,R3*%
X220780000Y-113452000D03*
X220780000Y-111452000D03*
%TD*%
D23*
%TO.C,R18*%
X220780000Y-93418000D03*
X220780000Y-95418000D03*
%TD*%
D40*
%TO.C,C9*%
X99439000Y-65859000D03*
X99439000Y-63784000D03*
%TD*%
D23*
%TO.C,R31*%
X260659000Y-73765000D03*
X260659000Y-75765000D03*
%TD*%
D21*
%TO.C,*%
X195268000Y-34998000D03*
%TD*%
D19*
%TO.C,JP18*%
X53399000Y-24703000D03*
D20*
X53399000Y-22163000D03*
X53399000Y-19623000D03*
%TD*%
D24*
%TO.C,R35*%
X257357000Y-95871000D03*
X257357000Y-93871000D03*
%TD*%
D23*
%TO.C,R27*%
X268786000Y-119104000D03*
X268786000Y-121104000D03*
%TD*%
%TO.C,R30*%
X263961000Y-73781000D03*
X263961000Y-75781000D03*
%TD*%
D29*
%TO.C,C4*%
X212609000Y-131010000D03*
X214684000Y-131010000D03*
%TD*%
D24*
%TO.C,R25*%
X265484000Y-101054000D03*
X265484000Y-103054000D03*
%TD*%
%TO.C,R5*%
X224082000Y-113452000D03*
X224082000Y-111452000D03*
%TD*%
D30*
%TO.C,L2*%
X110869000Y-24203000D03*
X102741000Y-24203000D03*
%TD*%
D23*
%TO.C,R70*%
X147469000Y-128921000D03*
X147469000Y-126921000D03*
%TD*%
D21*
%TO.C,*%
X195268000Y-74368000D03*
%TD*%
D34*
%TO.C,D9*%
X244139000Y-84528000D03*
X246189000Y-84528000D03*
%TD*%
D19*
%TO.C,JP46*%
X115570000Y-94234000D03*
D20*
X113030000Y-94234000D03*
X110490000Y-94234000D03*
%TD*%
D19*
%TO.C,JP48*%
X157488000Y-92688000D03*
D20*
X154948000Y-92688000D03*
X152408000Y-92688000D03*
%TD*%
D19*
%TO.C,JP49*%
X43202000Y-105950000D03*
D20*
X43202000Y-103410000D03*
%TD*%
%TO.C,J27*%
X147596000Y-133358000D03*
X147596000Y-135898000D03*
D19*
X147596000Y-138438000D03*
%TD*%
D23*
%TO.C,R10*%
X230686000Y-93418000D03*
X230686000Y-95418000D03*
%TD*%
%TO.C,R69*%
X104418000Y-127772000D03*
X104418000Y-129772000D03*
%TD*%
D31*
%TO.C,F3*%
X60914000Y-22044000D03*
X58120000Y-30426000D03*
D32*
X59517000Y-26235000D03*
%TD*%
D19*
%TO.C,J15*%
X67943000Y-66621000D03*
D20*
X67943000Y-64081000D03*
X67943000Y-61541000D03*
%TD*%
D23*
%TO.C,R8*%
X227384000Y-108610000D03*
X227384000Y-106610000D03*
%TD*%
D19*
%TO.C,JP16*%
X20699000Y-24711000D03*
D20*
X20699000Y-22171000D03*
X20699000Y-19631000D03*
%TD*%
%TO.C,JP30*%
X88638000Y-99590000D03*
X91178000Y-99590000D03*
D19*
X93718000Y-99590000D03*
%TD*%
%TO.C,J16*%
X50417000Y-66367000D03*
D20*
X50417000Y-63827000D03*
X50417000Y-61287000D03*
%TD*%
%TO.C,J1*%
X235004000Y-70050000D03*
X232464000Y-70050000D03*
X229924000Y-70050000D03*
X227384000Y-70050000D03*
D19*
X224844000Y-70050000D03*
%TD*%
D28*
%TO.C,C5*%
X211128000Y-136598000D03*
X216208000Y-136598000D03*
%TD*%
D41*
%TO.C,SW1*%
X217960600Y-82496000D03*
X217960600Y-79905200D03*
X217960600Y-77416000D03*
X221288000Y-77416000D03*
X221288000Y-79905200D03*
X221288000Y-82496000D03*
%TD*%
D20*
%TO.C,JP5*%
X262182000Y-131264000D03*
X262182000Y-128724000D03*
D19*
X262182000Y-126184000D03*
%TD*%
D29*
%TO.C,C2*%
X212609000Y-121612000D03*
X214684000Y-121612000D03*
%TD*%
D36*
%TO.C,R49*%
X173740500Y-125190200D03*
X175740500Y-125190200D03*
%TD*%
D23*
%TO.C,R11*%
X230686000Y-108610000D03*
X230686000Y-106610000D03*
%TD*%
%TO.C,R4*%
X220780000Y-108626000D03*
X220780000Y-106626000D03*
%TD*%
%TO.C,R2*%
X237818500Y-133275500D03*
X237818500Y-131275500D03*
%TD*%
D20*
%TO.C,JP41*%
X142778000Y-137176000D03*
X140238000Y-137176000D03*
D19*
X137698000Y-137176000D03*
%TD*%
%TO.C,JP14*%
X50417000Y-57223000D03*
D20*
X50417000Y-54683000D03*
X50417000Y-52143000D03*
%TD*%
D19*
%TO.C,JP4*%
X243152500Y-129511500D03*
D20*
X243152500Y-126971500D03*
%TD*%
D19*
%TO.C,J17*%
X32891000Y-66367000D03*
D20*
X32891000Y-63827000D03*
X32891000Y-61287000D03*
%TD*%
D10*
%TO.C,J4*%
X238834500Y-146258000D03*
X248994500Y-146258000D03*
D42*
X245824500Y-137368000D03*
D43*
X244554500Y-139908000D03*
X243284500Y-137368000D03*
X242014500Y-139908000D03*
%TD*%
D20*
%TO.C,J38*%
X35718000Y-99766000D03*
D19*
X38258000Y-99766000D03*
%TD*%
D23*
%TO.C,R7*%
X224082000Y-108610000D03*
X224082000Y-106610000D03*
%TD*%
D37*
%TO.C,L8*%
X58070000Y-90622000D03*
X49942000Y-90622000D03*
%TD*%
D20*
%TO.C,J31*%
X83334000Y-99322000D03*
X83334000Y-96782000D03*
D19*
X83334000Y-94242000D03*
%TD*%
D20*
%TO.C,J28*%
X128270000Y-132080000D03*
X128270000Y-134620000D03*
D19*
X128270000Y-137160000D03*
%TD*%
D16*
%TO.C,D21*%
X217986000Y-48714000D03*
X217986000Y-50764000D03*
%TD*%
D40*
%TO.C,C8*%
X97661000Y-31844500D03*
X97661000Y-29769500D03*
%TD*%
D27*
%TO.C,J20*%
X120457500Y-20647000D03*
X127455200Y-20647000D03*
%TD*%
D16*
%TO.C,D20*%
X215700000Y-48714000D03*
X215700000Y-50764000D03*
%TD*%
D21*
%TO.C,*%
X285550000Y-65986000D03*
%TD*%
D24*
%TO.C,R17*%
X224082000Y-98260000D03*
X224082000Y-100260000D03*
%TD*%
D23*
%TO.C,R1*%
X233500500Y-133307500D03*
X233500500Y-131307500D03*
%TD*%
D20*
%TO.C,J36*%
X35750000Y-95934000D03*
D19*
X38290000Y-95934000D03*
%TD*%
D20*
%TO.C,JP6*%
X267770000Y-131010000D03*
X267770000Y-128470000D03*
D19*
X267770000Y-125930000D03*
%TD*%
D38*
%TO.C,C10*%
X91565000Y-33347000D03*
X91565000Y-28267000D03*
%TD*%
D27*
%TO.C,J37*%
X28175700Y-145852000D03*
X35173400Y-145852000D03*
%TD*%
D16*
%TO.C,D3*%
X238814000Y-93400000D03*
X238814000Y-95450000D03*
%TD*%
D36*
%TO.C,R60*%
X173684500Y-115316000D03*
X175684500Y-115316000D03*
%TD*%
%TO.C,R59*%
X173684500Y-108712000D03*
X175684500Y-108712000D03*
%TD*%
D19*
%TO.C,JP24*%
X120521000Y-52111000D03*
D20*
X120521000Y-54651000D03*
%TD*%
D23*
%TO.C,R15*%
X224082000Y-93418000D03*
X224082000Y-95418000D03*
%TD*%
D27*
%TO.C,J22*%
X122413300Y-74241000D03*
X129411000Y-74241000D03*
%TD*%
D19*
%TO.C,JP21*%
X54459000Y-74995000D03*
D20*
X54459000Y-72455000D03*
X54459000Y-69915000D03*
%TD*%
D31*
%TO.C,F1*%
X28192000Y-22425000D03*
X25398000Y-30807000D03*
D32*
X26795000Y-26616000D03*
%TD*%
D34*
%TO.C,D11*%
X244139000Y-80464000D03*
X246189000Y-80464000D03*
%TD*%
D23*
%TO.C,R14*%
X227384000Y-93418000D03*
X227384000Y-95418000D03*
%TD*%
D19*
%TO.C,JP23*%
X19429000Y-75003000D03*
D20*
X19429000Y-72463000D03*
X19429000Y-69923000D03*
%TD*%
D23*
%TO.C,R20*%
X268786000Y-107642000D03*
X268786000Y-105642000D03*
%TD*%
D21*
%TO.C,*%
X10539000Y-20393000D03*
%TD*%
D19*
%TO.C,JP34*%
X132588000Y-130810000D03*
D20*
X132588000Y-128270000D03*
X132588000Y-125730000D03*
%TD*%
D19*
%TO.C,J32*%
X105134000Y-93972000D03*
D20*
X105134000Y-96512000D03*
X105134000Y-99052000D03*
%TD*%
D21*
%TO.C,REF\u002A\u002A*%
X10539000Y-74495000D03*
%TD*%
D24*
%TO.C,R36*%
X257357000Y-78591000D03*
X257357000Y-80591000D03*
%TD*%
D23*
%TO.C,R34*%
X257357000Y-73765000D03*
X257357000Y-75765000D03*
%TD*%
D19*
%TO.C,JP36*%
X91650000Y-133080000D03*
D20*
X91650000Y-130540000D03*
X91650000Y-128000000D03*
%TD*%
D16*
%TO.C,D17*%
X208842000Y-48714000D03*
X208842000Y-50764000D03*
%TD*%
D10*
%TO.C,J3*%
X224102500Y-146258000D03*
X234262500Y-146258000D03*
D42*
X231092500Y-137368000D03*
D43*
X229822500Y-139908000D03*
X228552500Y-137368000D03*
X227282500Y-139908000D03*
%TD*%
D19*
%TO.C,JP20*%
X71985000Y-74995000D03*
D20*
X71985000Y-72455000D03*
X71985000Y-69915000D03*
%TD*%
D32*
%TO.C,F10*%
X123698000Y-145288000D03*
D31*
X127889000Y-146685000D03*
X119507000Y-143891000D03*
%TD*%
D34*
%TO.C,D5*%
X256340000Y-142948000D03*
X254290000Y-142948000D03*
%TD*%
D21*
%TO.C,*%
X285550000Y-147266000D03*
%TD*%
D36*
%TO.C,R46*%
X216938000Y-142670000D03*
X214938000Y-142670000D03*
%TD*%
D24*
%TO.C,R32*%
X263961000Y-78591000D03*
X263961000Y-80591000D03*
%TD*%
D19*
%TO.C,JP40*%
X141754000Y-100338000D03*
D20*
X141754000Y-102878000D03*
X141754000Y-105418000D03*
%TD*%
D16*
%TO.C,D22*%
X220272000Y-48714000D03*
X220272000Y-50764000D03*
%TD*%
D36*
%TO.C,R62*%
X173740500Y-128492200D03*
X175740500Y-128492200D03*
%TD*%
D29*
%TO.C,C3*%
X212609000Y-126438000D03*
X214684000Y-126438000D03*
%TD*%
D27*
%TO.C,J39*%
X32766000Y-86614000D03*
X39763700Y-86614000D03*
%TD*%
D20*
%TO.C,J41*%
X30583100Y-137780000D03*
D19*
X33123100Y-137780000D03*
%TD*%
%TO.C,JP38*%
X101092000Y-100330000D03*
D20*
X101092000Y-102870000D03*
X101092000Y-105410000D03*
%TD*%
D19*
%TO.C,JP29*%
X136136000Y-98828000D03*
D20*
X133596000Y-98828000D03*
X131056000Y-98828000D03*
%TD*%
D36*
%TO.C,R39*%
X260388000Y-137106000D03*
X258388000Y-137106000D03*
%TD*%
D40*
%TO.C,C15*%
X64516000Y-96244500D03*
X64516000Y-98319500D03*
%TD*%
D44*
%TO.C,U2*%
X169096500Y-115316000D03*
X169096500Y-114046000D03*
X169096500Y-112776000D03*
X169096500Y-111506000D03*
X169096500Y-110236000D03*
X169096500Y-108966000D03*
X169096500Y-107696000D03*
X169096500Y-106426000D03*
X162096500Y-106426000D03*
X162096500Y-107696000D03*
X162096500Y-108966000D03*
X162096500Y-110236000D03*
X162096500Y-111506000D03*
X162096500Y-112776000D03*
X162096500Y-114046000D03*
X162096500Y-115316000D03*
%TD*%
D45*
%TO.C,C16*%
X66294000Y-138684000D03*
X66294000Y-133604000D03*
%TD*%
D19*
%TO.C,J8*%
X212874000Y-148812000D03*
D20*
X215414000Y-148812000D03*
%TD*%
D19*
%TO.C,JP44*%
X74422000Y-138176000D03*
D20*
X76962000Y-138176000D03*
X79502000Y-138176000D03*
%TD*%
D23*
%TO.C,R37*%
X257357000Y-91021000D03*
X257357000Y-89021000D03*
%TD*%
D16*
%TO.C,D18*%
X211128000Y-48705000D03*
X211128000Y-50755000D03*
%TD*%
D31*
%TO.C,F12*%
X76962000Y-144018000D03*
X85344000Y-146812000D03*
D32*
X81153000Y-145415000D03*
%TD*%
D37*
%TO.C,L7*%
X49942000Y-102594000D03*
X58070000Y-102594000D03*
%TD*%
D20*
%TO.C,JP28*%
X79502000Y-132842000D03*
X76962000Y-132842000D03*
D19*
X74422000Y-132842000D03*
%TD*%
D34*
%TO.C,D12*%
X244139000Y-78432000D03*
X246189000Y-78432000D03*
%TD*%
%TO.C,D4*%
X256340000Y-137106000D03*
X254290000Y-137106000D03*
%TD*%
D19*
%TO.C,J29*%
X106920000Y-138146000D03*
D20*
X106920000Y-135606000D03*
X106920000Y-133066000D03*
%TD*%
D23*
%TO.C,R12*%
X234616750Y-87819500D03*
X234616750Y-85819500D03*
%TD*%
D19*
%TO.C,JP22*%
X36955000Y-75003000D03*
D20*
X36955000Y-72463000D03*
X36955000Y-69923000D03*
%TD*%
D31*
%TO.C,F7*%
X41527000Y-72463000D03*
X44321000Y-64081000D03*
D32*
X42924000Y-68272000D03*
%TD*%
D31*
%TO.C,F8*%
X24255000Y-72463000D03*
X27049000Y-64081000D03*
D32*
X25652000Y-68272000D03*
%TD*%
D23*
%TO.C,R24*%
X265484000Y-107880000D03*
X265484000Y-105880000D03*
%TD*%
D35*
%TO.C,C14*%
X60198000Y-137181500D03*
X60198000Y-135106500D03*
%TD*%
D19*
%TO.C,J19*%
X124553000Y-62557000D03*
D20*
X127093000Y-62557000D03*
%TD*%
D24*
%TO.C,R6*%
X227384000Y-113452000D03*
X227384000Y-111452000D03*
%TD*%
D10*
%TO.C,J7*%
X286312000Y-137614000D03*
X286312000Y-127454000D03*
D42*
X277422000Y-130624000D03*
D43*
X279962000Y-131894000D03*
X277422000Y-133164000D03*
X279962000Y-134434000D03*
%TD*%
D19*
%TO.C,JP2*%
X229182500Y-129511500D03*
D20*
X229182500Y-126971500D03*
%TD*%
D24*
%TO.C,R40*%
X263961000Y-95831000D03*
X263961000Y-93831000D03*
%TD*%
D38*
%TO.C,C11*%
X93089000Y-67129000D03*
X93089000Y-62049000D03*
%TD*%
D24*
%TO.C,R33*%
X260659000Y-78591000D03*
X260659000Y-80591000D03*
%TD*%
%TO.C,R22*%
X265484000Y-114532000D03*
X265484000Y-116532000D03*
%TD*%
D44*
%TO.C,U3*%
X168588500Y-127857200D03*
X168588500Y-126587200D03*
X168588500Y-125317200D03*
X168588500Y-124047200D03*
X168588500Y-122777200D03*
X168588500Y-121507200D03*
X168588500Y-120237200D03*
X168588500Y-118967200D03*
X161588500Y-118967200D03*
X161588500Y-120237200D03*
X161588500Y-121507200D03*
X161588500Y-122777200D03*
X161588500Y-124047200D03*
X161588500Y-125317200D03*
X161588500Y-126587200D03*
X161588500Y-127857200D03*
%TD*%
D24*
%TO.C,R29*%
X267263000Y-78591000D03*
X267263000Y-80591000D03*
%TD*%
D19*
%TO.C,J23*%
X122089200Y-28289000D03*
D20*
X124629200Y-28289000D03*
%TD*%
D23*
%TO.C,R28*%
X267263000Y-73765000D03*
X267263000Y-75765000D03*
%TD*%
D20*
%TO.C,JP42*%
X122428000Y-137160000D03*
X119888000Y-137160000D03*
D19*
X117348000Y-137160000D03*
%TD*%
M02*
