M48
; DRILL file {KiCad 8.0.1} date 2024-04-02T21:45:01-0600
; FORMAT={-:-/ absolute / inch / decimal}
; #@! TF.CreationDate,2024-04-02T21:45:01-06:00
; #@! TF.GenerationSoftware,Kicad,Pcbnew,8.0.1
; #@! TF.FileFunction,NonPlated,1,2,NPTH
FMAT,2
INCH
; #@! TA.AperFunction,NonPlated,NPTH,ComponentDrill
T1C0.1280
; #@! TA.AperFunction,NonPlated,NPTH,ComponentDrill
T2C0.1460
%
G90
G05
T1
X0.6905Y-4.39
X0.6905Y-4.84
X0.6926Y-1.6229
X0.6926Y-2.0729
X5.3621Y-1.6679
X5.3621Y-2.1179
X7.3895Y-4.365
X7.3895Y-4.815
X7.645Y-1.9529
X7.645Y-2.4029
X8.0921Y-3.8487
X8.0921Y-4.2987
X8.1381Y-1.2385
X8.5881Y-1.2385
X8.8229Y-5.7582
X9.1975Y-1.2403
X9.2229Y-5.7582
X9.4029Y-5.7582
X9.6475Y-1.2403
X9.8029Y-5.7582
X10.2626Y-1.236
X10.7126Y-1.236
X11.1521Y-4.1479
X11.1521Y-4.5979
X11.1522Y-3.1229
X11.1522Y-3.5729
X11.2721Y-5.0179
X11.2721Y-5.4179
T2
X1.0099Y-2.6879
X1.0549Y-1.0479
X1.6899Y-2.6879
X1.6994Y-1.0429
X2.3432Y-1.0329
X2.3799Y-2.6879
X2.9932Y-1.0356
X3.0699Y-2.6879
X3.195Y-5.725
X3.415Y-3.385
X4.0556Y-5.7233
X4.305Y-3.385
X4.87Y-5.72
X5.1Y-3.39
X5.675Y-5.725
X5.935Y-3.405
M30
