%TF.GenerationSoftware,KiCad,Pcbnew,8.0.1*%
%TF.CreationDate,2024-03-27T11:30:44-06:00*%
%TF.ProjectId,ATV_Project_MasterBoard,4154565f-5072-46f6-9a65-63745f4d6173,rev?*%
%TF.SameCoordinates,Original*%
%TF.FileFunction,Paste,Top*%
%TF.FilePolarity,Positive*%
%FSLAX46Y46*%
G04 Gerber Fmt 4.6, Leading zero omitted, Abs format (unit mm)*
G04 Created by KiCad (PCBNEW 8.0.1) date 2024-03-27 11:30:44*
%MOMM*%
%LPD*%
G01*
G04 APERTURE LIST*
G04 Aperture macros list*
%AMRoundRect*
0 Rectangle with rounded corners*
0 $1 Rounding radius*
0 $2 $3 $4 $5 $6 $7 $8 $9 X,Y pos of 4 corners*
0 Add a 4 corners polygon primitive as box body*
4,1,4,$2,$3,$4,$5,$6,$7,$8,$9,$2,$3,0*
0 Add four circle primitives for the rounded corners*
1,1,$1+$1,$2,$3*
1,1,$1+$1,$4,$5*
1,1,$1+$1,$6,$7*
1,1,$1+$1,$8,$9*
0 Add four rect primitives between the rounded corners*
20,1,$1+$1,$2,$3,$4,$5,0*
20,1,$1+$1,$4,$5,$6,$7,0*
20,1,$1+$1,$6,$7,$8,$9,0*
20,1,$1+$1,$8,$9,$2,$3,0*%
G04 Aperture macros list end*
%ADD10RoundRect,0.375000X-0.625000X-0.375000X0.625000X-0.375000X0.625000X0.375000X-0.625000X0.375000X0*%
%ADD11RoundRect,0.500000X-0.500000X-1.400000X0.500000X-1.400000X0.500000X1.400000X-0.500000X1.400000X0*%
%ADD12R,1.500000X0.380000*%
%ADD13RoundRect,0.250000X0.450000X-0.350000X0.450000X0.350000X-0.450000X0.350000X-0.450000X-0.350000X0*%
%ADD14RoundRect,0.250000X-0.450000X0.350000X-0.450000X-0.350000X0.450000X-0.350000X0.450000X0.350000X0*%
%ADD15RoundRect,0.250000X0.350000X0.450000X-0.350000X0.450000X-0.350000X-0.450000X0.350000X-0.450000X0*%
%ADD16RoundRect,0.250000X-0.350000X-0.450000X0.350000X-0.450000X0.350000X0.450000X-0.350000X0.450000X0*%
%ADD17RoundRect,0.250000X-0.325000X-0.450000X0.325000X-0.450000X0.325000X0.450000X-0.325000X0.450000X0*%
%ADD18RoundRect,0.250000X0.450000X-0.325000X0.450000X0.325000X-0.450000X0.325000X-0.450000X-0.325000X0*%
%ADD19RoundRect,0.250000X-0.337500X-0.475000X0.337500X-0.475000X0.337500X0.475000X-0.337500X0.475000X0*%
%ADD20RoundRect,0.250000X0.475000X-0.337500X0.475000X0.337500X-0.475000X0.337500X-0.475000X-0.337500X0*%
%ADD21RoundRect,0.250000X-0.475000X0.337500X-0.475000X-0.337500X0.475000X-0.337500X0.475000X0.337500X0*%
G04 APERTURE END LIST*
D10*
%TO.C,U2*%
X155764500Y-67423000D03*
X155764500Y-69723000D03*
D11*
X162064500Y-69723000D03*
D10*
X155764500Y-72023000D03*
%TD*%
D12*
%TO.C,U1*%
X178574500Y-92321000D03*
X178574500Y-92971000D03*
X178574500Y-93621000D03*
X178574500Y-94271000D03*
X178574500Y-94921000D03*
X178574500Y-95571000D03*
X178574500Y-96221000D03*
X178574500Y-96871000D03*
X178574500Y-97521000D03*
X178574500Y-98171000D03*
X178574500Y-98821000D03*
X178574500Y-99471000D03*
X178574500Y-100121000D03*
X178574500Y-100771000D03*
X170605700Y-100780800D03*
X170605700Y-100130800D03*
X170605700Y-99480800D03*
X170605700Y-98830800D03*
X170605700Y-98180800D03*
X170605700Y-97530800D03*
X170605700Y-96880800D03*
X170605700Y-96230800D03*
X170605700Y-95580800D03*
X170605700Y-94930800D03*
X170605700Y-94280800D03*
X170605700Y-93630800D03*
X170605700Y-92980800D03*
X170605700Y-92330800D03*
%TD*%
D13*
%TO.C,R17*%
X165112500Y-91091000D03*
%TD*%
%TO.C,R16*%
X160286500Y-91091000D03*
%TD*%
%TO.C,R15*%
X155183500Y-91233000D03*
%TD*%
%TO.C,R14*%
X150103500Y-91124750D03*
%TD*%
D14*
%TO.C,R13*%
X150115000Y-86917750D03*
X150115000Y-88917750D03*
%TD*%
%TO.C,R12*%
X155195000Y-88756000D03*
%TD*%
%TO.C,R11*%
X160275000Y-88646000D03*
%TD*%
%TO.C,R10*%
X165101000Y-86646000D03*
X165101000Y-88646000D03*
%TD*%
D13*
%TO.C,R9*%
X164858500Y-104791000D03*
X164858500Y-106791000D03*
%TD*%
%TO.C,R8*%
X160032500Y-104791000D03*
X160032500Y-106791000D03*
%TD*%
%TO.C,R7*%
X154952500Y-104775000D03*
X154952500Y-106775000D03*
%TD*%
D15*
%TO.C,R6*%
X157739500Y-61468000D03*
X155739500Y-61468000D03*
%TD*%
D13*
%TO.C,R5*%
X150126500Y-104759000D03*
X150126500Y-106759000D03*
%TD*%
D16*
%TO.C,R4*%
X137093000Y-128397000D03*
X135093000Y-128397000D03*
%TD*%
D14*
%TO.C,R3*%
X167398500Y-75209000D03*
X167398500Y-77209000D03*
%TD*%
D15*
%TO.C,R2*%
X179705000Y-104140000D03*
X177705000Y-104140000D03*
%TD*%
%TO.C,R1*%
X180730000Y-121920000D03*
%TD*%
D17*
%TO.C,D6*%
X159794500Y-61468000D03*
X161844500Y-61468000D03*
%TD*%
D18*
%TO.C,D3*%
X172478500Y-79874000D03*
%TD*%
D17*
%TO.C,D2*%
X183125000Y-104140000D03*
X185175000Y-104140000D03*
%TD*%
%TO.C,D1*%
X184150000Y-121920000D03*
X186200000Y-121920000D03*
%TD*%
D19*
%TO.C,C5*%
X146592000Y-128905000D03*
X144517000Y-128905000D03*
%TD*%
D20*
%TO.C,C4*%
X175424500Y-69258000D03*
%TD*%
%TO.C,C3*%
X169709500Y-69258000D03*
%TD*%
%TO.C,C2*%
X150659500Y-71163000D03*
X150659500Y-69088000D03*
%TD*%
D21*
%TO.C,C1*%
X167398500Y-79849000D03*
%TD*%
M02*
