%TF.GenerationSoftware,KiCad,Pcbnew,8.0.1*%
%TF.CreationDate,2024-03-27T11:30:44-06:00*%
%TF.ProjectId,ATV_Project_MasterBoard,4154565f-5072-46f6-9a65-63745f4d6173,rev?*%
%TF.SameCoordinates,Original*%
%TF.FileFunction,Legend,Top*%
%TF.FilePolarity,Positive*%
%FSLAX46Y46*%
G04 Gerber Fmt 4.6, Leading zero omitted, Abs format (unit mm)*
G04 Created by KiCad (PCBNEW 8.0.1) date 2024-03-27 11:30:44*
%MOMM*%
%LPD*%
G01*
G04 APERTURE LIST*
%ADD10C,0.300000*%
%ADD11C,0.150000*%
%ADD12C,0.100000*%
%ADD13C,0.120000*%
%ADD14C,0.119888*%
G04 APERTURE END LIST*
D10*
X190656428Y-65618946D02*
X189942142Y-66118946D01*
X190656428Y-66476089D02*
X189156428Y-66476089D01*
X189156428Y-66476089D02*
X189156428Y-65904660D01*
X189156428Y-65904660D02*
X189227857Y-65761803D01*
X189227857Y-65761803D02*
X189299285Y-65690374D01*
X189299285Y-65690374D02*
X189442142Y-65618946D01*
X189442142Y-65618946D02*
X189656428Y-65618946D01*
X189656428Y-65618946D02*
X189799285Y-65690374D01*
X189799285Y-65690374D02*
X189870714Y-65761803D01*
X189870714Y-65761803D02*
X189942142Y-65904660D01*
X189942142Y-65904660D02*
X189942142Y-66476089D01*
X189656428Y-64333232D02*
X190656428Y-64333232D01*
X189656428Y-64976089D02*
X190442142Y-64976089D01*
X190442142Y-64976089D02*
X190585000Y-64904660D01*
X190585000Y-64904660D02*
X190656428Y-64761803D01*
X190656428Y-64761803D02*
X190656428Y-64547517D01*
X190656428Y-64547517D02*
X190585000Y-64404660D01*
X190585000Y-64404660D02*
X190513571Y-64333232D01*
X189656428Y-63618946D02*
X190656428Y-63618946D01*
X189799285Y-63618946D02*
X189727857Y-63547517D01*
X189727857Y-63547517D02*
X189656428Y-63404660D01*
X189656428Y-63404660D02*
X189656428Y-63190374D01*
X189656428Y-63190374D02*
X189727857Y-63047517D01*
X189727857Y-63047517D02*
X189870714Y-62976089D01*
X189870714Y-62976089D02*
X190656428Y-62976089D01*
X178375328Y-69168489D02*
X176875328Y-69168489D01*
X176875328Y-69168489D02*
X176875328Y-68597060D01*
X176875328Y-68597060D02*
X176946757Y-68454203D01*
X176946757Y-68454203D02*
X177018185Y-68382774D01*
X177018185Y-68382774D02*
X177161042Y-68311346D01*
X177161042Y-68311346D02*
X177375328Y-68311346D01*
X177375328Y-68311346D02*
X177518185Y-68382774D01*
X177518185Y-68382774D02*
X177589614Y-68454203D01*
X177589614Y-68454203D02*
X177661042Y-68597060D01*
X177661042Y-68597060D02*
X177661042Y-69168489D01*
X178375328Y-67668489D02*
X177375328Y-67668489D01*
X177661042Y-67668489D02*
X177518185Y-67597060D01*
X177518185Y-67597060D02*
X177446757Y-67525632D01*
X177446757Y-67525632D02*
X177375328Y-67382774D01*
X177375328Y-67382774D02*
X177375328Y-67239917D01*
X178375328Y-66525632D02*
X178303900Y-66668489D01*
X178303900Y-66668489D02*
X178232471Y-66739918D01*
X178232471Y-66739918D02*
X178089614Y-66811346D01*
X178089614Y-66811346D02*
X177661042Y-66811346D01*
X177661042Y-66811346D02*
X177518185Y-66739918D01*
X177518185Y-66739918D02*
X177446757Y-66668489D01*
X177446757Y-66668489D02*
X177375328Y-66525632D01*
X177375328Y-66525632D02*
X177375328Y-66311346D01*
X177375328Y-66311346D02*
X177446757Y-66168489D01*
X177446757Y-66168489D02*
X177518185Y-66097061D01*
X177518185Y-66097061D02*
X177661042Y-66025632D01*
X177661042Y-66025632D02*
X178089614Y-66025632D01*
X178089614Y-66025632D02*
X178232471Y-66097061D01*
X178232471Y-66097061D02*
X178303900Y-66168489D01*
X178303900Y-66168489D02*
X178375328Y-66311346D01*
X178375328Y-66311346D02*
X178375328Y-66525632D01*
X177375328Y-64739918D02*
X178589614Y-64739918D01*
X178589614Y-64739918D02*
X178732471Y-64811346D01*
X178732471Y-64811346D02*
X178803900Y-64882775D01*
X178803900Y-64882775D02*
X178875328Y-65025632D01*
X178875328Y-65025632D02*
X178875328Y-65239918D01*
X178875328Y-65239918D02*
X178803900Y-65382775D01*
X178303900Y-64739918D02*
X178375328Y-64882775D01*
X178375328Y-64882775D02*
X178375328Y-65168489D01*
X178375328Y-65168489D02*
X178303900Y-65311346D01*
X178303900Y-65311346D02*
X178232471Y-65382775D01*
X178232471Y-65382775D02*
X178089614Y-65454203D01*
X178089614Y-65454203D02*
X177661042Y-65454203D01*
X177661042Y-65454203D02*
X177518185Y-65382775D01*
X177518185Y-65382775D02*
X177446757Y-65311346D01*
X177446757Y-65311346D02*
X177375328Y-65168489D01*
X177375328Y-65168489D02*
X177375328Y-64882775D01*
X177375328Y-64882775D02*
X177446757Y-64739918D01*
X178375328Y-64025632D02*
X177375328Y-64025632D01*
X177661042Y-64025632D02*
X177518185Y-63954203D01*
X177518185Y-63954203D02*
X177446757Y-63882775D01*
X177446757Y-63882775D02*
X177375328Y-63739917D01*
X177375328Y-63739917D02*
X177375328Y-63597060D01*
X178375328Y-62454204D02*
X177589614Y-62454204D01*
X177589614Y-62454204D02*
X177446757Y-62525632D01*
X177446757Y-62525632D02*
X177375328Y-62668489D01*
X177375328Y-62668489D02*
X177375328Y-62954204D01*
X177375328Y-62954204D02*
X177446757Y-63097061D01*
X178303900Y-62454204D02*
X178375328Y-62597061D01*
X178375328Y-62597061D02*
X178375328Y-62954204D01*
X178375328Y-62954204D02*
X178303900Y-63097061D01*
X178303900Y-63097061D02*
X178161042Y-63168489D01*
X178161042Y-63168489D02*
X178018185Y-63168489D01*
X178018185Y-63168489D02*
X177875328Y-63097061D01*
X177875328Y-63097061D02*
X177803900Y-62954204D01*
X177803900Y-62954204D02*
X177803900Y-62597061D01*
X177803900Y-62597061D02*
X177732471Y-62454204D01*
X178375328Y-61739918D02*
X177375328Y-61739918D01*
X177518185Y-61739918D02*
X177446757Y-61668489D01*
X177446757Y-61668489D02*
X177375328Y-61525632D01*
X177375328Y-61525632D02*
X177375328Y-61311346D01*
X177375328Y-61311346D02*
X177446757Y-61168489D01*
X177446757Y-61168489D02*
X177589614Y-61097061D01*
X177589614Y-61097061D02*
X178375328Y-61097061D01*
X177589614Y-61097061D02*
X177446757Y-61025632D01*
X177446757Y-61025632D02*
X177375328Y-60882775D01*
X177375328Y-60882775D02*
X177375328Y-60668489D01*
X177375328Y-60668489D02*
X177446757Y-60525632D01*
X177446757Y-60525632D02*
X177589614Y-60454203D01*
X177589614Y-60454203D02*
X178375328Y-60454203D01*
D11*
X148063380Y-96598666D02*
X147349095Y-96598666D01*
X147349095Y-96598666D02*
X147206238Y-96551047D01*
X147206238Y-96551047D02*
X147111000Y-96455809D01*
X147111000Y-96455809D02*
X147063380Y-96312952D01*
X147063380Y-96312952D02*
X147063380Y-96217714D01*
X147968142Y-97027238D02*
X148015761Y-97074857D01*
X148015761Y-97074857D02*
X148063380Y-97170095D01*
X148063380Y-97170095D02*
X148063380Y-97408190D01*
X148063380Y-97408190D02*
X148015761Y-97503428D01*
X148015761Y-97503428D02*
X147968142Y-97551047D01*
X147968142Y-97551047D02*
X147872904Y-97598666D01*
X147872904Y-97598666D02*
X147777666Y-97598666D01*
X147777666Y-97598666D02*
X147634809Y-97551047D01*
X147634809Y-97551047D02*
X147063380Y-96979619D01*
X147063380Y-96979619D02*
X147063380Y-97598666D01*
X123710866Y-131272819D02*
X123377533Y-130796628D01*
X123139438Y-131272819D02*
X123139438Y-130272819D01*
X123139438Y-130272819D02*
X123520390Y-130272819D01*
X123520390Y-130272819D02*
X123615628Y-130320438D01*
X123615628Y-130320438D02*
X123663247Y-130368057D01*
X123663247Y-130368057D02*
X123710866Y-130463295D01*
X123710866Y-130463295D02*
X123710866Y-130606152D01*
X123710866Y-130606152D02*
X123663247Y-130701390D01*
X123663247Y-130701390D02*
X123615628Y-130749009D01*
X123615628Y-130749009D02*
X123520390Y-130796628D01*
X123520390Y-130796628D02*
X123139438Y-130796628D01*
X124139438Y-130749009D02*
X124472771Y-130749009D01*
X124615628Y-131272819D02*
X124139438Y-131272819D01*
X124139438Y-131272819D02*
X124139438Y-130272819D01*
X124139438Y-130272819D02*
X124615628Y-130272819D01*
X125377533Y-130749009D02*
X125044200Y-130749009D01*
X125044200Y-131272819D02*
X125044200Y-130272819D01*
X125044200Y-130272819D02*
X125520390Y-130272819D01*
X126044200Y-130272819D02*
X126044200Y-130510914D01*
X125806105Y-130415676D02*
X126044200Y-130510914D01*
X126044200Y-130510914D02*
X126282295Y-130415676D01*
X125901343Y-130701390D02*
X126044200Y-130510914D01*
X126044200Y-130510914D02*
X126187057Y-130701390D01*
X126806105Y-130272819D02*
X126806105Y-130510914D01*
X126568010Y-130415676D02*
X126806105Y-130510914D01*
X126806105Y-130510914D02*
X127044200Y-130415676D01*
X126663248Y-130701390D02*
X126806105Y-130510914D01*
X126806105Y-130510914D02*
X126948962Y-130701390D01*
X123710866Y-50194019D02*
X123377533Y-49717828D01*
X123139438Y-50194019D02*
X123139438Y-49194019D01*
X123139438Y-49194019D02*
X123520390Y-49194019D01*
X123520390Y-49194019D02*
X123615628Y-49241638D01*
X123615628Y-49241638D02*
X123663247Y-49289257D01*
X123663247Y-49289257D02*
X123710866Y-49384495D01*
X123710866Y-49384495D02*
X123710866Y-49527352D01*
X123710866Y-49527352D02*
X123663247Y-49622590D01*
X123663247Y-49622590D02*
X123615628Y-49670209D01*
X123615628Y-49670209D02*
X123520390Y-49717828D01*
X123520390Y-49717828D02*
X123139438Y-49717828D01*
X124139438Y-49670209D02*
X124472771Y-49670209D01*
X124615628Y-50194019D02*
X124139438Y-50194019D01*
X124139438Y-50194019D02*
X124139438Y-49194019D01*
X124139438Y-49194019D02*
X124615628Y-49194019D01*
X125377533Y-49670209D02*
X125044200Y-49670209D01*
X125044200Y-50194019D02*
X125044200Y-49194019D01*
X125044200Y-49194019D02*
X125520390Y-49194019D01*
X126044200Y-49194019D02*
X126044200Y-49432114D01*
X125806105Y-49336876D02*
X126044200Y-49432114D01*
X126044200Y-49432114D02*
X126282295Y-49336876D01*
X125901343Y-49622590D02*
X126044200Y-49432114D01*
X126044200Y-49432114D02*
X126187057Y-49622590D01*
X126806105Y-49194019D02*
X126806105Y-49432114D01*
X126568010Y-49336876D02*
X126806105Y-49432114D01*
X126806105Y-49432114D02*
X127044200Y-49336876D01*
X126663248Y-49622590D02*
X126806105Y-49432114D01*
X126806105Y-49432114D02*
X126948962Y-49622590D01*
X186420819Y-120885333D02*
X187135104Y-120885333D01*
X187135104Y-120885333D02*
X187277961Y-120932952D01*
X187277961Y-120932952D02*
X187373200Y-121028190D01*
X187373200Y-121028190D02*
X187420819Y-121171047D01*
X187420819Y-121171047D02*
X187420819Y-121266285D01*
X186420819Y-120504380D02*
X186420819Y-119885333D01*
X186420819Y-119885333D02*
X186801771Y-120218666D01*
X186801771Y-120218666D02*
X186801771Y-120075809D01*
X186801771Y-120075809D02*
X186849390Y-119980571D01*
X186849390Y-119980571D02*
X186897009Y-119932952D01*
X186897009Y-119932952D02*
X186992247Y-119885333D01*
X186992247Y-119885333D02*
X187230342Y-119885333D01*
X187230342Y-119885333D02*
X187325580Y-119932952D01*
X187325580Y-119932952D02*
X187373200Y-119980571D01*
X187373200Y-119980571D02*
X187420819Y-120075809D01*
X187420819Y-120075809D02*
X187420819Y-120361523D01*
X187420819Y-120361523D02*
X187373200Y-120456761D01*
X187373200Y-120456761D02*
X187325580Y-120504380D01*
X204813066Y-131298219D02*
X204479733Y-130822028D01*
X204241638Y-131298219D02*
X204241638Y-130298219D01*
X204241638Y-130298219D02*
X204622590Y-130298219D01*
X204622590Y-130298219D02*
X204717828Y-130345838D01*
X204717828Y-130345838D02*
X204765447Y-130393457D01*
X204765447Y-130393457D02*
X204813066Y-130488695D01*
X204813066Y-130488695D02*
X204813066Y-130631552D01*
X204813066Y-130631552D02*
X204765447Y-130726790D01*
X204765447Y-130726790D02*
X204717828Y-130774409D01*
X204717828Y-130774409D02*
X204622590Y-130822028D01*
X204622590Y-130822028D02*
X204241638Y-130822028D01*
X205241638Y-130774409D02*
X205574971Y-130774409D01*
X205717828Y-131298219D02*
X205241638Y-131298219D01*
X205241638Y-131298219D02*
X205241638Y-130298219D01*
X205241638Y-130298219D02*
X205717828Y-130298219D01*
X206479733Y-130774409D02*
X206146400Y-130774409D01*
X206146400Y-131298219D02*
X206146400Y-130298219D01*
X206146400Y-130298219D02*
X206622590Y-130298219D01*
X207146400Y-130298219D02*
X207146400Y-130536314D01*
X206908305Y-130441076D02*
X207146400Y-130536314D01*
X207146400Y-130536314D02*
X207384495Y-130441076D01*
X207003543Y-130726790D02*
X207146400Y-130536314D01*
X207146400Y-130536314D02*
X207289257Y-130726790D01*
X207908305Y-130298219D02*
X207908305Y-130536314D01*
X207670210Y-130441076D02*
X207908305Y-130536314D01*
X207908305Y-130536314D02*
X208146400Y-130441076D01*
X207765448Y-130726790D02*
X207908305Y-130536314D01*
X207908305Y-130536314D02*
X208051162Y-130726790D01*
X204863866Y-50221419D02*
X204530533Y-49745228D01*
X204292438Y-50221419D02*
X204292438Y-49221419D01*
X204292438Y-49221419D02*
X204673390Y-49221419D01*
X204673390Y-49221419D02*
X204768628Y-49269038D01*
X204768628Y-49269038D02*
X204816247Y-49316657D01*
X204816247Y-49316657D02*
X204863866Y-49411895D01*
X204863866Y-49411895D02*
X204863866Y-49554752D01*
X204863866Y-49554752D02*
X204816247Y-49649990D01*
X204816247Y-49649990D02*
X204768628Y-49697609D01*
X204768628Y-49697609D02*
X204673390Y-49745228D01*
X204673390Y-49745228D02*
X204292438Y-49745228D01*
X205292438Y-49697609D02*
X205625771Y-49697609D01*
X205768628Y-50221419D02*
X205292438Y-50221419D01*
X205292438Y-50221419D02*
X205292438Y-49221419D01*
X205292438Y-49221419D02*
X205768628Y-49221419D01*
X206530533Y-49697609D02*
X206197200Y-49697609D01*
X206197200Y-50221419D02*
X206197200Y-49221419D01*
X206197200Y-49221419D02*
X206673390Y-49221419D01*
X207197200Y-49221419D02*
X207197200Y-49459514D01*
X206959105Y-49364276D02*
X207197200Y-49459514D01*
X207197200Y-49459514D02*
X207435295Y-49364276D01*
X207054343Y-49649990D02*
X207197200Y-49459514D01*
X207197200Y-49459514D02*
X207340057Y-49649990D01*
X207959105Y-49221419D02*
X207959105Y-49459514D01*
X207721010Y-49364276D02*
X207959105Y-49459514D01*
X207959105Y-49459514D02*
X208197200Y-49364276D01*
X207816248Y-49649990D02*
X207959105Y-49459514D01*
X207959105Y-49459514D02*
X208101962Y-49649990D01*
D12*
X119266219Y-122046904D02*
X120075742Y-122046904D01*
X120075742Y-122046904D02*
X120170980Y-121999285D01*
X120170980Y-121999285D02*
X120218600Y-121951666D01*
X120218600Y-121951666D02*
X120266219Y-121856428D01*
X120266219Y-121856428D02*
X120266219Y-121665952D01*
X120266219Y-121665952D02*
X120218600Y-121570714D01*
X120218600Y-121570714D02*
X120170980Y-121523095D01*
X120170980Y-121523095D02*
X120075742Y-121475476D01*
X120075742Y-121475476D02*
X119266219Y-121475476D01*
X119266219Y-121094523D02*
X119266219Y-120475476D01*
X119266219Y-120475476D02*
X119647171Y-120808809D01*
X119647171Y-120808809D02*
X119647171Y-120665952D01*
X119647171Y-120665952D02*
X119694790Y-120570714D01*
X119694790Y-120570714D02*
X119742409Y-120523095D01*
X119742409Y-120523095D02*
X119837647Y-120475476D01*
X119837647Y-120475476D02*
X120075742Y-120475476D01*
X120075742Y-120475476D02*
X120170980Y-120523095D01*
X120170980Y-120523095D02*
X120218600Y-120570714D01*
X120218600Y-120570714D02*
X120266219Y-120665952D01*
X120266219Y-120665952D02*
X120266219Y-120951666D01*
X120266219Y-120951666D02*
X120218600Y-121046904D01*
X120218600Y-121046904D02*
X120170980Y-121094523D01*
X194372700Y-63538267D02*
X194325080Y-63681124D01*
X194325080Y-63681124D02*
X194325080Y-63919219D01*
X194325080Y-63919219D02*
X194372700Y-64014457D01*
X194372700Y-64014457D02*
X194420319Y-64062076D01*
X194420319Y-64062076D02*
X194515557Y-64109695D01*
X194515557Y-64109695D02*
X194610795Y-64109695D01*
X194610795Y-64109695D02*
X194706033Y-64062076D01*
X194706033Y-64062076D02*
X194753652Y-64014457D01*
X194753652Y-64014457D02*
X194801271Y-63919219D01*
X194801271Y-63919219D02*
X194848890Y-63728743D01*
X194848890Y-63728743D02*
X194896509Y-63633505D01*
X194896509Y-63633505D02*
X194944128Y-63585886D01*
X194944128Y-63585886D02*
X195039366Y-63538267D01*
X195039366Y-63538267D02*
X195134604Y-63538267D01*
X195134604Y-63538267D02*
X195229842Y-63585886D01*
X195229842Y-63585886D02*
X195277461Y-63633505D01*
X195277461Y-63633505D02*
X195325080Y-63728743D01*
X195325080Y-63728743D02*
X195325080Y-63966838D01*
X195325080Y-63966838D02*
X195277461Y-64109695D01*
X195325080Y-64443029D02*
X194325080Y-64681124D01*
X194325080Y-64681124D02*
X195039366Y-64871600D01*
X195039366Y-64871600D02*
X194325080Y-65062076D01*
X194325080Y-65062076D02*
X195325080Y-65300172D01*
X195229842Y-65633505D02*
X195277461Y-65681124D01*
X195277461Y-65681124D02*
X195325080Y-65776362D01*
X195325080Y-65776362D02*
X195325080Y-66014457D01*
X195325080Y-66014457D02*
X195277461Y-66109695D01*
X195277461Y-66109695D02*
X195229842Y-66157314D01*
X195229842Y-66157314D02*
X195134604Y-66204933D01*
X195134604Y-66204933D02*
X195039366Y-66204933D01*
X195039366Y-66204933D02*
X194896509Y-66157314D01*
X194896509Y-66157314D02*
X194325080Y-65585886D01*
X194325080Y-65585886D02*
X194325080Y-66204933D01*
X196043167Y-69260800D02*
X196186024Y-69308419D01*
X196186024Y-69308419D02*
X196424119Y-69308419D01*
X196424119Y-69308419D02*
X196519357Y-69260800D01*
X196519357Y-69260800D02*
X196566976Y-69213180D01*
X196566976Y-69213180D02*
X196614595Y-69117942D01*
X196614595Y-69117942D02*
X196614595Y-69022704D01*
X196614595Y-69022704D02*
X196566976Y-68927466D01*
X196566976Y-68927466D02*
X196519357Y-68879847D01*
X196519357Y-68879847D02*
X196424119Y-68832228D01*
X196424119Y-68832228D02*
X196233643Y-68784609D01*
X196233643Y-68784609D02*
X196138405Y-68736990D01*
X196138405Y-68736990D02*
X196090786Y-68689371D01*
X196090786Y-68689371D02*
X196043167Y-68594133D01*
X196043167Y-68594133D02*
X196043167Y-68498895D01*
X196043167Y-68498895D02*
X196090786Y-68403657D01*
X196090786Y-68403657D02*
X196138405Y-68356038D01*
X196138405Y-68356038D02*
X196233643Y-68308419D01*
X196233643Y-68308419D02*
X196471738Y-68308419D01*
X196471738Y-68308419D02*
X196614595Y-68356038D01*
X196947929Y-68308419D02*
X197186024Y-69308419D01*
X197186024Y-69308419D02*
X197376500Y-68594133D01*
X197376500Y-68594133D02*
X197566976Y-69308419D01*
X197566976Y-69308419D02*
X197805072Y-68308419D01*
X198709833Y-69308419D02*
X198138405Y-69308419D01*
X198424119Y-69308419D02*
X198424119Y-68308419D01*
X198424119Y-68308419D02*
X198328881Y-68451276D01*
X198328881Y-68451276D02*
X198233643Y-68546514D01*
X198233643Y-68546514D02*
X198138405Y-68594133D01*
X136934919Y-70659333D02*
X137649204Y-70659333D01*
X137649204Y-70659333D02*
X137792061Y-70706952D01*
X137792061Y-70706952D02*
X137887300Y-70802190D01*
X137887300Y-70802190D02*
X137934919Y-70945047D01*
X137934919Y-70945047D02*
X137934919Y-71040285D01*
X136934919Y-69706952D02*
X136934919Y-70183142D01*
X136934919Y-70183142D02*
X137411109Y-70230761D01*
X137411109Y-70230761D02*
X137363490Y-70183142D01*
X137363490Y-70183142D02*
X137315871Y-70087904D01*
X137315871Y-70087904D02*
X137315871Y-69849809D01*
X137315871Y-69849809D02*
X137363490Y-69754571D01*
X137363490Y-69754571D02*
X137411109Y-69706952D01*
X137411109Y-69706952D02*
X137506347Y-69659333D01*
X137506347Y-69659333D02*
X137744442Y-69659333D01*
X137744442Y-69659333D02*
X137839680Y-69706952D01*
X137839680Y-69706952D02*
X137887300Y-69754571D01*
X137887300Y-69754571D02*
X137934919Y-69849809D01*
X137934919Y-69849809D02*
X137934919Y-70087904D01*
X137934919Y-70087904D02*
X137887300Y-70183142D01*
X137887300Y-70183142D02*
X137839680Y-70230761D01*
D11*
X158152595Y-64677819D02*
X158152595Y-65487342D01*
X158152595Y-65487342D02*
X158200214Y-65582580D01*
X158200214Y-65582580D02*
X158247833Y-65630200D01*
X158247833Y-65630200D02*
X158343071Y-65677819D01*
X158343071Y-65677819D02*
X158533547Y-65677819D01*
X158533547Y-65677819D02*
X158628785Y-65630200D01*
X158628785Y-65630200D02*
X158676404Y-65582580D01*
X158676404Y-65582580D02*
X158724023Y-65487342D01*
X158724023Y-65487342D02*
X158724023Y-64677819D01*
X159152595Y-64773057D02*
X159200214Y-64725438D01*
X159200214Y-64725438D02*
X159295452Y-64677819D01*
X159295452Y-64677819D02*
X159533547Y-64677819D01*
X159533547Y-64677819D02*
X159628785Y-64725438D01*
X159628785Y-64725438D02*
X159676404Y-64773057D01*
X159676404Y-64773057D02*
X159724023Y-64868295D01*
X159724023Y-64868295D02*
X159724023Y-64963533D01*
X159724023Y-64963533D02*
X159676404Y-65106390D01*
X159676404Y-65106390D02*
X159104976Y-65677819D01*
X159104976Y-65677819D02*
X159724023Y-65677819D01*
D12*
X181403080Y-95881895D02*
X180593557Y-95881895D01*
X180593557Y-95881895D02*
X180498319Y-95929514D01*
X180498319Y-95929514D02*
X180450700Y-95977133D01*
X180450700Y-95977133D02*
X180403080Y-96072371D01*
X180403080Y-96072371D02*
X180403080Y-96262847D01*
X180403080Y-96262847D02*
X180450700Y-96358085D01*
X180450700Y-96358085D02*
X180498319Y-96405704D01*
X180498319Y-96405704D02*
X180593557Y-96453323D01*
X180593557Y-96453323D02*
X181403080Y-96453323D01*
X180403080Y-97453323D02*
X180403080Y-96881895D01*
X180403080Y-97167609D02*
X181403080Y-97167609D01*
X181403080Y-97167609D02*
X181260223Y-97072371D01*
X181260223Y-97072371D02*
X181164985Y-96977133D01*
X181164985Y-96977133D02*
X181117366Y-96881895D01*
D11*
X204823319Y-84637476D02*
X204347128Y-84970809D01*
X204823319Y-85208904D02*
X203823319Y-85208904D01*
X203823319Y-85208904D02*
X203823319Y-84827952D01*
X203823319Y-84827952D02*
X203870938Y-84732714D01*
X203870938Y-84732714D02*
X203918557Y-84685095D01*
X203918557Y-84685095D02*
X204013795Y-84637476D01*
X204013795Y-84637476D02*
X204156652Y-84637476D01*
X204156652Y-84637476D02*
X204251890Y-84685095D01*
X204251890Y-84685095D02*
X204299509Y-84732714D01*
X204299509Y-84732714D02*
X204347128Y-84827952D01*
X204347128Y-84827952D02*
X204347128Y-85208904D01*
X204823319Y-84208904D02*
X203823319Y-84208904D01*
X203823319Y-84208904D02*
X204823319Y-83637476D01*
X204823319Y-83637476D02*
X203823319Y-83637476D01*
X203918557Y-83208904D02*
X203870938Y-83161285D01*
X203870938Y-83161285D02*
X203823319Y-83066047D01*
X203823319Y-83066047D02*
X203823319Y-82827952D01*
X203823319Y-82827952D02*
X203870938Y-82732714D01*
X203870938Y-82732714D02*
X203918557Y-82685095D01*
X203918557Y-82685095D02*
X204013795Y-82637476D01*
X204013795Y-82637476D02*
X204109033Y-82637476D01*
X204109033Y-82637476D02*
X204251890Y-82685095D01*
X204251890Y-82685095D02*
X204823319Y-83256523D01*
X204823319Y-83256523D02*
X204823319Y-82637476D01*
X188795319Y-84637476D02*
X188319128Y-84970809D01*
X188795319Y-85208904D02*
X187795319Y-85208904D01*
X187795319Y-85208904D02*
X187795319Y-84827952D01*
X187795319Y-84827952D02*
X187842938Y-84732714D01*
X187842938Y-84732714D02*
X187890557Y-84685095D01*
X187890557Y-84685095D02*
X187985795Y-84637476D01*
X187985795Y-84637476D02*
X188128652Y-84637476D01*
X188128652Y-84637476D02*
X188223890Y-84685095D01*
X188223890Y-84685095D02*
X188271509Y-84732714D01*
X188271509Y-84732714D02*
X188319128Y-84827952D01*
X188319128Y-84827952D02*
X188319128Y-85208904D01*
X188795319Y-84208904D02*
X187795319Y-84208904D01*
X187795319Y-84208904D02*
X188795319Y-83637476D01*
X188795319Y-83637476D02*
X187795319Y-83637476D01*
X188795319Y-82637476D02*
X188795319Y-83208904D01*
X188795319Y-82923190D02*
X187795319Y-82923190D01*
X187795319Y-82923190D02*
X187938176Y-83018428D01*
X187938176Y-83018428D02*
X188033414Y-83113666D01*
X188033414Y-83113666D02*
X188081033Y-83208904D01*
X152242819Y-101464857D02*
X151766628Y-101798190D01*
X152242819Y-102036285D02*
X151242819Y-102036285D01*
X151242819Y-102036285D02*
X151242819Y-101655333D01*
X151242819Y-101655333D02*
X151290438Y-101560095D01*
X151290438Y-101560095D02*
X151338057Y-101512476D01*
X151338057Y-101512476D02*
X151433295Y-101464857D01*
X151433295Y-101464857D02*
X151576152Y-101464857D01*
X151576152Y-101464857D02*
X151671390Y-101512476D01*
X151671390Y-101512476D02*
X151719009Y-101560095D01*
X151719009Y-101560095D02*
X151766628Y-101655333D01*
X151766628Y-101655333D02*
X151766628Y-102036285D01*
X151338057Y-101083904D02*
X151290438Y-101036285D01*
X151290438Y-101036285D02*
X151242819Y-100941047D01*
X151242819Y-100941047D02*
X151242819Y-100702952D01*
X151242819Y-100702952D02*
X151290438Y-100607714D01*
X151290438Y-100607714D02*
X151338057Y-100560095D01*
X151338057Y-100560095D02*
X151433295Y-100512476D01*
X151433295Y-100512476D02*
X151528533Y-100512476D01*
X151528533Y-100512476D02*
X151671390Y-100560095D01*
X151671390Y-100560095D02*
X152242819Y-101131523D01*
X152242819Y-101131523D02*
X152242819Y-100512476D01*
X152242819Y-99560095D02*
X152242819Y-100131523D01*
X152242819Y-99845809D02*
X151242819Y-99845809D01*
X151242819Y-99845809D02*
X151385676Y-99941047D01*
X151385676Y-99941047D02*
X151480914Y-100036285D01*
X151480914Y-100036285D02*
X151528533Y-100131523D01*
X157068819Y-101480857D02*
X156592628Y-101814190D01*
X157068819Y-102052285D02*
X156068819Y-102052285D01*
X156068819Y-102052285D02*
X156068819Y-101671333D01*
X156068819Y-101671333D02*
X156116438Y-101576095D01*
X156116438Y-101576095D02*
X156164057Y-101528476D01*
X156164057Y-101528476D02*
X156259295Y-101480857D01*
X156259295Y-101480857D02*
X156402152Y-101480857D01*
X156402152Y-101480857D02*
X156497390Y-101528476D01*
X156497390Y-101528476D02*
X156545009Y-101576095D01*
X156545009Y-101576095D02*
X156592628Y-101671333D01*
X156592628Y-101671333D02*
X156592628Y-102052285D01*
X156164057Y-101099904D02*
X156116438Y-101052285D01*
X156116438Y-101052285D02*
X156068819Y-100957047D01*
X156068819Y-100957047D02*
X156068819Y-100718952D01*
X156068819Y-100718952D02*
X156116438Y-100623714D01*
X156116438Y-100623714D02*
X156164057Y-100576095D01*
X156164057Y-100576095D02*
X156259295Y-100528476D01*
X156259295Y-100528476D02*
X156354533Y-100528476D01*
X156354533Y-100528476D02*
X156497390Y-100576095D01*
X156497390Y-100576095D02*
X157068819Y-101147523D01*
X157068819Y-101147523D02*
X157068819Y-100528476D01*
X156068819Y-99909428D02*
X156068819Y-99814190D01*
X156068819Y-99814190D02*
X156116438Y-99718952D01*
X156116438Y-99718952D02*
X156164057Y-99671333D01*
X156164057Y-99671333D02*
X156259295Y-99623714D01*
X156259295Y-99623714D02*
X156449771Y-99576095D01*
X156449771Y-99576095D02*
X156687866Y-99576095D01*
X156687866Y-99576095D02*
X156878342Y-99623714D01*
X156878342Y-99623714D02*
X156973580Y-99671333D01*
X156973580Y-99671333D02*
X157021200Y-99718952D01*
X157021200Y-99718952D02*
X157068819Y-99814190D01*
X157068819Y-99814190D02*
X157068819Y-99909428D01*
X157068819Y-99909428D02*
X157021200Y-100004666D01*
X157021200Y-100004666D02*
X156973580Y-100052285D01*
X156973580Y-100052285D02*
X156878342Y-100099904D01*
X156878342Y-100099904D02*
X156687866Y-100147523D01*
X156687866Y-100147523D02*
X156449771Y-100147523D01*
X156449771Y-100147523D02*
X156259295Y-100099904D01*
X156259295Y-100099904D02*
X156164057Y-100052285D01*
X156164057Y-100052285D02*
X156116438Y-100004666D01*
X156116438Y-100004666D02*
X156068819Y-99909428D01*
X162125819Y-101734857D02*
X161649628Y-102068190D01*
X162125819Y-102306285D02*
X161125819Y-102306285D01*
X161125819Y-102306285D02*
X161125819Y-101925333D01*
X161125819Y-101925333D02*
X161173438Y-101830095D01*
X161173438Y-101830095D02*
X161221057Y-101782476D01*
X161221057Y-101782476D02*
X161316295Y-101734857D01*
X161316295Y-101734857D02*
X161459152Y-101734857D01*
X161459152Y-101734857D02*
X161554390Y-101782476D01*
X161554390Y-101782476D02*
X161602009Y-101830095D01*
X161602009Y-101830095D02*
X161649628Y-101925333D01*
X161649628Y-101925333D02*
X161649628Y-102306285D01*
X162125819Y-100782476D02*
X162125819Y-101353904D01*
X162125819Y-101068190D02*
X161125819Y-101068190D01*
X161125819Y-101068190D02*
X161268676Y-101163428D01*
X161268676Y-101163428D02*
X161363914Y-101258666D01*
X161363914Y-101258666D02*
X161411533Y-101353904D01*
X162125819Y-100306285D02*
X162125819Y-100115809D01*
X162125819Y-100115809D02*
X162078200Y-100020571D01*
X162078200Y-100020571D02*
X162030580Y-99972952D01*
X162030580Y-99972952D02*
X161887723Y-99877714D01*
X161887723Y-99877714D02*
X161697247Y-99830095D01*
X161697247Y-99830095D02*
X161316295Y-99830095D01*
X161316295Y-99830095D02*
X161221057Y-99877714D01*
X161221057Y-99877714D02*
X161173438Y-99925333D01*
X161173438Y-99925333D02*
X161125819Y-100020571D01*
X161125819Y-100020571D02*
X161125819Y-100211047D01*
X161125819Y-100211047D02*
X161173438Y-100306285D01*
X161173438Y-100306285D02*
X161221057Y-100353904D01*
X161221057Y-100353904D02*
X161316295Y-100401523D01*
X161316295Y-100401523D02*
X161554390Y-100401523D01*
X161554390Y-100401523D02*
X161649628Y-100353904D01*
X161649628Y-100353904D02*
X161697247Y-100306285D01*
X161697247Y-100306285D02*
X161744866Y-100211047D01*
X161744866Y-100211047D02*
X161744866Y-100020571D01*
X161744866Y-100020571D02*
X161697247Y-99925333D01*
X161697247Y-99925333D02*
X161649628Y-99877714D01*
X161649628Y-99877714D02*
X161554390Y-99830095D01*
X166951819Y-101718857D02*
X166475628Y-102052190D01*
X166951819Y-102290285D02*
X165951819Y-102290285D01*
X165951819Y-102290285D02*
X165951819Y-101909333D01*
X165951819Y-101909333D02*
X165999438Y-101814095D01*
X165999438Y-101814095D02*
X166047057Y-101766476D01*
X166047057Y-101766476D02*
X166142295Y-101718857D01*
X166142295Y-101718857D02*
X166285152Y-101718857D01*
X166285152Y-101718857D02*
X166380390Y-101766476D01*
X166380390Y-101766476D02*
X166428009Y-101814095D01*
X166428009Y-101814095D02*
X166475628Y-101909333D01*
X166475628Y-101909333D02*
X166475628Y-102290285D01*
X166951819Y-100766476D02*
X166951819Y-101337904D01*
X166951819Y-101052190D02*
X165951819Y-101052190D01*
X165951819Y-101052190D02*
X166094676Y-101147428D01*
X166094676Y-101147428D02*
X166189914Y-101242666D01*
X166189914Y-101242666D02*
X166237533Y-101337904D01*
X166380390Y-100195047D02*
X166332771Y-100290285D01*
X166332771Y-100290285D02*
X166285152Y-100337904D01*
X166285152Y-100337904D02*
X166189914Y-100385523D01*
X166189914Y-100385523D02*
X166142295Y-100385523D01*
X166142295Y-100385523D02*
X166047057Y-100337904D01*
X166047057Y-100337904D02*
X165999438Y-100290285D01*
X165999438Y-100290285D02*
X165951819Y-100195047D01*
X165951819Y-100195047D02*
X165951819Y-100004571D01*
X165951819Y-100004571D02*
X165999438Y-99909333D01*
X165999438Y-99909333D02*
X166047057Y-99861714D01*
X166047057Y-99861714D02*
X166142295Y-99814095D01*
X166142295Y-99814095D02*
X166189914Y-99814095D01*
X166189914Y-99814095D02*
X166285152Y-99861714D01*
X166285152Y-99861714D02*
X166332771Y-99909333D01*
X166332771Y-99909333D02*
X166380390Y-100004571D01*
X166380390Y-100004571D02*
X166380390Y-100195047D01*
X166380390Y-100195047D02*
X166428009Y-100290285D01*
X166428009Y-100290285D02*
X166475628Y-100337904D01*
X166475628Y-100337904D02*
X166570866Y-100385523D01*
X166570866Y-100385523D02*
X166761342Y-100385523D01*
X166761342Y-100385523D02*
X166856580Y-100337904D01*
X166856580Y-100337904D02*
X166904200Y-100290285D01*
X166904200Y-100290285D02*
X166951819Y-100195047D01*
X166951819Y-100195047D02*
X166951819Y-100004571D01*
X166951819Y-100004571D02*
X166904200Y-99909333D01*
X166904200Y-99909333D02*
X166856580Y-99861714D01*
X166856580Y-99861714D02*
X166761342Y-99814095D01*
X166761342Y-99814095D02*
X166570866Y-99814095D01*
X166570866Y-99814095D02*
X166475628Y-99861714D01*
X166475628Y-99861714D02*
X166428009Y-99909333D01*
X166428009Y-99909333D02*
X166380390Y-100004571D01*
X163917319Y-92733857D02*
X163441128Y-93067190D01*
X163917319Y-93305285D02*
X162917319Y-93305285D01*
X162917319Y-93305285D02*
X162917319Y-92924333D01*
X162917319Y-92924333D02*
X162964938Y-92829095D01*
X162964938Y-92829095D02*
X163012557Y-92781476D01*
X163012557Y-92781476D02*
X163107795Y-92733857D01*
X163107795Y-92733857D02*
X163250652Y-92733857D01*
X163250652Y-92733857D02*
X163345890Y-92781476D01*
X163345890Y-92781476D02*
X163393509Y-92829095D01*
X163393509Y-92829095D02*
X163441128Y-92924333D01*
X163441128Y-92924333D02*
X163441128Y-93305285D01*
X163917319Y-91781476D02*
X163917319Y-92352904D01*
X163917319Y-92067190D02*
X162917319Y-92067190D01*
X162917319Y-92067190D02*
X163060176Y-92162428D01*
X163060176Y-92162428D02*
X163155414Y-92257666D01*
X163155414Y-92257666D02*
X163203033Y-92352904D01*
X162917319Y-91448142D02*
X162917319Y-90781476D01*
X162917319Y-90781476D02*
X163917319Y-91210047D01*
X159091319Y-92733857D02*
X158615128Y-93067190D01*
X159091319Y-93305285D02*
X158091319Y-93305285D01*
X158091319Y-93305285D02*
X158091319Y-92924333D01*
X158091319Y-92924333D02*
X158138938Y-92829095D01*
X158138938Y-92829095D02*
X158186557Y-92781476D01*
X158186557Y-92781476D02*
X158281795Y-92733857D01*
X158281795Y-92733857D02*
X158424652Y-92733857D01*
X158424652Y-92733857D02*
X158519890Y-92781476D01*
X158519890Y-92781476D02*
X158567509Y-92829095D01*
X158567509Y-92829095D02*
X158615128Y-92924333D01*
X158615128Y-92924333D02*
X158615128Y-93305285D01*
X159091319Y-91781476D02*
X159091319Y-92352904D01*
X159091319Y-92067190D02*
X158091319Y-92067190D01*
X158091319Y-92067190D02*
X158234176Y-92162428D01*
X158234176Y-92162428D02*
X158329414Y-92257666D01*
X158329414Y-92257666D02*
X158377033Y-92352904D01*
X158091319Y-90924333D02*
X158091319Y-91114809D01*
X158091319Y-91114809D02*
X158138938Y-91210047D01*
X158138938Y-91210047D02*
X158186557Y-91257666D01*
X158186557Y-91257666D02*
X158329414Y-91352904D01*
X158329414Y-91352904D02*
X158519890Y-91400523D01*
X158519890Y-91400523D02*
X158900842Y-91400523D01*
X158900842Y-91400523D02*
X158996080Y-91352904D01*
X158996080Y-91352904D02*
X159043700Y-91305285D01*
X159043700Y-91305285D02*
X159091319Y-91210047D01*
X159091319Y-91210047D02*
X159091319Y-91019571D01*
X159091319Y-91019571D02*
X159043700Y-90924333D01*
X159043700Y-90924333D02*
X158996080Y-90876714D01*
X158996080Y-90876714D02*
X158900842Y-90829095D01*
X158900842Y-90829095D02*
X158662747Y-90829095D01*
X158662747Y-90829095D02*
X158567509Y-90876714D01*
X158567509Y-90876714D02*
X158519890Y-90924333D01*
X158519890Y-90924333D02*
X158472271Y-91019571D01*
X158472271Y-91019571D02*
X158472271Y-91210047D01*
X158472271Y-91210047D02*
X158519890Y-91305285D01*
X158519890Y-91305285D02*
X158567509Y-91352904D01*
X158567509Y-91352904D02*
X158662747Y-91400523D01*
X153988319Y-92875857D02*
X153512128Y-93209190D01*
X153988319Y-93447285D02*
X152988319Y-93447285D01*
X152988319Y-93447285D02*
X152988319Y-93066333D01*
X152988319Y-93066333D02*
X153035938Y-92971095D01*
X153035938Y-92971095D02*
X153083557Y-92923476D01*
X153083557Y-92923476D02*
X153178795Y-92875857D01*
X153178795Y-92875857D02*
X153321652Y-92875857D01*
X153321652Y-92875857D02*
X153416890Y-92923476D01*
X153416890Y-92923476D02*
X153464509Y-92971095D01*
X153464509Y-92971095D02*
X153512128Y-93066333D01*
X153512128Y-93066333D02*
X153512128Y-93447285D01*
X153988319Y-91923476D02*
X153988319Y-92494904D01*
X153988319Y-92209190D02*
X152988319Y-92209190D01*
X152988319Y-92209190D02*
X153131176Y-92304428D01*
X153131176Y-92304428D02*
X153226414Y-92399666D01*
X153226414Y-92399666D02*
X153274033Y-92494904D01*
X152988319Y-91018714D02*
X152988319Y-91494904D01*
X152988319Y-91494904D02*
X153464509Y-91542523D01*
X153464509Y-91542523D02*
X153416890Y-91494904D01*
X153416890Y-91494904D02*
X153369271Y-91399666D01*
X153369271Y-91399666D02*
X153369271Y-91161571D01*
X153369271Y-91161571D02*
X153416890Y-91066333D01*
X153416890Y-91066333D02*
X153464509Y-91018714D01*
X153464509Y-91018714D02*
X153559747Y-90971095D01*
X153559747Y-90971095D02*
X153797842Y-90971095D01*
X153797842Y-90971095D02*
X153893080Y-91018714D01*
X153893080Y-91018714D02*
X153940700Y-91066333D01*
X153940700Y-91066333D02*
X153988319Y-91161571D01*
X153988319Y-91161571D02*
X153988319Y-91399666D01*
X153988319Y-91399666D02*
X153940700Y-91494904D01*
X153940700Y-91494904D02*
X153893080Y-91542523D01*
X148908319Y-92767607D02*
X148432128Y-93100940D01*
X148908319Y-93339035D02*
X147908319Y-93339035D01*
X147908319Y-93339035D02*
X147908319Y-92958083D01*
X147908319Y-92958083D02*
X147955938Y-92862845D01*
X147955938Y-92862845D02*
X148003557Y-92815226D01*
X148003557Y-92815226D02*
X148098795Y-92767607D01*
X148098795Y-92767607D02*
X148241652Y-92767607D01*
X148241652Y-92767607D02*
X148336890Y-92815226D01*
X148336890Y-92815226D02*
X148384509Y-92862845D01*
X148384509Y-92862845D02*
X148432128Y-92958083D01*
X148432128Y-92958083D02*
X148432128Y-93339035D01*
X148908319Y-91815226D02*
X148908319Y-92386654D01*
X148908319Y-92100940D02*
X147908319Y-92100940D01*
X147908319Y-92100940D02*
X148051176Y-92196178D01*
X148051176Y-92196178D02*
X148146414Y-92291416D01*
X148146414Y-92291416D02*
X148194033Y-92386654D01*
X148241652Y-90958083D02*
X148908319Y-90958083D01*
X147860700Y-91196178D02*
X148574985Y-91434273D01*
X148574985Y-91434273D02*
X148574985Y-90815226D01*
X152219819Y-88560607D02*
X151743628Y-88893940D01*
X152219819Y-89132035D02*
X151219819Y-89132035D01*
X151219819Y-89132035D02*
X151219819Y-88751083D01*
X151219819Y-88751083D02*
X151267438Y-88655845D01*
X151267438Y-88655845D02*
X151315057Y-88608226D01*
X151315057Y-88608226D02*
X151410295Y-88560607D01*
X151410295Y-88560607D02*
X151553152Y-88560607D01*
X151553152Y-88560607D02*
X151648390Y-88608226D01*
X151648390Y-88608226D02*
X151696009Y-88655845D01*
X151696009Y-88655845D02*
X151743628Y-88751083D01*
X151743628Y-88751083D02*
X151743628Y-89132035D01*
X152219819Y-87608226D02*
X152219819Y-88179654D01*
X152219819Y-87893940D02*
X151219819Y-87893940D01*
X151219819Y-87893940D02*
X151362676Y-87989178D01*
X151362676Y-87989178D02*
X151457914Y-88084416D01*
X151457914Y-88084416D02*
X151505533Y-88179654D01*
X151219819Y-87274892D02*
X151219819Y-86655845D01*
X151219819Y-86655845D02*
X151600771Y-86989178D01*
X151600771Y-86989178D02*
X151600771Y-86846321D01*
X151600771Y-86846321D02*
X151648390Y-86751083D01*
X151648390Y-86751083D02*
X151696009Y-86703464D01*
X151696009Y-86703464D02*
X151791247Y-86655845D01*
X151791247Y-86655845D02*
X152029342Y-86655845D01*
X152029342Y-86655845D02*
X152124580Y-86703464D01*
X152124580Y-86703464D02*
X152172200Y-86751083D01*
X152172200Y-86751083D02*
X152219819Y-86846321D01*
X152219819Y-86846321D02*
X152219819Y-87132035D01*
X152219819Y-87132035D02*
X152172200Y-87227273D01*
X152172200Y-87227273D02*
X152124580Y-87274892D01*
X157299819Y-88398857D02*
X156823628Y-88732190D01*
X157299819Y-88970285D02*
X156299819Y-88970285D01*
X156299819Y-88970285D02*
X156299819Y-88589333D01*
X156299819Y-88589333D02*
X156347438Y-88494095D01*
X156347438Y-88494095D02*
X156395057Y-88446476D01*
X156395057Y-88446476D02*
X156490295Y-88398857D01*
X156490295Y-88398857D02*
X156633152Y-88398857D01*
X156633152Y-88398857D02*
X156728390Y-88446476D01*
X156728390Y-88446476D02*
X156776009Y-88494095D01*
X156776009Y-88494095D02*
X156823628Y-88589333D01*
X156823628Y-88589333D02*
X156823628Y-88970285D01*
X157299819Y-87446476D02*
X157299819Y-88017904D01*
X157299819Y-87732190D02*
X156299819Y-87732190D01*
X156299819Y-87732190D02*
X156442676Y-87827428D01*
X156442676Y-87827428D02*
X156537914Y-87922666D01*
X156537914Y-87922666D02*
X156585533Y-88017904D01*
X156395057Y-87065523D02*
X156347438Y-87017904D01*
X156347438Y-87017904D02*
X156299819Y-86922666D01*
X156299819Y-86922666D02*
X156299819Y-86684571D01*
X156299819Y-86684571D02*
X156347438Y-86589333D01*
X156347438Y-86589333D02*
X156395057Y-86541714D01*
X156395057Y-86541714D02*
X156490295Y-86494095D01*
X156490295Y-86494095D02*
X156585533Y-86494095D01*
X156585533Y-86494095D02*
X156728390Y-86541714D01*
X156728390Y-86541714D02*
X157299819Y-87113142D01*
X157299819Y-87113142D02*
X157299819Y-86494095D01*
X162379819Y-88288857D02*
X161903628Y-88622190D01*
X162379819Y-88860285D02*
X161379819Y-88860285D01*
X161379819Y-88860285D02*
X161379819Y-88479333D01*
X161379819Y-88479333D02*
X161427438Y-88384095D01*
X161427438Y-88384095D02*
X161475057Y-88336476D01*
X161475057Y-88336476D02*
X161570295Y-88288857D01*
X161570295Y-88288857D02*
X161713152Y-88288857D01*
X161713152Y-88288857D02*
X161808390Y-88336476D01*
X161808390Y-88336476D02*
X161856009Y-88384095D01*
X161856009Y-88384095D02*
X161903628Y-88479333D01*
X161903628Y-88479333D02*
X161903628Y-88860285D01*
X162379819Y-87336476D02*
X162379819Y-87907904D01*
X162379819Y-87622190D02*
X161379819Y-87622190D01*
X161379819Y-87622190D02*
X161522676Y-87717428D01*
X161522676Y-87717428D02*
X161617914Y-87812666D01*
X161617914Y-87812666D02*
X161665533Y-87907904D01*
X162379819Y-86384095D02*
X162379819Y-86955523D01*
X162379819Y-86669809D02*
X161379819Y-86669809D01*
X161379819Y-86669809D02*
X161522676Y-86765047D01*
X161522676Y-86765047D02*
X161617914Y-86860285D01*
X161617914Y-86860285D02*
X161665533Y-86955523D01*
X167205819Y-88288857D02*
X166729628Y-88622190D01*
X167205819Y-88860285D02*
X166205819Y-88860285D01*
X166205819Y-88860285D02*
X166205819Y-88479333D01*
X166205819Y-88479333D02*
X166253438Y-88384095D01*
X166253438Y-88384095D02*
X166301057Y-88336476D01*
X166301057Y-88336476D02*
X166396295Y-88288857D01*
X166396295Y-88288857D02*
X166539152Y-88288857D01*
X166539152Y-88288857D02*
X166634390Y-88336476D01*
X166634390Y-88336476D02*
X166682009Y-88384095D01*
X166682009Y-88384095D02*
X166729628Y-88479333D01*
X166729628Y-88479333D02*
X166729628Y-88860285D01*
X167205819Y-87336476D02*
X167205819Y-87907904D01*
X167205819Y-87622190D02*
X166205819Y-87622190D01*
X166205819Y-87622190D02*
X166348676Y-87717428D01*
X166348676Y-87717428D02*
X166443914Y-87812666D01*
X166443914Y-87812666D02*
X166491533Y-87907904D01*
X166205819Y-86717428D02*
X166205819Y-86622190D01*
X166205819Y-86622190D02*
X166253438Y-86526952D01*
X166253438Y-86526952D02*
X166301057Y-86479333D01*
X166301057Y-86479333D02*
X166396295Y-86431714D01*
X166396295Y-86431714D02*
X166586771Y-86384095D01*
X166586771Y-86384095D02*
X166824866Y-86384095D01*
X166824866Y-86384095D02*
X167015342Y-86431714D01*
X167015342Y-86431714D02*
X167110580Y-86479333D01*
X167110580Y-86479333D02*
X167158200Y-86526952D01*
X167158200Y-86526952D02*
X167205819Y-86622190D01*
X167205819Y-86622190D02*
X167205819Y-86717428D01*
X167205819Y-86717428D02*
X167158200Y-86812666D01*
X167158200Y-86812666D02*
X167110580Y-86860285D01*
X167110580Y-86860285D02*
X167015342Y-86907904D01*
X167015342Y-86907904D02*
X166824866Y-86955523D01*
X166824866Y-86955523D02*
X166586771Y-86955523D01*
X166586771Y-86955523D02*
X166396295Y-86907904D01*
X166396295Y-86907904D02*
X166301057Y-86860285D01*
X166301057Y-86860285D02*
X166253438Y-86812666D01*
X166253438Y-86812666D02*
X166205819Y-86717428D01*
X163663319Y-105957666D02*
X163187128Y-106290999D01*
X163663319Y-106529094D02*
X162663319Y-106529094D01*
X162663319Y-106529094D02*
X162663319Y-106148142D01*
X162663319Y-106148142D02*
X162710938Y-106052904D01*
X162710938Y-106052904D02*
X162758557Y-106005285D01*
X162758557Y-106005285D02*
X162853795Y-105957666D01*
X162853795Y-105957666D02*
X162996652Y-105957666D01*
X162996652Y-105957666D02*
X163091890Y-106005285D01*
X163091890Y-106005285D02*
X163139509Y-106052904D01*
X163139509Y-106052904D02*
X163187128Y-106148142D01*
X163187128Y-106148142D02*
X163187128Y-106529094D01*
X163663319Y-105481475D02*
X163663319Y-105290999D01*
X163663319Y-105290999D02*
X163615700Y-105195761D01*
X163615700Y-105195761D02*
X163568080Y-105148142D01*
X163568080Y-105148142D02*
X163425223Y-105052904D01*
X163425223Y-105052904D02*
X163234747Y-105005285D01*
X163234747Y-105005285D02*
X162853795Y-105005285D01*
X162853795Y-105005285D02*
X162758557Y-105052904D01*
X162758557Y-105052904D02*
X162710938Y-105100523D01*
X162710938Y-105100523D02*
X162663319Y-105195761D01*
X162663319Y-105195761D02*
X162663319Y-105386237D01*
X162663319Y-105386237D02*
X162710938Y-105481475D01*
X162710938Y-105481475D02*
X162758557Y-105529094D01*
X162758557Y-105529094D02*
X162853795Y-105576713D01*
X162853795Y-105576713D02*
X163091890Y-105576713D01*
X163091890Y-105576713D02*
X163187128Y-105529094D01*
X163187128Y-105529094D02*
X163234747Y-105481475D01*
X163234747Y-105481475D02*
X163282366Y-105386237D01*
X163282366Y-105386237D02*
X163282366Y-105195761D01*
X163282366Y-105195761D02*
X163234747Y-105100523D01*
X163234747Y-105100523D02*
X163187128Y-105052904D01*
X163187128Y-105052904D02*
X163091890Y-105005285D01*
X158837319Y-105957666D02*
X158361128Y-106290999D01*
X158837319Y-106529094D02*
X157837319Y-106529094D01*
X157837319Y-106529094D02*
X157837319Y-106148142D01*
X157837319Y-106148142D02*
X157884938Y-106052904D01*
X157884938Y-106052904D02*
X157932557Y-106005285D01*
X157932557Y-106005285D02*
X158027795Y-105957666D01*
X158027795Y-105957666D02*
X158170652Y-105957666D01*
X158170652Y-105957666D02*
X158265890Y-106005285D01*
X158265890Y-106005285D02*
X158313509Y-106052904D01*
X158313509Y-106052904D02*
X158361128Y-106148142D01*
X158361128Y-106148142D02*
X158361128Y-106529094D01*
X158265890Y-105386237D02*
X158218271Y-105481475D01*
X158218271Y-105481475D02*
X158170652Y-105529094D01*
X158170652Y-105529094D02*
X158075414Y-105576713D01*
X158075414Y-105576713D02*
X158027795Y-105576713D01*
X158027795Y-105576713D02*
X157932557Y-105529094D01*
X157932557Y-105529094D02*
X157884938Y-105481475D01*
X157884938Y-105481475D02*
X157837319Y-105386237D01*
X157837319Y-105386237D02*
X157837319Y-105195761D01*
X157837319Y-105195761D02*
X157884938Y-105100523D01*
X157884938Y-105100523D02*
X157932557Y-105052904D01*
X157932557Y-105052904D02*
X158027795Y-105005285D01*
X158027795Y-105005285D02*
X158075414Y-105005285D01*
X158075414Y-105005285D02*
X158170652Y-105052904D01*
X158170652Y-105052904D02*
X158218271Y-105100523D01*
X158218271Y-105100523D02*
X158265890Y-105195761D01*
X158265890Y-105195761D02*
X158265890Y-105386237D01*
X158265890Y-105386237D02*
X158313509Y-105481475D01*
X158313509Y-105481475D02*
X158361128Y-105529094D01*
X158361128Y-105529094D02*
X158456366Y-105576713D01*
X158456366Y-105576713D02*
X158646842Y-105576713D01*
X158646842Y-105576713D02*
X158742080Y-105529094D01*
X158742080Y-105529094D02*
X158789700Y-105481475D01*
X158789700Y-105481475D02*
X158837319Y-105386237D01*
X158837319Y-105386237D02*
X158837319Y-105195761D01*
X158837319Y-105195761D02*
X158789700Y-105100523D01*
X158789700Y-105100523D02*
X158742080Y-105052904D01*
X158742080Y-105052904D02*
X158646842Y-105005285D01*
X158646842Y-105005285D02*
X158456366Y-105005285D01*
X158456366Y-105005285D02*
X158361128Y-105052904D01*
X158361128Y-105052904D02*
X158313509Y-105100523D01*
X158313509Y-105100523D02*
X158265890Y-105195761D01*
X153757319Y-105941666D02*
X153281128Y-106274999D01*
X153757319Y-106513094D02*
X152757319Y-106513094D01*
X152757319Y-106513094D02*
X152757319Y-106132142D01*
X152757319Y-106132142D02*
X152804938Y-106036904D01*
X152804938Y-106036904D02*
X152852557Y-105989285D01*
X152852557Y-105989285D02*
X152947795Y-105941666D01*
X152947795Y-105941666D02*
X153090652Y-105941666D01*
X153090652Y-105941666D02*
X153185890Y-105989285D01*
X153185890Y-105989285D02*
X153233509Y-106036904D01*
X153233509Y-106036904D02*
X153281128Y-106132142D01*
X153281128Y-106132142D02*
X153281128Y-106513094D01*
X152757319Y-105608332D02*
X152757319Y-104941666D01*
X152757319Y-104941666D02*
X153757319Y-105370237D01*
X156572833Y-63572819D02*
X156239500Y-63096628D01*
X156001405Y-63572819D02*
X156001405Y-62572819D01*
X156001405Y-62572819D02*
X156382357Y-62572819D01*
X156382357Y-62572819D02*
X156477595Y-62620438D01*
X156477595Y-62620438D02*
X156525214Y-62668057D01*
X156525214Y-62668057D02*
X156572833Y-62763295D01*
X156572833Y-62763295D02*
X156572833Y-62906152D01*
X156572833Y-62906152D02*
X156525214Y-63001390D01*
X156525214Y-63001390D02*
X156477595Y-63049009D01*
X156477595Y-63049009D02*
X156382357Y-63096628D01*
X156382357Y-63096628D02*
X156001405Y-63096628D01*
X157429976Y-62572819D02*
X157239500Y-62572819D01*
X157239500Y-62572819D02*
X157144262Y-62620438D01*
X157144262Y-62620438D02*
X157096643Y-62668057D01*
X157096643Y-62668057D02*
X157001405Y-62810914D01*
X157001405Y-62810914D02*
X156953786Y-63001390D01*
X156953786Y-63001390D02*
X156953786Y-63382342D01*
X156953786Y-63382342D02*
X157001405Y-63477580D01*
X157001405Y-63477580D02*
X157049024Y-63525200D01*
X157049024Y-63525200D02*
X157144262Y-63572819D01*
X157144262Y-63572819D02*
X157334738Y-63572819D01*
X157334738Y-63572819D02*
X157429976Y-63525200D01*
X157429976Y-63525200D02*
X157477595Y-63477580D01*
X157477595Y-63477580D02*
X157525214Y-63382342D01*
X157525214Y-63382342D02*
X157525214Y-63144247D01*
X157525214Y-63144247D02*
X157477595Y-63049009D01*
X157477595Y-63049009D02*
X157429976Y-63001390D01*
X157429976Y-63001390D02*
X157334738Y-62953771D01*
X157334738Y-62953771D02*
X157144262Y-62953771D01*
X157144262Y-62953771D02*
X157049024Y-63001390D01*
X157049024Y-63001390D02*
X157001405Y-63049009D01*
X157001405Y-63049009D02*
X156953786Y-63144247D01*
X148931319Y-105925666D02*
X148455128Y-106258999D01*
X148931319Y-106497094D02*
X147931319Y-106497094D01*
X147931319Y-106497094D02*
X147931319Y-106116142D01*
X147931319Y-106116142D02*
X147978938Y-106020904D01*
X147978938Y-106020904D02*
X148026557Y-105973285D01*
X148026557Y-105973285D02*
X148121795Y-105925666D01*
X148121795Y-105925666D02*
X148264652Y-105925666D01*
X148264652Y-105925666D02*
X148359890Y-105973285D01*
X148359890Y-105973285D02*
X148407509Y-106020904D01*
X148407509Y-106020904D02*
X148455128Y-106116142D01*
X148455128Y-106116142D02*
X148455128Y-106497094D01*
X147931319Y-105020904D02*
X147931319Y-105497094D01*
X147931319Y-105497094D02*
X148407509Y-105544713D01*
X148407509Y-105544713D02*
X148359890Y-105497094D01*
X148359890Y-105497094D02*
X148312271Y-105401856D01*
X148312271Y-105401856D02*
X148312271Y-105163761D01*
X148312271Y-105163761D02*
X148359890Y-105068523D01*
X148359890Y-105068523D02*
X148407509Y-105020904D01*
X148407509Y-105020904D02*
X148502747Y-104973285D01*
X148502747Y-104973285D02*
X148740842Y-104973285D01*
X148740842Y-104973285D02*
X148836080Y-105020904D01*
X148836080Y-105020904D02*
X148883700Y-105068523D01*
X148883700Y-105068523D02*
X148931319Y-105163761D01*
X148931319Y-105163761D02*
X148931319Y-105401856D01*
X148931319Y-105401856D02*
X148883700Y-105497094D01*
X148883700Y-105497094D02*
X148836080Y-105544713D01*
X135926333Y-127201819D02*
X135593000Y-126725628D01*
X135354905Y-127201819D02*
X135354905Y-126201819D01*
X135354905Y-126201819D02*
X135735857Y-126201819D01*
X135735857Y-126201819D02*
X135831095Y-126249438D01*
X135831095Y-126249438D02*
X135878714Y-126297057D01*
X135878714Y-126297057D02*
X135926333Y-126392295D01*
X135926333Y-126392295D02*
X135926333Y-126535152D01*
X135926333Y-126535152D02*
X135878714Y-126630390D01*
X135878714Y-126630390D02*
X135831095Y-126678009D01*
X135831095Y-126678009D02*
X135735857Y-126725628D01*
X135735857Y-126725628D02*
X135354905Y-126725628D01*
X136783476Y-126535152D02*
X136783476Y-127201819D01*
X136545381Y-126154200D02*
X136307286Y-126868485D01*
X136307286Y-126868485D02*
X136926333Y-126868485D01*
X169503319Y-76375666D02*
X169027128Y-76708999D01*
X169503319Y-76947094D02*
X168503319Y-76947094D01*
X168503319Y-76947094D02*
X168503319Y-76566142D01*
X168503319Y-76566142D02*
X168550938Y-76470904D01*
X168550938Y-76470904D02*
X168598557Y-76423285D01*
X168598557Y-76423285D02*
X168693795Y-76375666D01*
X168693795Y-76375666D02*
X168836652Y-76375666D01*
X168836652Y-76375666D02*
X168931890Y-76423285D01*
X168931890Y-76423285D02*
X168979509Y-76470904D01*
X168979509Y-76470904D02*
X169027128Y-76566142D01*
X169027128Y-76566142D02*
X169027128Y-76947094D01*
X168503319Y-76042332D02*
X168503319Y-75423285D01*
X168503319Y-75423285D02*
X168884271Y-75756618D01*
X168884271Y-75756618D02*
X168884271Y-75613761D01*
X168884271Y-75613761D02*
X168931890Y-75518523D01*
X168931890Y-75518523D02*
X168979509Y-75470904D01*
X168979509Y-75470904D02*
X169074747Y-75423285D01*
X169074747Y-75423285D02*
X169312842Y-75423285D01*
X169312842Y-75423285D02*
X169408080Y-75470904D01*
X169408080Y-75470904D02*
X169455700Y-75518523D01*
X169455700Y-75518523D02*
X169503319Y-75613761D01*
X169503319Y-75613761D02*
X169503319Y-75899475D01*
X169503319Y-75899475D02*
X169455700Y-75994713D01*
X169455700Y-75994713D02*
X169408080Y-76042332D01*
X178538333Y-106244819D02*
X178205000Y-105768628D01*
X177966905Y-106244819D02*
X177966905Y-105244819D01*
X177966905Y-105244819D02*
X178347857Y-105244819D01*
X178347857Y-105244819D02*
X178443095Y-105292438D01*
X178443095Y-105292438D02*
X178490714Y-105340057D01*
X178490714Y-105340057D02*
X178538333Y-105435295D01*
X178538333Y-105435295D02*
X178538333Y-105578152D01*
X178538333Y-105578152D02*
X178490714Y-105673390D01*
X178490714Y-105673390D02*
X178443095Y-105721009D01*
X178443095Y-105721009D02*
X178347857Y-105768628D01*
X178347857Y-105768628D02*
X177966905Y-105768628D01*
X178919286Y-105340057D02*
X178966905Y-105292438D01*
X178966905Y-105292438D02*
X179062143Y-105244819D01*
X179062143Y-105244819D02*
X179300238Y-105244819D01*
X179300238Y-105244819D02*
X179395476Y-105292438D01*
X179395476Y-105292438D02*
X179443095Y-105340057D01*
X179443095Y-105340057D02*
X179490714Y-105435295D01*
X179490714Y-105435295D02*
X179490714Y-105530533D01*
X179490714Y-105530533D02*
X179443095Y-105673390D01*
X179443095Y-105673390D02*
X178871667Y-106244819D01*
X178871667Y-106244819D02*
X179490714Y-106244819D01*
X179563333Y-124024819D02*
X179230000Y-123548628D01*
X178991905Y-124024819D02*
X178991905Y-123024819D01*
X178991905Y-123024819D02*
X179372857Y-123024819D01*
X179372857Y-123024819D02*
X179468095Y-123072438D01*
X179468095Y-123072438D02*
X179515714Y-123120057D01*
X179515714Y-123120057D02*
X179563333Y-123215295D01*
X179563333Y-123215295D02*
X179563333Y-123358152D01*
X179563333Y-123358152D02*
X179515714Y-123453390D01*
X179515714Y-123453390D02*
X179468095Y-123501009D01*
X179468095Y-123501009D02*
X179372857Y-123548628D01*
X179372857Y-123548628D02*
X178991905Y-123548628D01*
X180515714Y-124024819D02*
X179944286Y-124024819D01*
X180230000Y-124024819D02*
X180230000Y-123024819D01*
X180230000Y-123024819D02*
X180134762Y-123167676D01*
X180134762Y-123167676D02*
X180039524Y-123262914D01*
X180039524Y-123262914D02*
X179944286Y-123310533D01*
X177464819Y-110053333D02*
X178179104Y-110053333D01*
X178179104Y-110053333D02*
X178321961Y-110100952D01*
X178321961Y-110100952D02*
X178417200Y-110196190D01*
X178417200Y-110196190D02*
X178464819Y-110339047D01*
X178464819Y-110339047D02*
X178464819Y-110434285D01*
X178464819Y-109577142D02*
X177464819Y-109577142D01*
X177464819Y-109577142D02*
X177464819Y-109196190D01*
X177464819Y-109196190D02*
X177512438Y-109100952D01*
X177512438Y-109100952D02*
X177560057Y-109053333D01*
X177560057Y-109053333D02*
X177655295Y-109005714D01*
X177655295Y-109005714D02*
X177798152Y-109005714D01*
X177798152Y-109005714D02*
X177893390Y-109053333D01*
X177893390Y-109053333D02*
X177941009Y-109100952D01*
X177941009Y-109100952D02*
X177988628Y-109196190D01*
X177988628Y-109196190D02*
X177988628Y-109577142D01*
X177798152Y-108148571D02*
X178464819Y-108148571D01*
X177417200Y-108386666D02*
X178131485Y-108624761D01*
X178131485Y-108624761D02*
X178131485Y-108005714D01*
X178099819Y-127833333D02*
X178814104Y-127833333D01*
X178814104Y-127833333D02*
X178956961Y-127880952D01*
X178956961Y-127880952D02*
X179052200Y-127976190D01*
X179052200Y-127976190D02*
X179099819Y-128119047D01*
X179099819Y-128119047D02*
X179099819Y-128214285D01*
X179099819Y-127357142D02*
X178099819Y-127357142D01*
X178099819Y-127357142D02*
X178099819Y-126976190D01*
X178099819Y-126976190D02*
X178147438Y-126880952D01*
X178147438Y-126880952D02*
X178195057Y-126833333D01*
X178195057Y-126833333D02*
X178290295Y-126785714D01*
X178290295Y-126785714D02*
X178433152Y-126785714D01*
X178433152Y-126785714D02*
X178528390Y-126833333D01*
X178528390Y-126833333D02*
X178576009Y-126880952D01*
X178576009Y-126880952D02*
X178623628Y-126976190D01*
X178623628Y-126976190D02*
X178623628Y-127357142D01*
X178195057Y-126404761D02*
X178147438Y-126357142D01*
X178147438Y-126357142D02*
X178099819Y-126261904D01*
X178099819Y-126261904D02*
X178099819Y-126023809D01*
X178099819Y-126023809D02*
X178147438Y-125928571D01*
X178147438Y-125928571D02*
X178195057Y-125880952D01*
X178195057Y-125880952D02*
X178290295Y-125833333D01*
X178290295Y-125833333D02*
X178385533Y-125833333D01*
X178385533Y-125833333D02*
X178528390Y-125880952D01*
X178528390Y-125880952D02*
X179099819Y-126452380D01*
X179099819Y-126452380D02*
X179099819Y-125833333D01*
X154764319Y-81986333D02*
X155478604Y-81986333D01*
X155478604Y-81986333D02*
X155621461Y-82033952D01*
X155621461Y-82033952D02*
X155716700Y-82129190D01*
X155716700Y-82129190D02*
X155764319Y-82272047D01*
X155764319Y-82272047D02*
X155764319Y-82367285D01*
X155764319Y-81510142D02*
X154764319Y-81510142D01*
X154764319Y-81510142D02*
X154764319Y-81129190D01*
X154764319Y-81129190D02*
X154811938Y-81033952D01*
X154811938Y-81033952D02*
X154859557Y-80986333D01*
X154859557Y-80986333D02*
X154954795Y-80938714D01*
X154954795Y-80938714D02*
X155097652Y-80938714D01*
X155097652Y-80938714D02*
X155192890Y-80986333D01*
X155192890Y-80986333D02*
X155240509Y-81033952D01*
X155240509Y-81033952D02*
X155288128Y-81129190D01*
X155288128Y-81129190D02*
X155288128Y-81510142D01*
X155764319Y-79986333D02*
X155764319Y-80557761D01*
X155764319Y-80272047D02*
X154764319Y-80272047D01*
X154764319Y-80272047D02*
X154907176Y-80367285D01*
X154907176Y-80367285D02*
X155002414Y-80462523D01*
X155002414Y-80462523D02*
X155050033Y-80557761D01*
X152517593Y-79067819D02*
X152184260Y-78591628D01*
X151946165Y-79067819D02*
X151946165Y-78067819D01*
X151946165Y-78067819D02*
X152327117Y-78067819D01*
X152327117Y-78067819D02*
X152422355Y-78115438D01*
X152422355Y-78115438D02*
X152469974Y-78163057D01*
X152469974Y-78163057D02*
X152517593Y-78258295D01*
X152517593Y-78258295D02*
X152517593Y-78401152D01*
X152517593Y-78401152D02*
X152469974Y-78496390D01*
X152469974Y-78496390D02*
X152422355Y-78544009D01*
X152422355Y-78544009D02*
X152327117Y-78591628D01*
X152327117Y-78591628D02*
X151946165Y-78591628D01*
X153327117Y-79020200D02*
X153231879Y-79067819D01*
X153231879Y-79067819D02*
X153041403Y-79067819D01*
X153041403Y-79067819D02*
X152946165Y-79020200D01*
X152946165Y-79020200D02*
X152898546Y-78924961D01*
X152898546Y-78924961D02*
X152898546Y-78544009D01*
X152898546Y-78544009D02*
X152946165Y-78448771D01*
X152946165Y-78448771D02*
X153041403Y-78401152D01*
X153041403Y-78401152D02*
X153231879Y-78401152D01*
X153231879Y-78401152D02*
X153327117Y-78448771D01*
X153327117Y-78448771D02*
X153374736Y-78544009D01*
X153374736Y-78544009D02*
X153374736Y-78639247D01*
X153374736Y-78639247D02*
X152898546Y-78734485D01*
X154231879Y-78401152D02*
X154231879Y-79210676D01*
X154231879Y-79210676D02*
X154184260Y-79305914D01*
X154184260Y-79305914D02*
X154136641Y-79353533D01*
X154136641Y-79353533D02*
X154041403Y-79401152D01*
X154041403Y-79401152D02*
X153898546Y-79401152D01*
X153898546Y-79401152D02*
X153803308Y-79353533D01*
X154231879Y-79020200D02*
X154136641Y-79067819D01*
X154136641Y-79067819D02*
X153946165Y-79067819D01*
X153946165Y-79067819D02*
X153850927Y-79020200D01*
X153850927Y-79020200D02*
X153803308Y-78972580D01*
X153803308Y-78972580D02*
X153755689Y-78877342D01*
X153755689Y-78877342D02*
X153755689Y-78591628D01*
X153755689Y-78591628D02*
X153803308Y-78496390D01*
X153803308Y-78496390D02*
X153850927Y-78448771D01*
X153850927Y-78448771D02*
X153946165Y-78401152D01*
X153946165Y-78401152D02*
X154136641Y-78401152D01*
X154136641Y-78401152D02*
X154231879Y-78448771D01*
X155136641Y-78401152D02*
X155136641Y-79067819D01*
X154708070Y-78401152D02*
X154708070Y-78924961D01*
X154708070Y-78924961D02*
X154755689Y-79020200D01*
X154755689Y-79020200D02*
X154850927Y-79067819D01*
X154850927Y-79067819D02*
X154993784Y-79067819D01*
X154993784Y-79067819D02*
X155089022Y-79020200D01*
X155089022Y-79020200D02*
X155136641Y-78972580D01*
X155755689Y-79067819D02*
X155660451Y-79020200D01*
X155660451Y-79020200D02*
X155612832Y-78924961D01*
X155612832Y-78924961D02*
X155612832Y-78067819D01*
X156565213Y-79067819D02*
X156565213Y-78544009D01*
X156565213Y-78544009D02*
X156517594Y-78448771D01*
X156517594Y-78448771D02*
X156422356Y-78401152D01*
X156422356Y-78401152D02*
X156231880Y-78401152D01*
X156231880Y-78401152D02*
X156136642Y-78448771D01*
X156565213Y-79020200D02*
X156469975Y-79067819D01*
X156469975Y-79067819D02*
X156231880Y-79067819D01*
X156231880Y-79067819D02*
X156136642Y-79020200D01*
X156136642Y-79020200D02*
X156089023Y-78924961D01*
X156089023Y-78924961D02*
X156089023Y-78829723D01*
X156089023Y-78829723D02*
X156136642Y-78734485D01*
X156136642Y-78734485D02*
X156231880Y-78686866D01*
X156231880Y-78686866D02*
X156469975Y-78686866D01*
X156469975Y-78686866D02*
X156565213Y-78639247D01*
X156898547Y-78401152D02*
X157279499Y-78401152D01*
X157041404Y-78067819D02*
X157041404Y-78924961D01*
X157041404Y-78924961D02*
X157089023Y-79020200D01*
X157089023Y-79020200D02*
X157184261Y-79067819D01*
X157184261Y-79067819D02*
X157279499Y-79067819D01*
X157755690Y-79067819D02*
X157660452Y-79020200D01*
X157660452Y-79020200D02*
X157612833Y-78972580D01*
X157612833Y-78972580D02*
X157565214Y-78877342D01*
X157565214Y-78877342D02*
X157565214Y-78591628D01*
X157565214Y-78591628D02*
X157612833Y-78496390D01*
X157612833Y-78496390D02*
X157660452Y-78448771D01*
X157660452Y-78448771D02*
X157755690Y-78401152D01*
X157755690Y-78401152D02*
X157898547Y-78401152D01*
X157898547Y-78401152D02*
X157993785Y-78448771D01*
X157993785Y-78448771D02*
X158041404Y-78496390D01*
X158041404Y-78496390D02*
X158089023Y-78591628D01*
X158089023Y-78591628D02*
X158089023Y-78877342D01*
X158089023Y-78877342D02*
X158041404Y-78972580D01*
X158041404Y-78972580D02*
X157993785Y-79020200D01*
X157993785Y-79020200D02*
X157898547Y-79067819D01*
X157898547Y-79067819D02*
X157755690Y-79067819D01*
X158517595Y-79067819D02*
X158517595Y-78401152D01*
X158517595Y-78591628D02*
X158565214Y-78496390D01*
X158565214Y-78496390D02*
X158612833Y-78448771D01*
X158612833Y-78448771D02*
X158708071Y-78401152D01*
X158708071Y-78401152D02*
X158803309Y-78401152D01*
X160231881Y-78544009D02*
X160374738Y-78591628D01*
X160374738Y-78591628D02*
X160422357Y-78639247D01*
X160422357Y-78639247D02*
X160469976Y-78734485D01*
X160469976Y-78734485D02*
X160469976Y-78877342D01*
X160469976Y-78877342D02*
X160422357Y-78972580D01*
X160422357Y-78972580D02*
X160374738Y-79020200D01*
X160374738Y-79020200D02*
X160279500Y-79067819D01*
X160279500Y-79067819D02*
X159898548Y-79067819D01*
X159898548Y-79067819D02*
X159898548Y-78067819D01*
X159898548Y-78067819D02*
X160231881Y-78067819D01*
X160231881Y-78067819D02*
X160327119Y-78115438D01*
X160327119Y-78115438D02*
X160374738Y-78163057D01*
X160374738Y-78163057D02*
X160422357Y-78258295D01*
X160422357Y-78258295D02*
X160422357Y-78353533D01*
X160422357Y-78353533D02*
X160374738Y-78448771D01*
X160374738Y-78448771D02*
X160327119Y-78496390D01*
X160327119Y-78496390D02*
X160231881Y-78544009D01*
X160231881Y-78544009D02*
X159898548Y-78544009D01*
X160803310Y-78401152D02*
X161041405Y-79067819D01*
X161279500Y-78401152D02*
X161041405Y-79067819D01*
X161041405Y-79067819D02*
X160946167Y-79305914D01*
X160946167Y-79305914D02*
X160898548Y-79353533D01*
X160898548Y-79353533D02*
X160803310Y-79401152D01*
X161660453Y-78401152D02*
X161660453Y-79401152D01*
X161660453Y-78448771D02*
X161755691Y-78401152D01*
X161755691Y-78401152D02*
X161946167Y-78401152D01*
X161946167Y-78401152D02*
X162041405Y-78448771D01*
X162041405Y-78448771D02*
X162089024Y-78496390D01*
X162089024Y-78496390D02*
X162136643Y-78591628D01*
X162136643Y-78591628D02*
X162136643Y-78877342D01*
X162136643Y-78877342D02*
X162089024Y-78972580D01*
X162089024Y-78972580D02*
X162041405Y-79020200D01*
X162041405Y-79020200D02*
X161946167Y-79067819D01*
X161946167Y-79067819D02*
X161755691Y-79067819D01*
X161755691Y-79067819D02*
X161660453Y-79020200D01*
X162993786Y-79067819D02*
X162993786Y-78544009D01*
X162993786Y-78544009D02*
X162946167Y-78448771D01*
X162946167Y-78448771D02*
X162850929Y-78401152D01*
X162850929Y-78401152D02*
X162660453Y-78401152D01*
X162660453Y-78401152D02*
X162565215Y-78448771D01*
X162993786Y-79020200D02*
X162898548Y-79067819D01*
X162898548Y-79067819D02*
X162660453Y-79067819D01*
X162660453Y-79067819D02*
X162565215Y-79020200D01*
X162565215Y-79020200D02*
X162517596Y-78924961D01*
X162517596Y-78924961D02*
X162517596Y-78829723D01*
X162517596Y-78829723D02*
X162565215Y-78734485D01*
X162565215Y-78734485D02*
X162660453Y-78686866D01*
X162660453Y-78686866D02*
X162898548Y-78686866D01*
X162898548Y-78686866D02*
X162993786Y-78639247D01*
X163422358Y-79020200D02*
X163517596Y-79067819D01*
X163517596Y-79067819D02*
X163708072Y-79067819D01*
X163708072Y-79067819D02*
X163803310Y-79020200D01*
X163803310Y-79020200D02*
X163850929Y-78924961D01*
X163850929Y-78924961D02*
X163850929Y-78877342D01*
X163850929Y-78877342D02*
X163803310Y-78782104D01*
X163803310Y-78782104D02*
X163708072Y-78734485D01*
X163708072Y-78734485D02*
X163565215Y-78734485D01*
X163565215Y-78734485D02*
X163469977Y-78686866D01*
X163469977Y-78686866D02*
X163422358Y-78591628D01*
X163422358Y-78591628D02*
X163422358Y-78544009D01*
X163422358Y-78544009D02*
X163469977Y-78448771D01*
X163469977Y-78448771D02*
X163565215Y-78401152D01*
X163565215Y-78401152D02*
X163708072Y-78401152D01*
X163708072Y-78401152D02*
X163803310Y-78448771D01*
X164231882Y-79020200D02*
X164327120Y-79067819D01*
X164327120Y-79067819D02*
X164517596Y-79067819D01*
X164517596Y-79067819D02*
X164612834Y-79020200D01*
X164612834Y-79020200D02*
X164660453Y-78924961D01*
X164660453Y-78924961D02*
X164660453Y-78877342D01*
X164660453Y-78877342D02*
X164612834Y-78782104D01*
X164612834Y-78782104D02*
X164517596Y-78734485D01*
X164517596Y-78734485D02*
X164374739Y-78734485D01*
X164374739Y-78734485D02*
X164279501Y-78686866D01*
X164279501Y-78686866D02*
X164231882Y-78591628D01*
X164231882Y-78591628D02*
X164231882Y-78544009D01*
X164231882Y-78544009D02*
X164279501Y-78448771D01*
X164279501Y-78448771D02*
X164374739Y-78401152D01*
X164374739Y-78401152D02*
X164517596Y-78401152D01*
X164517596Y-78401152D02*
X164612834Y-78448771D01*
X186420819Y-105518333D02*
X187135104Y-105518333D01*
X187135104Y-105518333D02*
X187277961Y-105565952D01*
X187277961Y-105565952D02*
X187373200Y-105661190D01*
X187373200Y-105661190D02*
X187420819Y-105804047D01*
X187420819Y-105804047D02*
X187420819Y-105899285D01*
X186754152Y-104613571D02*
X187420819Y-104613571D01*
X186373200Y-104851666D02*
X187087485Y-105089761D01*
X187087485Y-105089761D02*
X187087485Y-104470714D01*
X174926666Y-58433619D02*
X174926666Y-59147904D01*
X174926666Y-59147904D02*
X174879047Y-59290761D01*
X174879047Y-59290761D02*
X174783809Y-59386000D01*
X174783809Y-59386000D02*
X174640952Y-59433619D01*
X174640952Y-59433619D02*
X174545714Y-59433619D01*
X175926666Y-59433619D02*
X175355238Y-59433619D01*
X175640952Y-59433619D02*
X175640952Y-58433619D01*
X175640952Y-58433619D02*
X175545714Y-58576476D01*
X175545714Y-58576476D02*
X175450476Y-58671714D01*
X175450476Y-58671714D02*
X175355238Y-58719333D01*
X160081405Y-60272819D02*
X160081405Y-59272819D01*
X160081405Y-59272819D02*
X160319500Y-59272819D01*
X160319500Y-59272819D02*
X160462357Y-59320438D01*
X160462357Y-59320438D02*
X160557595Y-59415676D01*
X160557595Y-59415676D02*
X160605214Y-59510914D01*
X160605214Y-59510914D02*
X160652833Y-59701390D01*
X160652833Y-59701390D02*
X160652833Y-59844247D01*
X160652833Y-59844247D02*
X160605214Y-60034723D01*
X160605214Y-60034723D02*
X160557595Y-60129961D01*
X160557595Y-60129961D02*
X160462357Y-60225200D01*
X160462357Y-60225200D02*
X160319500Y-60272819D01*
X160319500Y-60272819D02*
X160081405Y-60272819D01*
X161509976Y-59272819D02*
X161319500Y-59272819D01*
X161319500Y-59272819D02*
X161224262Y-59320438D01*
X161224262Y-59320438D02*
X161176643Y-59368057D01*
X161176643Y-59368057D02*
X161081405Y-59510914D01*
X161081405Y-59510914D02*
X161033786Y-59701390D01*
X161033786Y-59701390D02*
X161033786Y-60082342D01*
X161033786Y-60082342D02*
X161081405Y-60177580D01*
X161081405Y-60177580D02*
X161129024Y-60225200D01*
X161129024Y-60225200D02*
X161224262Y-60272819D01*
X161224262Y-60272819D02*
X161414738Y-60272819D01*
X161414738Y-60272819D02*
X161509976Y-60225200D01*
X161509976Y-60225200D02*
X161557595Y-60177580D01*
X161557595Y-60177580D02*
X161605214Y-60082342D01*
X161605214Y-60082342D02*
X161605214Y-59844247D01*
X161605214Y-59844247D02*
X161557595Y-59749009D01*
X161557595Y-59749009D02*
X161509976Y-59701390D01*
X161509976Y-59701390D02*
X161414738Y-59653771D01*
X161414738Y-59653771D02*
X161224262Y-59653771D01*
X161224262Y-59653771D02*
X161129024Y-59701390D01*
X161129024Y-59701390D02*
X161081405Y-59749009D01*
X161081405Y-59749009D02*
X161033786Y-59844247D01*
X171283319Y-81637094D02*
X170283319Y-81637094D01*
X170283319Y-81637094D02*
X170283319Y-81398999D01*
X170283319Y-81398999D02*
X170330938Y-81256142D01*
X170330938Y-81256142D02*
X170426176Y-81160904D01*
X170426176Y-81160904D02*
X170521414Y-81113285D01*
X170521414Y-81113285D02*
X170711890Y-81065666D01*
X170711890Y-81065666D02*
X170854747Y-81065666D01*
X170854747Y-81065666D02*
X171045223Y-81113285D01*
X171045223Y-81113285D02*
X171140461Y-81160904D01*
X171140461Y-81160904D02*
X171235700Y-81256142D01*
X171235700Y-81256142D02*
X171283319Y-81398999D01*
X171283319Y-81398999D02*
X171283319Y-81637094D01*
X170283319Y-80732332D02*
X170283319Y-80113285D01*
X170283319Y-80113285D02*
X170664271Y-80446618D01*
X170664271Y-80446618D02*
X170664271Y-80303761D01*
X170664271Y-80303761D02*
X170711890Y-80208523D01*
X170711890Y-80208523D02*
X170759509Y-80160904D01*
X170759509Y-80160904D02*
X170854747Y-80113285D01*
X170854747Y-80113285D02*
X171092842Y-80113285D01*
X171092842Y-80113285D02*
X171188080Y-80160904D01*
X171188080Y-80160904D02*
X171235700Y-80208523D01*
X171235700Y-80208523D02*
X171283319Y-80303761D01*
X171283319Y-80303761D02*
X171283319Y-80589475D01*
X171283319Y-80589475D02*
X171235700Y-80684713D01*
X171235700Y-80684713D02*
X171188080Y-80732332D01*
X183411905Y-102944819D02*
X183411905Y-101944819D01*
X183411905Y-101944819D02*
X183650000Y-101944819D01*
X183650000Y-101944819D02*
X183792857Y-101992438D01*
X183792857Y-101992438D02*
X183888095Y-102087676D01*
X183888095Y-102087676D02*
X183935714Y-102182914D01*
X183935714Y-102182914D02*
X183983333Y-102373390D01*
X183983333Y-102373390D02*
X183983333Y-102516247D01*
X183983333Y-102516247D02*
X183935714Y-102706723D01*
X183935714Y-102706723D02*
X183888095Y-102801961D01*
X183888095Y-102801961D02*
X183792857Y-102897200D01*
X183792857Y-102897200D02*
X183650000Y-102944819D01*
X183650000Y-102944819D02*
X183411905Y-102944819D01*
X184364286Y-102040057D02*
X184411905Y-101992438D01*
X184411905Y-101992438D02*
X184507143Y-101944819D01*
X184507143Y-101944819D02*
X184745238Y-101944819D01*
X184745238Y-101944819D02*
X184840476Y-101992438D01*
X184840476Y-101992438D02*
X184888095Y-102040057D01*
X184888095Y-102040057D02*
X184935714Y-102135295D01*
X184935714Y-102135295D02*
X184935714Y-102230533D01*
X184935714Y-102230533D02*
X184888095Y-102373390D01*
X184888095Y-102373390D02*
X184316667Y-102944819D01*
X184316667Y-102944819D02*
X184935714Y-102944819D01*
X184436905Y-120724819D02*
X184436905Y-119724819D01*
X184436905Y-119724819D02*
X184675000Y-119724819D01*
X184675000Y-119724819D02*
X184817857Y-119772438D01*
X184817857Y-119772438D02*
X184913095Y-119867676D01*
X184913095Y-119867676D02*
X184960714Y-119962914D01*
X184960714Y-119962914D02*
X185008333Y-120153390D01*
X185008333Y-120153390D02*
X185008333Y-120296247D01*
X185008333Y-120296247D02*
X184960714Y-120486723D01*
X184960714Y-120486723D02*
X184913095Y-120581961D01*
X184913095Y-120581961D02*
X184817857Y-120677200D01*
X184817857Y-120677200D02*
X184675000Y-120724819D01*
X184675000Y-120724819D02*
X184436905Y-120724819D01*
X185960714Y-120724819D02*
X185389286Y-120724819D01*
X185675000Y-120724819D02*
X185675000Y-119724819D01*
X185675000Y-119724819D02*
X185579762Y-119867676D01*
X185579762Y-119867676D02*
X185484524Y-119962914D01*
X185484524Y-119962914D02*
X185389286Y-120010533D01*
X145387833Y-127584580D02*
X145340214Y-127632200D01*
X145340214Y-127632200D02*
X145197357Y-127679819D01*
X145197357Y-127679819D02*
X145102119Y-127679819D01*
X145102119Y-127679819D02*
X144959262Y-127632200D01*
X144959262Y-127632200D02*
X144864024Y-127536961D01*
X144864024Y-127536961D02*
X144816405Y-127441723D01*
X144816405Y-127441723D02*
X144768786Y-127251247D01*
X144768786Y-127251247D02*
X144768786Y-127108390D01*
X144768786Y-127108390D02*
X144816405Y-126917914D01*
X144816405Y-126917914D02*
X144864024Y-126822676D01*
X144864024Y-126822676D02*
X144959262Y-126727438D01*
X144959262Y-126727438D02*
X145102119Y-126679819D01*
X145102119Y-126679819D02*
X145197357Y-126679819D01*
X145197357Y-126679819D02*
X145340214Y-126727438D01*
X145340214Y-126727438D02*
X145387833Y-126775057D01*
X146292595Y-126679819D02*
X145816405Y-126679819D01*
X145816405Y-126679819D02*
X145768786Y-127156009D01*
X145768786Y-127156009D02*
X145816405Y-127108390D01*
X145816405Y-127108390D02*
X145911643Y-127060771D01*
X145911643Y-127060771D02*
X146149738Y-127060771D01*
X146149738Y-127060771D02*
X146244976Y-127108390D01*
X146244976Y-127108390D02*
X146292595Y-127156009D01*
X146292595Y-127156009D02*
X146340214Y-127251247D01*
X146340214Y-127251247D02*
X146340214Y-127489342D01*
X146340214Y-127489342D02*
X146292595Y-127584580D01*
X146292595Y-127584580D02*
X146244976Y-127632200D01*
X146244976Y-127632200D02*
X146149738Y-127679819D01*
X146149738Y-127679819D02*
X145911643Y-127679819D01*
X145911643Y-127679819D02*
X145816405Y-127632200D01*
X145816405Y-127632200D02*
X145768786Y-127584580D01*
X174104080Y-68387166D02*
X174151700Y-68434785D01*
X174151700Y-68434785D02*
X174199319Y-68577642D01*
X174199319Y-68577642D02*
X174199319Y-68672880D01*
X174199319Y-68672880D02*
X174151700Y-68815737D01*
X174151700Y-68815737D02*
X174056461Y-68910975D01*
X174056461Y-68910975D02*
X173961223Y-68958594D01*
X173961223Y-68958594D02*
X173770747Y-69006213D01*
X173770747Y-69006213D02*
X173627890Y-69006213D01*
X173627890Y-69006213D02*
X173437414Y-68958594D01*
X173437414Y-68958594D02*
X173342176Y-68910975D01*
X173342176Y-68910975D02*
X173246938Y-68815737D01*
X173246938Y-68815737D02*
X173199319Y-68672880D01*
X173199319Y-68672880D02*
X173199319Y-68577642D01*
X173199319Y-68577642D02*
X173246938Y-68434785D01*
X173246938Y-68434785D02*
X173294557Y-68387166D01*
X173532652Y-67530023D02*
X174199319Y-67530023D01*
X173151700Y-67768118D02*
X173865985Y-68006213D01*
X173865985Y-68006213D02*
X173865985Y-67387166D01*
X168389080Y-68387166D02*
X168436700Y-68434785D01*
X168436700Y-68434785D02*
X168484319Y-68577642D01*
X168484319Y-68577642D02*
X168484319Y-68672880D01*
X168484319Y-68672880D02*
X168436700Y-68815737D01*
X168436700Y-68815737D02*
X168341461Y-68910975D01*
X168341461Y-68910975D02*
X168246223Y-68958594D01*
X168246223Y-68958594D02*
X168055747Y-69006213D01*
X168055747Y-69006213D02*
X167912890Y-69006213D01*
X167912890Y-69006213D02*
X167722414Y-68958594D01*
X167722414Y-68958594D02*
X167627176Y-68910975D01*
X167627176Y-68910975D02*
X167531938Y-68815737D01*
X167531938Y-68815737D02*
X167484319Y-68672880D01*
X167484319Y-68672880D02*
X167484319Y-68577642D01*
X167484319Y-68577642D02*
X167531938Y-68434785D01*
X167531938Y-68434785D02*
X167579557Y-68387166D01*
X167484319Y-68053832D02*
X167484319Y-67434785D01*
X167484319Y-67434785D02*
X167865271Y-67768118D01*
X167865271Y-67768118D02*
X167865271Y-67625261D01*
X167865271Y-67625261D02*
X167912890Y-67530023D01*
X167912890Y-67530023D02*
X167960509Y-67482404D01*
X167960509Y-67482404D02*
X168055747Y-67434785D01*
X168055747Y-67434785D02*
X168293842Y-67434785D01*
X168293842Y-67434785D02*
X168389080Y-67482404D01*
X168389080Y-67482404D02*
X168436700Y-67530023D01*
X168436700Y-67530023D02*
X168484319Y-67625261D01*
X168484319Y-67625261D02*
X168484319Y-67910975D01*
X168484319Y-67910975D02*
X168436700Y-68006213D01*
X168436700Y-68006213D02*
X168389080Y-68053832D01*
X149339080Y-70292166D02*
X149386700Y-70339785D01*
X149386700Y-70339785D02*
X149434319Y-70482642D01*
X149434319Y-70482642D02*
X149434319Y-70577880D01*
X149434319Y-70577880D02*
X149386700Y-70720737D01*
X149386700Y-70720737D02*
X149291461Y-70815975D01*
X149291461Y-70815975D02*
X149196223Y-70863594D01*
X149196223Y-70863594D02*
X149005747Y-70911213D01*
X149005747Y-70911213D02*
X148862890Y-70911213D01*
X148862890Y-70911213D02*
X148672414Y-70863594D01*
X148672414Y-70863594D02*
X148577176Y-70815975D01*
X148577176Y-70815975D02*
X148481938Y-70720737D01*
X148481938Y-70720737D02*
X148434319Y-70577880D01*
X148434319Y-70577880D02*
X148434319Y-70482642D01*
X148434319Y-70482642D02*
X148481938Y-70339785D01*
X148481938Y-70339785D02*
X148529557Y-70292166D01*
X148529557Y-69911213D02*
X148481938Y-69863594D01*
X148481938Y-69863594D02*
X148434319Y-69768356D01*
X148434319Y-69768356D02*
X148434319Y-69530261D01*
X148434319Y-69530261D02*
X148481938Y-69435023D01*
X148481938Y-69435023D02*
X148529557Y-69387404D01*
X148529557Y-69387404D02*
X148624795Y-69339785D01*
X148624795Y-69339785D02*
X148720033Y-69339785D01*
X148720033Y-69339785D02*
X148862890Y-69387404D01*
X148862890Y-69387404D02*
X149434319Y-69958832D01*
X149434319Y-69958832D02*
X149434319Y-69339785D01*
X169438080Y-81053166D02*
X169485700Y-81100785D01*
X169485700Y-81100785D02*
X169533319Y-81243642D01*
X169533319Y-81243642D02*
X169533319Y-81338880D01*
X169533319Y-81338880D02*
X169485700Y-81481737D01*
X169485700Y-81481737D02*
X169390461Y-81576975D01*
X169390461Y-81576975D02*
X169295223Y-81624594D01*
X169295223Y-81624594D02*
X169104747Y-81672213D01*
X169104747Y-81672213D02*
X168961890Y-81672213D01*
X168961890Y-81672213D02*
X168771414Y-81624594D01*
X168771414Y-81624594D02*
X168676176Y-81576975D01*
X168676176Y-81576975D02*
X168580938Y-81481737D01*
X168580938Y-81481737D02*
X168533319Y-81338880D01*
X168533319Y-81338880D02*
X168533319Y-81243642D01*
X168533319Y-81243642D02*
X168580938Y-81100785D01*
X168580938Y-81100785D02*
X168628557Y-81053166D01*
X169533319Y-80100785D02*
X169533319Y-80672213D01*
X169533319Y-80386499D02*
X168533319Y-80386499D01*
X168533319Y-80386499D02*
X168676176Y-80481737D01*
X168676176Y-80481737D02*
X168771414Y-80576975D01*
X168771414Y-80576975D02*
X168819033Y-80672213D01*
D13*
%TO.C,J2*%
X134090200Y-88437000D02*
X121500200Y-88437000D01*
X134090200Y-104857000D02*
X136728200Y-104902000D01*
X142570200Y-104902000D02*
X142570200Y-88392000D01*
X121500200Y-88437000D02*
X121500200Y-104857000D01*
X142570200Y-88392000D02*
X136728200Y-88392000D01*
X121500200Y-104857000D02*
X134090200Y-104857000D01*
X136728200Y-104902000D02*
X142570200Y-104902000D01*
%TO.C,J3*%
X209810000Y-114431000D02*
X203030000Y-114431000D01*
X200830000Y-127631000D02*
X191810000Y-127631000D01*
X193810000Y-128101000D02*
X192280000Y-128101000D01*
D12*
X209690000Y-114431000D02*
X209810000Y-114431000D01*
D13*
X191810000Y-127631000D02*
X191810000Y-114431000D01*
D12*
X200760000Y-127631000D02*
X200830000Y-127631000D01*
D13*
X191810000Y-114431000D02*
X200830000Y-114431000D01*
X209810000Y-114431000D02*
X209810000Y-127631000D01*
D12*
X209800000Y-114431000D02*
X209810000Y-114431000D01*
D13*
X209810000Y-127631000D02*
X203030000Y-127631000D01*
D12*
%TO.C,U3*%
X130378000Y-133477000D02*
X151841000Y-133477000D01*
X151841000Y-133477000D02*
X151841000Y-109093000D01*
X124028000Y-126111000D02*
X130378000Y-133477000D01*
X124028000Y-121285000D02*
X124028000Y-126111000D01*
X124028000Y-121285000D02*
X124028000Y-116459000D01*
X130378000Y-109093000D02*
X124028000Y-116459000D01*
X130378000Y-109093000D02*
X151841000Y-109093000D01*
%TO.C,SW2*%
X188886900Y-63068200D02*
X188886900Y-66675000D01*
X179946100Y-63068200D02*
X188886900Y-63068200D01*
X188886900Y-66675000D02*
X179946100Y-66675000D01*
X179946100Y-66675000D02*
X179946100Y-63068200D01*
D13*
%TO.C,SW1*%
X192120500Y-73667000D02*
X192120500Y-94227000D01*
X192120500Y-94227000D02*
X202620500Y-94227000D01*
X195120500Y-73727000D02*
X195120500Y-94167000D01*
X195120500Y-94167000D02*
X199620500Y-94167000D01*
X196370500Y-73727000D02*
X195120500Y-73727000D01*
X199620500Y-73727000D02*
X198370500Y-73727000D01*
X199620500Y-94167000D02*
X199620500Y-73727000D01*
X202620500Y-73667000D02*
X192120500Y-73667000D01*
X202620500Y-94227000D02*
X202620500Y-73667000D01*
X198370500Y-73727000D02*
G75*
G02*
X196370500Y-73727000I-1000000J0D01*
G01*
%TO.C,J5*%
X145639500Y-72958000D02*
X144309500Y-72958000D01*
X145639500Y-71628000D02*
X145639500Y-72958000D01*
X142979500Y-70358000D02*
X142979500Y-67758000D01*
X145639500Y-70358000D02*
X142979500Y-70358000D01*
X145639500Y-70358000D02*
X145639500Y-67758000D01*
X145639500Y-67758000D02*
X142979500Y-67758000D01*
%TO.C,U2*%
X157064500Y-66313000D02*
X160824500Y-66313000D01*
X157064500Y-73133000D02*
X160824500Y-73133000D01*
X160824500Y-66313000D02*
X160824500Y-67573000D01*
X160824500Y-73133000D02*
X160824500Y-71873000D01*
X155784500Y-66413000D02*
X155544500Y-66083000D01*
X156024500Y-66083000D01*
X155784500Y-66413000D01*
G36*
X155784500Y-66413000D02*
G01*
X155544500Y-66083000D01*
X156024500Y-66083000D01*
X155784500Y-66413000D01*
G37*
%TO.C,U1*%
X171855700Y-101470800D02*
X171855700Y-92440800D01*
X176555700Y-101470800D02*
X171855700Y-101470800D01*
D14*
X176555700Y-101470800D02*
X177329900Y-101470800D01*
D13*
X171855700Y-92440800D02*
X172655700Y-91640800D01*
X172655700Y-91640800D02*
X176555700Y-91640800D01*
D14*
X176555700Y-91640800D02*
X177329900Y-91640800D01*
D13*
X177329900Y-91640800D02*
X177329900Y-101470800D01*
%TO.C,RN2*%
X205368500Y-96817000D02*
X208168500Y-96817000D01*
X208168500Y-96817000D02*
X208168500Y-73617000D01*
X205368500Y-94107000D02*
X208168500Y-94107000D01*
X205368500Y-73617000D02*
X205368500Y-96817000D01*
X208168500Y-73617000D02*
X205368500Y-73617000D01*
%TO.C,RN1*%
X184540500Y-94277000D02*
X187340500Y-94277000D01*
X187340500Y-94277000D02*
X187340500Y-71077000D01*
X187340500Y-73787000D02*
X184540500Y-73787000D01*
X184540500Y-71077000D02*
X184540500Y-94277000D01*
X187340500Y-71077000D02*
X184540500Y-71077000D01*
%TO.C,R21*%
X149403000Y-100594936D02*
X149403000Y-101049064D01*
X150873000Y-100594936D02*
X150873000Y-101049064D01*
%TO.C,R20*%
X154229000Y-100610936D02*
X154229000Y-101065064D01*
X155699000Y-100610936D02*
X155699000Y-101065064D01*
%TO.C,R19*%
X160756000Y-100864936D02*
X160756000Y-101319064D01*
X159286000Y-100864936D02*
X159286000Y-101319064D01*
%TO.C,R18*%
X165582000Y-100848936D02*
X165582000Y-101303064D01*
X164112000Y-100848936D02*
X164112000Y-101303064D01*
%TO.C,R17*%
X165847500Y-92318064D02*
X165847500Y-91863936D01*
X164377500Y-92318064D02*
X164377500Y-91863936D01*
%TO.C,R16*%
X161021500Y-92318064D02*
X161021500Y-91863936D01*
X159551500Y-92318064D02*
X159551500Y-91863936D01*
%TO.C,R15*%
X154448500Y-92460064D02*
X154448500Y-92005936D01*
X155918500Y-92460064D02*
X155918500Y-92005936D01*
%TO.C,R14*%
X149368500Y-92351814D02*
X149368500Y-91897686D01*
X150838500Y-92351814D02*
X150838500Y-91897686D01*
%TO.C,R13*%
X150850000Y-87690686D02*
X150850000Y-88144814D01*
X149380000Y-87690686D02*
X149380000Y-88144814D01*
%TO.C,R12*%
X155930000Y-87528936D02*
X155930000Y-87983064D01*
X154460000Y-87528936D02*
X154460000Y-87983064D01*
%TO.C,R11*%
X161010000Y-87418936D02*
X161010000Y-87873064D01*
X159540000Y-87418936D02*
X159540000Y-87873064D01*
%TO.C,R10*%
X165836000Y-87418936D02*
X165836000Y-87873064D01*
X164366000Y-87418936D02*
X164366000Y-87873064D01*
%TO.C,R9*%
X165593500Y-106018064D02*
X165593500Y-105563936D01*
X164123500Y-106018064D02*
X164123500Y-105563936D01*
%TO.C,R8*%
X160767500Y-106018064D02*
X160767500Y-105563936D01*
X159297500Y-106018064D02*
X159297500Y-105563936D01*
%TO.C,R7*%
X155687500Y-106002064D02*
X155687500Y-105547936D01*
X154217500Y-106002064D02*
X154217500Y-105547936D01*
%TO.C,R6*%
X156966564Y-62203000D02*
X156512436Y-62203000D01*
X156966564Y-60733000D02*
X156512436Y-60733000D01*
%TO.C,R5*%
X150861500Y-105986064D02*
X150861500Y-105531936D01*
X149391500Y-105986064D02*
X149391500Y-105531936D01*
%TO.C,R4*%
X135865936Y-129132000D02*
X136320064Y-129132000D01*
X135865936Y-127662000D02*
X136320064Y-127662000D01*
%TO.C,R3*%
X168133500Y-75981936D02*
X168133500Y-76436064D01*
X166663500Y-75981936D02*
X166663500Y-76436064D01*
%TO.C,R2*%
X178932064Y-104875000D02*
X178477936Y-104875000D01*
X178932064Y-103405000D02*
X178477936Y-103405000D01*
%TO.C,R1*%
X179957064Y-122655000D02*
X179502936Y-122655000D01*
X179957064Y-121185000D02*
X179502936Y-121185000D01*
%TO.C,JP4*%
X179010000Y-110550000D02*
X179010000Y-109220000D01*
X180340000Y-110550000D02*
X179010000Y-110550000D01*
X181610000Y-110550000D02*
X184210000Y-110550000D01*
X181610000Y-110550000D02*
X181610000Y-107890000D01*
X184210000Y-110550000D02*
X184210000Y-107890000D01*
X181610000Y-107890000D02*
X184210000Y-107890000D01*
%TO.C,JP2*%
X179645000Y-128330000D02*
X179645000Y-127000000D01*
X180975000Y-128330000D02*
X179645000Y-128330000D01*
X182245000Y-128330000D02*
X184845000Y-128330000D01*
X182245000Y-128330000D02*
X182245000Y-125670000D01*
X184845000Y-128330000D02*
X184845000Y-125670000D01*
X182245000Y-125670000D02*
X184845000Y-125670000D01*
%TO.C,JP1*%
X156309500Y-82483000D02*
X156309500Y-81153000D01*
X157639500Y-82483000D02*
X156309500Y-82483000D01*
X158909500Y-82483000D02*
X161509500Y-82483000D01*
X158909500Y-82483000D02*
X158909500Y-79823000D01*
X161509500Y-82483000D02*
X161509500Y-79823000D01*
X158909500Y-79823000D02*
X161509500Y-79823000D01*
%TO.C,J4*%
X209810000Y-98429000D02*
X203030000Y-98429000D01*
X200830000Y-111629000D02*
X191810000Y-111629000D01*
X193810000Y-112099000D02*
X192280000Y-112099000D01*
D12*
X209690000Y-98429000D02*
X209810000Y-98429000D01*
D13*
X191810000Y-111629000D02*
X191810000Y-98429000D01*
D12*
X200760000Y-111629000D02*
X200830000Y-111629000D01*
D13*
X191810000Y-98429000D02*
X200830000Y-98429000D01*
X209810000Y-98429000D02*
X209810000Y-111629000D01*
D12*
X209800000Y-98429000D02*
X209810000Y-98429000D01*
D13*
X209810000Y-111629000D02*
X203030000Y-111629000D01*
%TO.C,J1*%
X176446500Y-60167000D02*
X176446500Y-61497000D01*
X175116500Y-60167000D02*
X176446500Y-60167000D01*
X173846500Y-60167000D02*
X163626500Y-60167000D01*
X173846500Y-60167000D02*
X173846500Y-62827000D01*
X163626500Y-60167000D02*
X163626500Y-62827000D01*
X173846500Y-62827000D02*
X163626500Y-62827000D01*
%TO.C,D6*%
X158959500Y-60508000D02*
X158959500Y-62428000D01*
X158959500Y-62428000D02*
X161819500Y-62428000D01*
X161819500Y-60508000D02*
X158959500Y-60508000D01*
%TO.C,D3*%
X171518500Y-82759000D02*
X173438500Y-82759000D01*
X173438500Y-82759000D02*
X173438500Y-79899000D01*
X171518500Y-79899000D02*
X171518500Y-82759000D01*
%TO.C,D2*%
X182290000Y-103180000D02*
X182290000Y-105100000D01*
X182290000Y-105100000D02*
X185150000Y-105100000D01*
X185150000Y-103180000D02*
X182290000Y-103180000D01*
%TO.C,D1*%
X183315000Y-120960000D02*
X183315000Y-122880000D01*
X183315000Y-122880000D02*
X186175000Y-122880000D01*
X186175000Y-120960000D02*
X183315000Y-120960000D01*
%TO.C,C5*%
X145293248Y-129640000D02*
X145815752Y-129640000D01*
X145293248Y-128170000D02*
X145815752Y-128170000D01*
%TO.C,C4*%
X174689500Y-68481752D02*
X174689500Y-67959248D01*
X176159500Y-68481752D02*
X176159500Y-67959248D01*
%TO.C,C3*%
X168974500Y-68481752D02*
X168974500Y-67959248D01*
X170444500Y-68481752D02*
X170444500Y-67959248D01*
%TO.C,C2*%
X149924500Y-70386752D02*
X149924500Y-69864248D01*
X151394500Y-70386752D02*
X151394500Y-69864248D01*
%TO.C,C1*%
X168133500Y-80625248D02*
X168133500Y-81147752D01*
X166663500Y-80625248D02*
X166663500Y-81147752D01*
%TD*%
M02*
