M48
; DRILL file {KiCad 8.0.1} date 2024-03-27T11:30:36-0600
; FORMAT={-:-/ absolute / inch / decimal}
; #@! TF.CreationDate,2024-03-27T11:30:36-06:00
; #@! TF.GenerationSoftware,Kicad,Pcbnew,8.0.1
; #@! TF.FileFunction,Plated,1,2,PTH
FMAT,2
INCH
; #@! TA.AperFunction,Plated,PTH,ComponentDrill
T1C0.0150
; #@! TA.AperFunction,Plated,PTH,ViaDrill
T2C0.0157
; #@! TA.AperFunction,Plated,PTH,ComponentDrill
T3C0.0299
; #@! TA.AperFunction,Plated,PTH,ComponentDrill
T4C0.0315
; #@! TA.AperFunction,Plated,PTH,ComponentDrill
T5C0.0350
; #@! TA.AperFunction,Plated,PTH,ComponentDrill
T6C0.0354
; #@! TA.AperFunction,Plated,PTH,ComponentDrill
T7C0.0394
; #@! TA.AperFunction,Plated,PTH,ComponentDrill
T8C0.0400
; #@! TA.AperFunction,Plated,PTH,ComponentDrill
T9C0.0630
; #@! TA.AperFunction,Plated,PTH,ComponentDrill
T10C0.1500
%
G90
G05
T1
X5.9096Y-3.6663
X5.9109Y-3.93
X5.9109Y-4.0087
X6.1009Y-3.9306
X6.1009Y-4.0094
X6.1096Y-3.6706
X6.11Y-3.4156
X6.3Y-3.9406
X6.3Y-4.0194
X6.31Y-3.4113
X6.3105Y-3.665
X6.49Y-3.94
X6.49Y-4.0187
X6.5005Y-3.665
X6.5905Y-3.2254
X6.6815Y-2.645
X6.7905Y-3.2254
X6.9065Y-2.645
X7.0366Y-4.8
T2
X6.6405Y-3.815
X6.6705Y-4.1535
X6.7105Y-4.125
X6.7205Y-3.565
X6.7305Y-4.035
X6.7968Y-3.6542
X6.7968Y-3.7242
X6.8368Y-3.6842
X6.8468Y-3.7342
X7.1005Y-3.565
X7.1405Y-3.895
X7.1605Y-2.825
T3
X7.6Y-4.0598
X7.6Y-4.1598
X7.6Y-4.6898
X7.6Y-4.7898
X7.7Y-4.1098
X7.7Y-4.2098
X7.7Y-4.7398
X7.7Y-4.8398
T4
X7.3205Y-2.855
X7.3205Y-2.955
X7.3205Y-3.055
X7.3205Y-3.155
X7.3205Y-3.255
X7.3205Y-3.355
X7.3205Y-3.455
X7.3205Y-3.555
X7.3205Y-3.655
X7.6205Y-2.955
X7.6205Y-3.055
X7.6205Y-3.155
X7.6205Y-3.255
X7.6205Y-3.355
X7.6205Y-3.455
X7.6205Y-3.555
X7.6205Y-3.655
X7.9205Y-2.955
X7.9205Y-3.055
X7.9205Y-3.155
X7.9205Y-3.255
X7.9205Y-3.355
X7.9205Y-3.455
X7.9205Y-3.555
X7.9205Y-3.655
X8.1405Y-2.955
X8.1405Y-3.055
X8.1405Y-3.155
X8.1405Y-3.255
X8.1405Y-3.355
X8.1405Y-3.455
X8.1405Y-3.555
X8.1405Y-3.655
X8.1405Y-3.755
T5
X5.206Y-5.205
X5.207Y-4.345
X5.284Y-5.205
X5.285Y-4.345
X5.362Y-5.205
X5.363Y-4.345
X5.44Y-5.205
X5.441Y-4.345
X5.518Y-5.205
X5.519Y-4.345
X5.596Y-5.205
X5.597Y-4.345
X5.674Y-5.205
X5.675Y-4.345
X5.752Y-5.205
X5.753Y-4.345
X5.83Y-5.205
X5.831Y-4.345
X5.908Y-5.205
X5.909Y-4.345
T6
X5.463Y-3.63
X5.463Y-3.73
X5.463Y-3.83
X5.463Y-3.93
X5.563Y-3.68
X5.563Y-3.78
X5.563Y-3.88
X5.563Y-3.98
T7
X5.6815Y-2.72
X5.6815Y-2.82
X6.2063Y-3.195
X6.3063Y-3.195
X6.4944Y-2.4211
X6.5944Y-2.4211
X6.6944Y-2.4211
X6.7944Y-2.4211
X6.8944Y-2.4211
X7.1Y-4.3
X7.125Y-5.0
X7.2Y-4.3
X7.225Y-5.0
T8
X7.1505Y-2.494
X7.1505Y-2.625
X7.2485Y-2.494
X7.2485Y-2.625
X7.3505Y-2.494
X7.3505Y-2.625
T9
X5.3331Y-3.494
X5.3331Y-4.116
T10
X4.923Y-2.2779
X4.923Y-5.47
X8.116Y-5.471
X8.118Y-2.279
M30
